<?xml version="1.0" encoding="utf-8" standalone="no"?>
<!DOCTYPE svg PUBLIC "-//W3C//DTD SVG 1.1//EN"
  "http://www.w3.org/Graphics/SVG/1.1/DTD/svg11.dtd">
<svg xmlns:xlink="http://www.w3.org/1999/xlink" width="1624.32pt" height="976.32pt" viewBox="0 0 1624.32 976.32" xmlns="http://www.w3.org/2000/svg" version="1.1">
 <metadata>
  <rdf:RDF xmlns:dc="http://purl.org/dc/elements/1.1/" xmlns:cc="http://creativecommons.org/ns#" xmlns:rdf="http://www.w3.org/1999/02/22-rdf-syntax-ns#">
   <cc:Work>
    <dc:type rdf:resource="http://purl.org/dc/dcmitype/StillImage"/>
    <dc:date>2024-02-12T16:15:11.325556</dc:date>
    <dc:format>image/svg+xml</dc:format>
    <dc:creator>
     <cc:Agent>
      <dc:title>Matplotlib v3.8.2, https://matplotlib.org/</dc:title>
     </cc:Agent>
    </dc:creator>
   </cc:Work>
  </rdf:RDF>
 </metadata>
 <defs>
  <style type="text/css">*{stroke-linejoin: round; stroke-linecap: butt}</style>
 </defs>
 <g id="figure_1">
  <g id="patch_1">
   <path d="M 0 976.32 
L 1624.32 976.32 
L 1624.32 0 
L 0 0 
z
" style="fill: #ffffff"/>
  </g>
  <g id="axes_1">
   <g id="patch_2">
    <path d="M 203.04 868.9248 
L 1461.888 868.9248 
L 1461.888 117.1584 
L 203.04 117.1584 
z
" style="fill: #ffffff"/>
   </g>
   <g id="matplotlib.axis_1">
    <g id="xtick_1">
     <g id="line2d_1">
      <path d="M 306.036655 868.9248 
L 306.036655 117.1584 
" clip-path="url(#p99ac023bad)" style="fill: none; stroke: #b0b0b0; stroke-width: 0.8; stroke-linecap: square"/>
     </g>
     <g id="line2d_2">
      <defs>
       <path id="mecec93b7da" d="M 0 0 
L 0 3.5 
" style="stroke: #000000; stroke-width: 0.8"/>
      </defs>
      <g>
       <use xlink:href="#mecec93b7da" x="306.036655" y="868.9248" style="stroke: #000000; stroke-width: 0.8"/>
      </g>
     </g>
     <g id="text_1">
      <!-- 0 -->
      <g transform="translate(299.674155 891.121675) scale(0.2 -0.2)">
       <defs>
        <path id="DejaVuSans-30" d="M 2034 4250 
Q 1547 4250 1301 3770 
Q 1056 3291 1056 2328 
Q 1056 1369 1301 889 
Q 1547 409 2034 409 
Q 2525 409 2770 889 
Q 3016 1369 3016 2328 
Q 3016 3291 2770 3770 
Q 2525 4250 2034 4250 
z
M 2034 4750 
Q 2819 4750 3233 4129 
Q 3647 3509 3647 2328 
Q 3647 1150 3233 529 
Q 2819 -91 2034 -91 
Q 1250 -91 836 529 
Q 422 1150 422 2328 
Q 422 3509 836 4129 
Q 1250 4750 2034 4750 
z
" transform="scale(0.015625)"/>
       </defs>
       <use xlink:href="#DejaVuSans-30"/>
      </g>
     </g>
    </g>
    <g id="xtick_2">
     <g id="line2d_3">
      <path d="M 501.494771 868.9248 
L 501.494771 117.1584 
" clip-path="url(#p99ac023bad)" style="fill: none; stroke: #b0b0b0; stroke-width: 0.8; stroke-linecap: square"/>
     </g>
     <g id="line2d_4">
      <g>
       <use xlink:href="#mecec93b7da" x="501.494771" y="868.9248" style="stroke: #000000; stroke-width: 0.8"/>
      </g>
     </g>
     <g id="text_2">
      <!-- 20000 -->
      <g transform="translate(469.682271 891.121675) scale(0.2 -0.2)">
       <defs>
        <path id="DejaVuSans-32" d="M 1228 531 
L 3431 531 
L 3431 0 
L 469 0 
L 469 531 
Q 828 903 1448 1529 
Q 2069 2156 2228 2338 
Q 2531 2678 2651 2914 
Q 2772 3150 2772 3378 
Q 2772 3750 2511 3984 
Q 2250 4219 1831 4219 
Q 1534 4219 1204 4116 
Q 875 4013 500 3803 
L 500 4441 
Q 881 4594 1212 4672 
Q 1544 4750 1819 4750 
Q 2544 4750 2975 4387 
Q 3406 4025 3406 3419 
Q 3406 3131 3298 2873 
Q 3191 2616 2906 2266 
Q 2828 2175 2409 1742 
Q 1991 1309 1228 531 
z
" transform="scale(0.015625)"/>
       </defs>
       <use xlink:href="#DejaVuSans-32"/>
       <use xlink:href="#DejaVuSans-30" x="63.623047"/>
       <use xlink:href="#DejaVuSans-30" x="127.246094"/>
       <use xlink:href="#DejaVuSans-30" x="190.869141"/>
       <use xlink:href="#DejaVuSans-30" x="254.492188"/>
      </g>
     </g>
    </g>
    <g id="xtick_3">
     <g id="line2d_5">
      <path d="M 696.952888 868.9248 
L 696.952888 117.1584 
" clip-path="url(#p99ac023bad)" style="fill: none; stroke: #b0b0b0; stroke-width: 0.8; stroke-linecap: square"/>
     </g>
     <g id="line2d_6">
      <g>
       <use xlink:href="#mecec93b7da" x="696.952888" y="868.9248" style="stroke: #000000; stroke-width: 0.8"/>
      </g>
     </g>
     <g id="text_3">
      <!-- 40000 -->
      <g transform="translate(665.140388 891.121675) scale(0.2 -0.2)">
       <defs>
        <path id="DejaVuSans-34" d="M 2419 4116 
L 825 1625 
L 2419 1625 
L 2419 4116 
z
M 2253 4666 
L 3047 4666 
L 3047 1625 
L 3713 1625 
L 3713 1100 
L 3047 1100 
L 3047 0 
L 2419 0 
L 2419 1100 
L 313 1100 
L 313 1709 
L 2253 4666 
z
" transform="scale(0.015625)"/>
       </defs>
       <use xlink:href="#DejaVuSans-34"/>
       <use xlink:href="#DejaVuSans-30" x="63.623047"/>
       <use xlink:href="#DejaVuSans-30" x="127.246094"/>
       <use xlink:href="#DejaVuSans-30" x="190.869141"/>
       <use xlink:href="#DejaVuSans-30" x="254.492188"/>
      </g>
     </g>
    </g>
    <g id="xtick_4">
     <g id="line2d_7">
      <path d="M 892.411004 868.9248 
L 892.411004 117.1584 
" clip-path="url(#p99ac023bad)" style="fill: none; stroke: #b0b0b0; stroke-width: 0.8; stroke-linecap: square"/>
     </g>
     <g id="line2d_8">
      <g>
       <use xlink:href="#mecec93b7da" x="892.411004" y="868.9248" style="stroke: #000000; stroke-width: 0.8"/>
      </g>
     </g>
     <g id="text_4">
      <!-- 60000 -->
      <g transform="translate(860.598504 891.121675) scale(0.2 -0.2)">
       <defs>
        <path id="DejaVuSans-36" d="M 2113 2584 
Q 1688 2584 1439 2293 
Q 1191 2003 1191 1497 
Q 1191 994 1439 701 
Q 1688 409 2113 409 
Q 2538 409 2786 701 
Q 3034 994 3034 1497 
Q 3034 2003 2786 2293 
Q 2538 2584 2113 2584 
z
M 3366 4563 
L 3366 3988 
Q 3128 4100 2886 4159 
Q 2644 4219 2406 4219 
Q 1781 4219 1451 3797 
Q 1122 3375 1075 2522 
Q 1259 2794 1537 2939 
Q 1816 3084 2150 3084 
Q 2853 3084 3261 2657 
Q 3669 2231 3669 1497 
Q 3669 778 3244 343 
Q 2819 -91 2113 -91 
Q 1303 -91 875 529 
Q 447 1150 447 2328 
Q 447 3434 972 4092 
Q 1497 4750 2381 4750 
Q 2619 4750 2861 4703 
Q 3103 4656 3366 4563 
z
" transform="scale(0.015625)"/>
       </defs>
       <use xlink:href="#DejaVuSans-36"/>
       <use xlink:href="#DejaVuSans-30" x="63.623047"/>
       <use xlink:href="#DejaVuSans-30" x="127.246094"/>
       <use xlink:href="#DejaVuSans-30" x="190.869141"/>
       <use xlink:href="#DejaVuSans-30" x="254.492188"/>
      </g>
     </g>
    </g>
    <g id="xtick_5">
     <g id="line2d_9">
      <path d="M 1087.869121 868.9248 
L 1087.869121 117.1584 
" clip-path="url(#p99ac023bad)" style="fill: none; stroke: #b0b0b0; stroke-width: 0.8; stroke-linecap: square"/>
     </g>
     <g id="line2d_10">
      <g>
       <use xlink:href="#mecec93b7da" x="1087.869121" y="868.9248" style="stroke: #000000; stroke-width: 0.8"/>
      </g>
     </g>
     <g id="text_5">
      <!-- 80000 -->
      <g transform="translate(1056.056621 891.121675) scale(0.2 -0.2)">
       <defs>
        <path id="DejaVuSans-38" d="M 2034 2216 
Q 1584 2216 1326 1975 
Q 1069 1734 1069 1313 
Q 1069 891 1326 650 
Q 1584 409 2034 409 
Q 2484 409 2743 651 
Q 3003 894 3003 1313 
Q 3003 1734 2745 1975 
Q 2488 2216 2034 2216 
z
M 1403 2484 
Q 997 2584 770 2862 
Q 544 3141 544 3541 
Q 544 4100 942 4425 
Q 1341 4750 2034 4750 
Q 2731 4750 3128 4425 
Q 3525 4100 3525 3541 
Q 3525 3141 3298 2862 
Q 3072 2584 2669 2484 
Q 3125 2378 3379 2068 
Q 3634 1759 3634 1313 
Q 3634 634 3220 271 
Q 2806 -91 2034 -91 
Q 1263 -91 848 271 
Q 434 634 434 1313 
Q 434 1759 690 2068 
Q 947 2378 1403 2484 
z
M 1172 3481 
Q 1172 3119 1398 2916 
Q 1625 2713 2034 2713 
Q 2441 2713 2670 2916 
Q 2900 3119 2900 3481 
Q 2900 3844 2670 4047 
Q 2441 4250 2034 4250 
Q 1625 4250 1398 4047 
Q 1172 3844 1172 3481 
z
" transform="scale(0.015625)"/>
       </defs>
       <use xlink:href="#DejaVuSans-38"/>
       <use xlink:href="#DejaVuSans-30" x="63.623047"/>
       <use xlink:href="#DejaVuSans-30" x="127.246094"/>
       <use xlink:href="#DejaVuSans-30" x="190.869141"/>
       <use xlink:href="#DejaVuSans-30" x="254.492188"/>
      </g>
     </g>
    </g>
    <g id="xtick_6">
     <g id="line2d_11">
      <path d="M 1283.327238 868.9248 
L 1283.327238 117.1584 
" clip-path="url(#p99ac023bad)" style="fill: none; stroke: #b0b0b0; stroke-width: 0.8; stroke-linecap: square"/>
     </g>
     <g id="line2d_12">
      <g>
       <use xlink:href="#mecec93b7da" x="1283.327238" y="868.9248" style="stroke: #000000; stroke-width: 0.8"/>
      </g>
     </g>
     <g id="text_6">
      <!-- 100000 -->
      <g transform="translate(1245.152238 891.121675) scale(0.2 -0.2)">
       <defs>
        <path id="DejaVuSans-31" d="M 794 531 
L 1825 531 
L 1825 4091 
L 703 3866 
L 703 4441 
L 1819 4666 
L 2450 4666 
L 2450 531 
L 3481 531 
L 3481 0 
L 794 0 
L 794 531 
z
" transform="scale(0.015625)"/>
       </defs>
       <use xlink:href="#DejaVuSans-31"/>
       <use xlink:href="#DejaVuSans-30" x="63.623047"/>
       <use xlink:href="#DejaVuSans-30" x="127.246094"/>
       <use xlink:href="#DejaVuSans-30" x="190.869141"/>
       <use xlink:href="#DejaVuSans-30" x="254.492188"/>
       <use xlink:href="#DejaVuSans-30" x="318.115234"/>
      </g>
     </g>
    </g>
    <g id="text_7">
     <!-- Number of Training Examples Seen -->
     <g transform="translate(656.9015 914.477925) scale(0.2 -0.2)">
      <defs>
       <path id="DejaVuSans-4e" d="M 628 4666 
L 1478 4666 
L 3547 763 
L 3547 4666 
L 4159 4666 
L 4159 0 
L 3309 0 
L 1241 3903 
L 1241 0 
L 628 0 
L 628 4666 
z
" transform="scale(0.015625)"/>
       <path id="DejaVuSans-75" d="M 544 1381 
L 544 3500 
L 1119 3500 
L 1119 1403 
Q 1119 906 1312 657 
Q 1506 409 1894 409 
Q 2359 409 2629 706 
Q 2900 1003 2900 1516 
L 2900 3500 
L 3475 3500 
L 3475 0 
L 2900 0 
L 2900 538 
Q 2691 219 2414 64 
Q 2138 -91 1772 -91 
Q 1169 -91 856 284 
Q 544 659 544 1381 
z
M 1991 3584 
L 1991 3584 
z
" transform="scale(0.015625)"/>
       <path id="DejaVuSans-6d" d="M 3328 2828 
Q 3544 3216 3844 3400 
Q 4144 3584 4550 3584 
Q 5097 3584 5394 3201 
Q 5691 2819 5691 2113 
L 5691 0 
L 5113 0 
L 5113 2094 
Q 5113 2597 4934 2840 
Q 4756 3084 4391 3084 
Q 3944 3084 3684 2787 
Q 3425 2491 3425 1978 
L 3425 0 
L 2847 0 
L 2847 2094 
Q 2847 2600 2669 2842 
Q 2491 3084 2119 3084 
Q 1678 3084 1418 2786 
Q 1159 2488 1159 1978 
L 1159 0 
L 581 0 
L 581 3500 
L 1159 3500 
L 1159 2956 
Q 1356 3278 1631 3431 
Q 1906 3584 2284 3584 
Q 2666 3584 2933 3390 
Q 3200 3197 3328 2828 
z
" transform="scale(0.015625)"/>
       <path id="DejaVuSans-62" d="M 3116 1747 
Q 3116 2381 2855 2742 
Q 2594 3103 2138 3103 
Q 1681 3103 1420 2742 
Q 1159 2381 1159 1747 
Q 1159 1113 1420 752 
Q 1681 391 2138 391 
Q 2594 391 2855 752 
Q 3116 1113 3116 1747 
z
M 1159 2969 
Q 1341 3281 1617 3432 
Q 1894 3584 2278 3584 
Q 2916 3584 3314 3078 
Q 3713 2572 3713 1747 
Q 3713 922 3314 415 
Q 2916 -91 2278 -91 
Q 1894 -91 1617 61 
Q 1341 213 1159 525 
L 1159 0 
L 581 0 
L 581 4863 
L 1159 4863 
L 1159 2969 
z
" transform="scale(0.015625)"/>
       <path id="DejaVuSans-65" d="M 3597 1894 
L 3597 1613 
L 953 1613 
Q 991 1019 1311 708 
Q 1631 397 2203 397 
Q 2534 397 2845 478 
Q 3156 559 3463 722 
L 3463 178 
Q 3153 47 2828 -22 
Q 2503 -91 2169 -91 
Q 1331 -91 842 396 
Q 353 884 353 1716 
Q 353 2575 817 3079 
Q 1281 3584 2069 3584 
Q 2775 3584 3186 3129 
Q 3597 2675 3597 1894 
z
M 3022 2063 
Q 3016 2534 2758 2815 
Q 2500 3097 2075 3097 
Q 1594 3097 1305 2825 
Q 1016 2553 972 2059 
L 3022 2063 
z
" transform="scale(0.015625)"/>
       <path id="DejaVuSans-72" d="M 2631 2963 
Q 2534 3019 2420 3045 
Q 2306 3072 2169 3072 
Q 1681 3072 1420 2755 
Q 1159 2438 1159 1844 
L 1159 0 
L 581 0 
L 581 3500 
L 1159 3500 
L 1159 2956 
Q 1341 3275 1631 3429 
Q 1922 3584 2338 3584 
Q 2397 3584 2469 3576 
Q 2541 3569 2628 3553 
L 2631 2963 
z
" transform="scale(0.015625)"/>
       <path id="DejaVuSans-20" transform="scale(0.015625)"/>
       <path id="DejaVuSans-6f" d="M 1959 3097 
Q 1497 3097 1228 2736 
Q 959 2375 959 1747 
Q 959 1119 1226 758 
Q 1494 397 1959 397 
Q 2419 397 2687 759 
Q 2956 1122 2956 1747 
Q 2956 2369 2687 2733 
Q 2419 3097 1959 3097 
z
M 1959 3584 
Q 2709 3584 3137 3096 
Q 3566 2609 3566 1747 
Q 3566 888 3137 398 
Q 2709 -91 1959 -91 
Q 1206 -91 779 398 
Q 353 888 353 1747 
Q 353 2609 779 3096 
Q 1206 3584 1959 3584 
z
" transform="scale(0.015625)"/>
       <path id="DejaVuSans-66" d="M 2375 4863 
L 2375 4384 
L 1825 4384 
Q 1516 4384 1395 4259 
Q 1275 4134 1275 3809 
L 1275 3500 
L 2222 3500 
L 2222 3053 
L 1275 3053 
L 1275 0 
L 697 0 
L 697 3053 
L 147 3053 
L 147 3500 
L 697 3500 
L 697 3744 
Q 697 4328 969 4595 
Q 1241 4863 1831 4863 
L 2375 4863 
z
" transform="scale(0.015625)"/>
       <path id="DejaVuSans-54" d="M -19 4666 
L 3928 4666 
L 3928 4134 
L 2272 4134 
L 2272 0 
L 1638 0 
L 1638 4134 
L -19 4134 
L -19 4666 
z
" transform="scale(0.015625)"/>
       <path id="DejaVuSans-61" d="M 2194 1759 
Q 1497 1759 1228 1600 
Q 959 1441 959 1056 
Q 959 750 1161 570 
Q 1363 391 1709 391 
Q 2188 391 2477 730 
Q 2766 1069 2766 1631 
L 2766 1759 
L 2194 1759 
z
M 3341 1997 
L 3341 0 
L 2766 0 
L 2766 531 
Q 2569 213 2275 61 
Q 1981 -91 1556 -91 
Q 1019 -91 701 211 
Q 384 513 384 1019 
Q 384 1609 779 1909 
Q 1175 2209 1959 2209 
L 2766 2209 
L 2766 2266 
Q 2766 2663 2505 2880 
Q 2244 3097 1772 3097 
Q 1472 3097 1187 3025 
Q 903 2953 641 2809 
L 641 3341 
Q 956 3463 1253 3523 
Q 1550 3584 1831 3584 
Q 2591 3584 2966 3190 
Q 3341 2797 3341 1997 
z
" transform="scale(0.015625)"/>
       <path id="DejaVuSans-69" d="M 603 3500 
L 1178 3500 
L 1178 0 
L 603 0 
L 603 3500 
z
M 603 4863 
L 1178 4863 
L 1178 4134 
L 603 4134 
L 603 4863 
z
" transform="scale(0.015625)"/>
       <path id="DejaVuSans-6e" d="M 3513 2113 
L 3513 0 
L 2938 0 
L 2938 2094 
Q 2938 2591 2744 2837 
Q 2550 3084 2163 3084 
Q 1697 3084 1428 2787 
Q 1159 2491 1159 1978 
L 1159 0 
L 581 0 
L 581 3500 
L 1159 3500 
L 1159 2956 
Q 1366 3272 1645 3428 
Q 1925 3584 2291 3584 
Q 2894 3584 3203 3211 
Q 3513 2838 3513 2113 
z
" transform="scale(0.015625)"/>
       <path id="DejaVuSans-67" d="M 2906 1791 
Q 2906 2416 2648 2759 
Q 2391 3103 1925 3103 
Q 1463 3103 1205 2759 
Q 947 2416 947 1791 
Q 947 1169 1205 825 
Q 1463 481 1925 481 
Q 2391 481 2648 825 
Q 2906 1169 2906 1791 
z
M 3481 434 
Q 3481 -459 3084 -895 
Q 2688 -1331 1869 -1331 
Q 1566 -1331 1297 -1286 
Q 1028 -1241 775 -1147 
L 775 -588 
Q 1028 -725 1275 -790 
Q 1522 -856 1778 -856 
Q 2344 -856 2625 -561 
Q 2906 -266 2906 331 
L 2906 616 
Q 2728 306 2450 153 
Q 2172 0 1784 0 
Q 1141 0 747 490 
Q 353 981 353 1791 
Q 353 2603 747 3093 
Q 1141 3584 1784 3584 
Q 2172 3584 2450 3431 
Q 2728 3278 2906 2969 
L 2906 3500 
L 3481 3500 
L 3481 434 
z
" transform="scale(0.015625)"/>
       <path id="DejaVuSans-45" d="M 628 4666 
L 3578 4666 
L 3578 4134 
L 1259 4134 
L 1259 2753 
L 3481 2753 
L 3481 2222 
L 1259 2222 
L 1259 531 
L 3634 531 
L 3634 0 
L 628 0 
L 628 4666 
z
" transform="scale(0.015625)"/>
       <path id="DejaVuSans-78" d="M 3513 3500 
L 2247 1797 
L 3578 0 
L 2900 0 
L 1881 1375 
L 863 0 
L 184 0 
L 1544 1831 
L 300 3500 
L 978 3500 
L 1906 2253 
L 2834 3500 
L 3513 3500 
z
" transform="scale(0.015625)"/>
       <path id="DejaVuSans-70" d="M 1159 525 
L 1159 -1331 
L 581 -1331 
L 581 3500 
L 1159 3500 
L 1159 2969 
Q 1341 3281 1617 3432 
Q 1894 3584 2278 3584 
Q 2916 3584 3314 3078 
Q 3713 2572 3713 1747 
Q 3713 922 3314 415 
Q 2916 -91 2278 -91 
Q 1894 -91 1617 61 
Q 1341 213 1159 525 
z
M 3116 1747 
Q 3116 2381 2855 2742 
Q 2594 3103 2138 3103 
Q 1681 3103 1420 2742 
Q 1159 2381 1159 1747 
Q 1159 1113 1420 752 
Q 1681 391 2138 391 
Q 2594 391 2855 752 
Q 3116 1113 3116 1747 
z
" transform="scale(0.015625)"/>
       <path id="DejaVuSans-6c" d="M 603 4863 
L 1178 4863 
L 1178 0 
L 603 0 
L 603 4863 
z
" transform="scale(0.015625)"/>
       <path id="DejaVuSans-73" d="M 2834 3397 
L 2834 2853 
Q 2591 2978 2328 3040 
Q 2066 3103 1784 3103 
Q 1356 3103 1142 2972 
Q 928 2841 928 2578 
Q 928 2378 1081 2264 
Q 1234 2150 1697 2047 
L 1894 2003 
Q 2506 1872 2764 1633 
Q 3022 1394 3022 966 
Q 3022 478 2636 193 
Q 2250 -91 1575 -91 
Q 1294 -91 989 -36 
Q 684 19 347 128 
L 347 722 
Q 666 556 975 473 
Q 1284 391 1588 391 
Q 1994 391 2212 530 
Q 2431 669 2431 922 
Q 2431 1156 2273 1281 
Q 2116 1406 1581 1522 
L 1381 1569 
Q 847 1681 609 1914 
Q 372 2147 372 2553 
Q 372 3047 722 3315 
Q 1072 3584 1716 3584 
Q 2034 3584 2315 3537 
Q 2597 3491 2834 3397 
z
" transform="scale(0.015625)"/>
       <path id="DejaVuSans-53" d="M 3425 4513 
L 3425 3897 
Q 3066 4069 2747 4153 
Q 2428 4238 2131 4238 
Q 1616 4238 1336 4038 
Q 1056 3838 1056 3469 
Q 1056 3159 1242 3001 
Q 1428 2844 1947 2747 
L 2328 2669 
Q 3034 2534 3370 2195 
Q 3706 1856 3706 1288 
Q 3706 609 3251 259 
Q 2797 -91 1919 -91 
Q 1588 -91 1214 -16 
Q 841 59 441 206 
L 441 856 
Q 825 641 1194 531 
Q 1563 422 1919 422 
Q 2459 422 2753 634 
Q 3047 847 3047 1241 
Q 3047 1584 2836 1778 
Q 2625 1972 2144 2069 
L 1759 2144 
Q 1053 2284 737 2584 
Q 422 2884 422 3419 
Q 422 4038 858 4394 
Q 1294 4750 2059 4750 
Q 2388 4750 2728 4690 
Q 3069 4631 3425 4513 
z
" transform="scale(0.015625)"/>
      </defs>
      <use xlink:href="#DejaVuSans-4e"/>
      <use xlink:href="#DejaVuSans-75" x="74.804688"/>
      <use xlink:href="#DejaVuSans-6d" x="138.183594"/>
      <use xlink:href="#DejaVuSans-62" x="235.595703"/>
      <use xlink:href="#DejaVuSans-65" x="299.072266"/>
      <use xlink:href="#DejaVuSans-72" x="360.595703"/>
      <use xlink:href="#DejaVuSans-20" x="401.708984"/>
      <use xlink:href="#DejaVuSans-6f" x="433.496094"/>
      <use xlink:href="#DejaVuSans-66" x="494.677734"/>
      <use xlink:href="#DejaVuSans-20" x="529.882812"/>
      <use xlink:href="#DejaVuSans-54" x="561.669922"/>
      <use xlink:href="#DejaVuSans-72" x="608.003906"/>
      <use xlink:href="#DejaVuSans-61" x="649.117188"/>
      <use xlink:href="#DejaVuSans-69" x="710.396484"/>
      <use xlink:href="#DejaVuSans-6e" x="738.179688"/>
      <use xlink:href="#DejaVuSans-69" x="801.558594"/>
      <use xlink:href="#DejaVuSans-6e" x="829.341797"/>
      <use xlink:href="#DejaVuSans-67" x="892.720703"/>
      <use xlink:href="#DejaVuSans-20" x="956.197266"/>
      <use xlink:href="#DejaVuSans-45" x="987.984375"/>
      <use xlink:href="#DejaVuSans-78" x="1051.167969"/>
      <use xlink:href="#DejaVuSans-61" x="1110.347656"/>
      <use xlink:href="#DejaVuSans-6d" x="1171.626953"/>
      <use xlink:href="#DejaVuSans-70" x="1269.039062"/>
      <use xlink:href="#DejaVuSans-6c" x="1332.515625"/>
      <use xlink:href="#DejaVuSans-65" x="1360.298828"/>
      <use xlink:href="#DejaVuSans-73" x="1421.822266"/>
      <use xlink:href="#DejaVuSans-20" x="1473.921875"/>
      <use xlink:href="#DejaVuSans-53" x="1505.708984"/>
      <use xlink:href="#DejaVuSans-65" x="1569.185547"/>
      <use xlink:href="#DejaVuSans-65" x="1630.708984"/>
      <use xlink:href="#DejaVuSans-6e" x="1692.232422"/>
     </g>
    </g>
   </g>
   <g id="matplotlib.axis_2">
    <g id="ytick_1">
     <g id="line2d_13">
      <path d="M 203.04 868.9248 
L 1461.888 868.9248 
" clip-path="url(#p99ac023bad)" style="fill: none; stroke: #b0b0b0; stroke-width: 0.8; stroke-linecap: square"/>
     </g>
     <g id="line2d_14">
      <defs>
       <path id="m565b2116cd" d="M 0 0 
L -3.5 0 
" style="stroke: #000000; stroke-width: 0.8"/>
      </defs>
      <g>
       <use xlink:href="#m565b2116cd" x="203.04" y="868.9248" style="stroke: #000000; stroke-width: 0.8"/>
      </g>
     </g>
     <g id="text_8">
      <!-- 0.00 -->
      <g transform="translate(151.50875 876.523238) scale(0.2 -0.2)">
       <defs>
        <path id="DejaVuSans-2e" d="M 684 794 
L 1344 794 
L 1344 0 
L 684 0 
L 684 794 
z
" transform="scale(0.015625)"/>
       </defs>
       <use xlink:href="#DejaVuSans-30"/>
       <use xlink:href="#DejaVuSans-2e" x="63.623047"/>
       <use xlink:href="#DejaVuSans-30" x="95.410156"/>
       <use xlink:href="#DejaVuSans-30" x="159.033203"/>
      </g>
     </g>
    </g>
    <g id="ytick_2">
     <g id="line2d_15">
      <path d="M 203.04 774.954 
L 1461.888 774.954 
" clip-path="url(#p99ac023bad)" style="fill: none; stroke: #b0b0b0; stroke-width: 0.8; stroke-linecap: square"/>
     </g>
     <g id="line2d_16">
      <g>
       <use xlink:href="#m565b2116cd" x="203.04" y="774.954" style="stroke: #000000; stroke-width: 0.8"/>
      </g>
     </g>
     <g id="text_9">
      <!-- 0.25 -->
      <g transform="translate(151.50875 782.552437) scale(0.2 -0.2)">
       <defs>
        <path id="DejaVuSans-35" d="M 691 4666 
L 3169 4666 
L 3169 4134 
L 1269 4134 
L 1269 2991 
Q 1406 3038 1543 3061 
Q 1681 3084 1819 3084 
Q 2600 3084 3056 2656 
Q 3513 2228 3513 1497 
Q 3513 744 3044 326 
Q 2575 -91 1722 -91 
Q 1428 -91 1123 -41 
Q 819 9 494 109 
L 494 744 
Q 775 591 1075 516 
Q 1375 441 1709 441 
Q 2250 441 2565 725 
Q 2881 1009 2881 1497 
Q 2881 1984 2565 2268 
Q 2250 2553 1709 2553 
Q 1456 2553 1204 2497 
Q 953 2441 691 2322 
L 691 4666 
z
" transform="scale(0.015625)"/>
       </defs>
       <use xlink:href="#DejaVuSans-30"/>
       <use xlink:href="#DejaVuSans-2e" x="63.623047"/>
       <use xlink:href="#DejaVuSans-32" x="95.410156"/>
       <use xlink:href="#DejaVuSans-35" x="159.033203"/>
      </g>
     </g>
    </g>
    <g id="ytick_3">
     <g id="line2d_17">
      <path d="M 203.04 680.9832 
L 1461.888 680.9832 
" clip-path="url(#p99ac023bad)" style="fill: none; stroke: #b0b0b0; stroke-width: 0.8; stroke-linecap: square"/>
     </g>
     <g id="line2d_18">
      <g>
       <use xlink:href="#m565b2116cd" x="203.04" y="680.9832" style="stroke: #000000; stroke-width: 0.8"/>
      </g>
     </g>
     <g id="text_10">
      <!-- 0.50 -->
      <g transform="translate(151.50875 688.581638) scale(0.2 -0.2)">
       <use xlink:href="#DejaVuSans-30"/>
       <use xlink:href="#DejaVuSans-2e" x="63.623047"/>
       <use xlink:href="#DejaVuSans-35" x="95.410156"/>
       <use xlink:href="#DejaVuSans-30" x="159.033203"/>
      </g>
     </g>
    </g>
    <g id="ytick_4">
     <g id="line2d_19">
      <path d="M 203.04 587.0124 
L 1461.888 587.0124 
" clip-path="url(#p99ac023bad)" style="fill: none; stroke: #b0b0b0; stroke-width: 0.8; stroke-linecap: square"/>
     </g>
     <g id="line2d_20">
      <g>
       <use xlink:href="#m565b2116cd" x="203.04" y="587.0124" style="stroke: #000000; stroke-width: 0.8"/>
      </g>
     </g>
     <g id="text_11">
      <!-- 0.75 -->
      <g transform="translate(151.50875 594.610838) scale(0.2 -0.2)">
       <defs>
        <path id="DejaVuSans-37" d="M 525 4666 
L 3525 4666 
L 3525 4397 
L 1831 0 
L 1172 0 
L 2766 4134 
L 525 4134 
L 525 4666 
z
" transform="scale(0.015625)"/>
       </defs>
       <use xlink:href="#DejaVuSans-30"/>
       <use xlink:href="#DejaVuSans-2e" x="63.623047"/>
       <use xlink:href="#DejaVuSans-37" x="95.410156"/>
       <use xlink:href="#DejaVuSans-35" x="159.033203"/>
      </g>
     </g>
    </g>
    <g id="ytick_5">
     <g id="line2d_21">
      <path d="M 203.04 493.0416 
L 1461.888 493.0416 
" clip-path="url(#p99ac023bad)" style="fill: none; stroke: #b0b0b0; stroke-width: 0.8; stroke-linecap: square"/>
     </g>
     <g id="line2d_22">
      <g>
       <use xlink:href="#m565b2116cd" x="203.04" y="493.0416" style="stroke: #000000; stroke-width: 0.8"/>
      </g>
     </g>
     <g id="text_12">
      <!-- 1.00 -->
      <g transform="translate(151.50875 500.640038) scale(0.2 -0.2)">
       <use xlink:href="#DejaVuSans-31"/>
       <use xlink:href="#DejaVuSans-2e" x="63.623047"/>
       <use xlink:href="#DejaVuSans-30" x="95.410156"/>
       <use xlink:href="#DejaVuSans-30" x="159.033203"/>
      </g>
     </g>
    </g>
    <g id="ytick_6">
     <g id="line2d_23">
      <path d="M 203.04 399.0708 
L 1461.888 399.0708 
" clip-path="url(#p99ac023bad)" style="fill: none; stroke: #b0b0b0; stroke-width: 0.8; stroke-linecap: square"/>
     </g>
     <g id="line2d_24">
      <g>
       <use xlink:href="#m565b2116cd" x="203.04" y="399.0708" style="stroke: #000000; stroke-width: 0.8"/>
      </g>
     </g>
     <g id="text_13">
      <!-- 1.25 -->
      <g transform="translate(151.50875 406.669238) scale(0.2 -0.2)">
       <use xlink:href="#DejaVuSans-31"/>
       <use xlink:href="#DejaVuSans-2e" x="63.623047"/>
       <use xlink:href="#DejaVuSans-32" x="95.410156"/>
       <use xlink:href="#DejaVuSans-35" x="159.033203"/>
      </g>
     </g>
    </g>
    <g id="ytick_7">
     <g id="line2d_25">
      <path d="M 203.04 305.1 
L 1461.888 305.1 
" clip-path="url(#p99ac023bad)" style="fill: none; stroke: #b0b0b0; stroke-width: 0.8; stroke-linecap: square"/>
     </g>
     <g id="line2d_26">
      <g>
       <use xlink:href="#m565b2116cd" x="203.04" y="305.1" style="stroke: #000000; stroke-width: 0.8"/>
      </g>
     </g>
     <g id="text_14">
      <!-- 1.50 -->
      <g transform="translate(151.50875 312.698438) scale(0.2 -0.2)">
       <use xlink:href="#DejaVuSans-31"/>
       <use xlink:href="#DejaVuSans-2e" x="63.623047"/>
       <use xlink:href="#DejaVuSans-35" x="95.410156"/>
       <use xlink:href="#DejaVuSans-30" x="159.033203"/>
      </g>
     </g>
    </g>
    <g id="ytick_8">
     <g id="line2d_27">
      <path d="M 203.04 211.1292 
L 1461.888 211.1292 
" clip-path="url(#p99ac023bad)" style="fill: none; stroke: #b0b0b0; stroke-width: 0.8; stroke-linecap: square"/>
     </g>
     <g id="line2d_28">
      <g>
       <use xlink:href="#m565b2116cd" x="203.04" y="211.1292" style="stroke: #000000; stroke-width: 0.8"/>
      </g>
     </g>
     <g id="text_15">
      <!-- 1.75 -->
      <g transform="translate(151.50875 218.727638) scale(0.2 -0.2)">
       <use xlink:href="#DejaVuSans-31"/>
       <use xlink:href="#DejaVuSans-2e" x="63.623047"/>
       <use xlink:href="#DejaVuSans-37" x="95.410156"/>
       <use xlink:href="#DejaVuSans-35" x="159.033203"/>
      </g>
     </g>
    </g>
    <g id="ytick_9">
     <g id="line2d_29">
      <path d="M 203.04 117.1584 
L 1461.888 117.1584 
" clip-path="url(#p99ac023bad)" style="fill: none; stroke: #b0b0b0; stroke-width: 0.8; stroke-linecap: square"/>
     </g>
     <g id="line2d_30">
      <g>
       <use xlink:href="#m565b2116cd" x="203.04" y="117.1584" style="stroke: #000000; stroke-width: 0.8"/>
      </g>
     </g>
     <g id="text_16">
      <!-- 2.00 -->
      <g transform="translate(151.50875 124.756838) scale(0.2 -0.2)">
       <use xlink:href="#DejaVuSans-32"/>
       <use xlink:href="#DejaVuSans-2e" x="63.623047"/>
       <use xlink:href="#DejaVuSans-30" x="95.410156"/>
       <use xlink:href="#DejaVuSans-30" x="159.033203"/>
      </g>
     </g>
    </g>
    <g id="text_17">
     <!-- Cross Entropy Loss -->
     <g transform="translate(143.349375 587.586913) rotate(-90) scale(0.2 -0.2)">
      <defs>
       <path id="DejaVuSans-43" d="M 4122 4306 
L 4122 3641 
Q 3803 3938 3442 4084 
Q 3081 4231 2675 4231 
Q 1875 4231 1450 3742 
Q 1025 3253 1025 2328 
Q 1025 1406 1450 917 
Q 1875 428 2675 428 
Q 3081 428 3442 575 
Q 3803 722 4122 1019 
L 4122 359 
Q 3791 134 3420 21 
Q 3050 -91 2638 -91 
Q 1578 -91 968 557 
Q 359 1206 359 2328 
Q 359 3453 968 4101 
Q 1578 4750 2638 4750 
Q 3056 4750 3426 4639 
Q 3797 4528 4122 4306 
z
" transform="scale(0.015625)"/>
       <path id="DejaVuSans-74" d="M 1172 4494 
L 1172 3500 
L 2356 3500 
L 2356 3053 
L 1172 3053 
L 1172 1153 
Q 1172 725 1289 603 
Q 1406 481 1766 481 
L 2356 481 
L 2356 0 
L 1766 0 
Q 1100 0 847 248 
Q 594 497 594 1153 
L 594 3053 
L 172 3053 
L 172 3500 
L 594 3500 
L 594 4494 
L 1172 4494 
z
" transform="scale(0.015625)"/>
       <path id="DejaVuSans-79" d="M 2059 -325 
Q 1816 -950 1584 -1140 
Q 1353 -1331 966 -1331 
L 506 -1331 
L 506 -850 
L 844 -850 
Q 1081 -850 1212 -737 
Q 1344 -625 1503 -206 
L 1606 56 
L 191 3500 
L 800 3500 
L 1894 763 
L 2988 3500 
L 3597 3500 
L 2059 -325 
z
" transform="scale(0.015625)"/>
       <path id="DejaVuSans-4c" d="M 628 4666 
L 1259 4666 
L 1259 531 
L 3531 531 
L 3531 0 
L 628 0 
L 628 4666 
z
" transform="scale(0.015625)"/>
      </defs>
      <use xlink:href="#DejaVuSans-43"/>
      <use xlink:href="#DejaVuSans-72" x="69.824219"/>
      <use xlink:href="#DejaVuSans-6f" x="108.6875"/>
      <use xlink:href="#DejaVuSans-73" x="169.869141"/>
      <use xlink:href="#DejaVuSans-73" x="221.96875"/>
      <use xlink:href="#DejaVuSans-20" x="274.068359"/>
      <use xlink:href="#DejaVuSans-45" x="305.855469"/>
      <use xlink:href="#DejaVuSans-6e" x="369.039062"/>
      <use xlink:href="#DejaVuSans-74" x="432.417969"/>
      <use xlink:href="#DejaVuSans-72" x="471.626953"/>
      <use xlink:href="#DejaVuSans-6f" x="510.490234"/>
      <use xlink:href="#DejaVuSans-70" x="571.671875"/>
      <use xlink:href="#DejaVuSans-79" x="635.148438"/>
      <use xlink:href="#DejaVuSans-20" x="694.328125"/>
      <use xlink:href="#DejaVuSans-4c" x="726.115234"/>
      <use xlink:href="#DejaVuSans-6f" x="780.078125"/>
      <use xlink:href="#DejaVuSans-73" x="841.259766"/>
      <use xlink:href="#DejaVuSans-73" x="893.359375"/>
     </g>
    </g>
   </g>
   <g id="line2d_31">
    <path d="M 260.260364 450.797685 
L 260.88583 427.430494 
L 261.511296 422.29048 
L 262.136762 448.676886 
L 262.762228 448.604833 
L 263.387694 434.716086 
L 264.013159 478.253586 
L 264.638625 462.758041 
L 265.264091 471.697973 
L 265.889557 380.839322 
L 267.140489 433.877266 
L 267.765955 478.482783 
L 268.391421 469.147145 
L 269.016887 479.843715 
L 269.642353 465.98611 
L 270.267819 431.13022 
L 270.893285 513.050284 
L 271.518751 473.741208 
L 272.144217 478.829647 
L 272.769683 425.13037 
L 273.395149 496.912518 
L 274.020615 485.524795 
L 274.646081 488.281788 
L 275.271547 498.001819 
L 275.897013 494.94185 
L 276.522479 499.80573 
L 277.147945 503.753203 
L 277.773411 503.488473 
L 278.398877 473.823119 
L 279.024343 507.043086 
L 279.649809 507.749205 
L 280.275275 450.077563 
L 280.900741 498.946746 
L 281.526207 471.431361 
L 282.151673 515.77031 
L 282.777139 522.326707 
L 283.402605 521.442563 
L 284.028071 524.990611 
L 284.653537 511.147614 
L 285.279003 486.728448 
L 285.904469 520.817234 
L 286.529935 499.738136 
L 287.1554 515.956894 
L 287.780866 561.984484 
L 288.406332 530.561954 
L 289.031798 546.919395 
L 289.657264 522.535763 
L 290.28273 482.827396 
L 290.908196 527.337157 
L 291.533662 540.621948 
L 292.159128 538.867394 
L 292.784594 573.720864 
L 293.41006 543.304986 
L 294.035526 534.701747 
L 294.660992 508.024622 
L 295.911924 550.461416 
L 296.53739 525.499146 
L 297.162856 521.981769 
L 297.788322 539.944888 
L 298.413788 456.515911 
L 299.039254 563.737403 
L 299.66472 536.954552 
L 300.290186 555.651392 
L 300.915652 549.671527 
L 301.541118 494.861195 
L 302.166584 535.904414 
L 302.79205 564.834927 
L 303.417516 556.936844 
L 304.042982 562.502944 
L 304.668448 551.604018 
L 305.293914 531.018533 
L 305.91938 455.909424 
L 306.036655 525.739769 
L 306.662121 546.262118 
L 307.287586 517.214811 
L 307.913052 549.195389 
L 308.538518 601.865678 
L 309.163984 514.117337 
L 309.78945 601.448262 
L 310.414916 573.537507 
L 311.040382 571.02537 
L 311.665848 605.393584 
L 312.291314 492.936882 
L 312.91678 476.761768 
L 314.167712 527.996809 
L 314.793178 612.807061 
L 315.418644 563.790412 
L 316.04411 596.958222 
L 316.669576 547.016361 
L 317.295042 539.809879 
L 317.920508 564.343061 
L 318.545974 564.297177 
L 319.17144 580.787745 
L 319.796906 551.092302 
L 320.422372 559.323605 
L 321.047838 594.880775 
L 321.673304 563.66786 
L 322.29877 567.113498 
L 322.924236 474.631828 
L 323.549702 531.584378 
L 324.175168 561.124425 
L 324.800634 605.761733 
L 325.4261 549.262759 
L 326.051566 538.056221 
L 326.677032 541.284917 
L 327.927964 567.367765 
L 328.55343 562.01603 
L 329.178896 566.707329 
L 329.804362 569.596329 
L 330.429827 584.612061 
L 331.055293 542.932177 
L 331.680759 541.172447 
L 332.306225 575.833867 
L 332.931691 534.722896 
L 333.557157 576.098463 
L 334.182623 573.847113 
L 334.808089 566.534277 
L 335.433555 562.119986 
L 336.059021 603.543968 
L 336.684487 581.950645 
L 337.309953 555.705185 
L 337.935419 537.539777 
L 338.560885 581.292135 
L 339.186351 521.140238 
L 339.811817 568.331198 
L 340.437283 573.66864 
L 341.062749 617.758766 
L 341.688215 553.605984 
L 342.313681 557.661357 
L 342.939147 465.822199 
L 343.564613 566.007662 
L 344.190079 614.464649 
L 344.815545 537.193002 
L 345.441011 509.098934 
L 346.066477 582.167093 
L 346.691943 615.495273 
L 347.317409 605.608196 
L 347.942875 575.865479 
L 348.568341 627.903113 
L 349.193807 565.969552 
L 349.819273 608.671592 
L 350.444739 591.344825 
L 351.070205 589.09966 
L 351.695671 680.725191 
L 351.812945 628.973258 
L 352.438411 576.913355 
L 353.063877 578.009332 
L 353.689343 573.315726 
L 354.314809 609.331626 
L 354.940275 603.534133 
L 355.565741 573.670029 
L 356.191207 590.032892 
L 356.816673 581.075283 
L 357.442139 596.273521 
L 358.067605 588.282841 
L 358.693071 567.401663 
L 359.318537 591.891 
L 359.944003 579.50832 
L 360.569469 679.996152 
L 361.194935 553.345376 
L 361.820401 584.454155 
L 362.445867 589.474015 
L 363.071333 593.20943 
L 363.696799 610.612551 
L 364.322265 603.915321 
L 364.947731 606.193555 
L 365.573197 551.803865 
L 366.198663 629.728779 
L 366.824129 584.876724 
L 367.449595 604.068343 
L 368.075061 570.122339 
L 368.700527 640.984518 
L 369.325993 528.821671 
L 369.951459 565.48732 
L 370.576925 644.798976 
L 371.202391 560.506176 
L 371.827857 611.385144 
L 372.453323 696.827738 
L 373.078789 619.611765 
L 373.704255 629.282708 
L 374.32972 605.841358 
L 374.955186 561.49822 
L 375.580652 588.113777 
L 376.206118 591.698837 
L 376.831584 617.423081 
L 377.45705 595.867195 
L 378.082516 590.641888 
L 378.707982 586.707678 
L 379.333448 645.266444 
L 379.958914 590.022339 
L 380.58438 588.669025 
L 381.209846 643.346903 
L 381.835312 566.066026 
L 382.460778 581.689544 
L 383.086244 636.10966 
L 383.71171 622.769798 
L 384.337176 612.498441 
L 384.962642 568.572628 
L 385.588108 619.813338 
L 386.213574 628.829489 
L 386.83904 602.958676 
L 387.464506 587.119784 
L 388.089972 615.684299 
L 388.715438 654.723446 
L 389.340904 567.174393 
L 389.96637 613.332197 
L 390.591836 624.205986 
L 391.217302 626.877843 
L 391.842768 632.9264 
L 392.468234 577.277628 
L 393.0937 647.056218 
L 393.719166 573.798787 
L 394.344632 641.246918 
L 394.970098 599.437334 
L 395.595564 623.377113 
L 396.22103 584.768578 
L 396.846496 706.856086 
L 397.471961 299.165347 
L 397.589236 544.818514 
L 398.214702 571.647383 
L 398.840168 664.739551 
L 399.465634 592.977657 
L 400.0911 586.273996 
L 400.716566 584.004925 
L 401.342032 601.339758 
L 401.967498 568.329608 
L 402.592964 575.124387 
L 403.21843 606.429877 
L 403.843896 619.087032 
L 404.469362 643.499679 
L 405.094828 609.932959 
L 405.720294 641.586927 
L 406.34576 612.551382 
L 406.971226 617.435695 
L 407.596692 614.887779 
L 408.222158 591.655664 
L 408.847624 648.092734 
L 409.47309 642.550808 
L 410.098556 655.574186 
L 410.724022 548.8455 
L 411.349488 642.118471 
L 411.974954 652.260555 
L 412.60042 566.298404 
L 413.225886 584.138321 
L 413.851352 596.528618 
L 414.476818 600.047316 
L 415.102284 622.700725 
L 415.72775 636.366548 
L 416.353216 610.068349 
L 416.978682 599.693551 
L 417.604148 606.113168 
L 418.229613 620.987484 
L 418.855079 612.840892 
L 419.480545 611.563349 
L 420.106011 629.372146 
L 420.731477 611.43952 
L 421.356943 589.157037 
L 421.982409 609.89113 
L 422.607875 582.455886 
L 423.233341 578.067808 
L 423.858807 585.997862 
L 424.484273 574.346552 
L 425.109739 642.821319 
L 425.735205 641.934217 
L 426.360671 632.634762 
L 426.986137 648.175586 
L 427.611603 610.79331 
L 428.237069 632.992896 
L 428.862535 559.268289 
L 429.488001 645.948232 
L 430.113467 635.290735 
L 430.738933 596.1671 
L 431.364399 600.152661 
L 431.989865 645.107686 
L 432.615331 602.467258 
L 433.240797 519.133029 
L 433.866263 657.299279 
L 434.491729 652.455383 
L 435.117195 566.214029 
L 435.742661 652.864263 
L 436.993593 638.171423 
L 437.619059 580.383346 
L 438.244525 641.754243 
L 438.869991 577.807603 
L 439.495457 691.095363 
L 440.120923 641.134448 
L 440.746389 618.329473 
L 441.371854 619.176336 
L 441.99732 653.121824 
L 442.622786 579.854625 
L 443.248252 659.355441 
L 443.365527 543.803393 
L 443.990993 597.334907 
L 444.616459 592.154565 
L 445.241925 641.28384 
L 445.867391 647.345235 
L 447.118323 622.198553 
L 447.743789 637.620522 
L 448.369255 603.854807 
L 448.994721 656.018241 
L 449.620187 610.508864 
L 450.245653 627.321473 
L 450.871119 649.295738 
L 451.496585 617.30501 
L 452.122051 627.702773 
L 452.747517 609.229932 
L 453.372983 539.642137 
L 453.998449 602.956973 
L 454.623915 635.434548 
L 455.249381 576.320781 
L 455.874847 628.843514 
L 457.125779 664.243226 
L 457.751245 626.590955 
L 458.376711 665.326971 
L 459.002177 579.119066 
L 459.627643 597.454815 
L 460.253109 645.544863 
L 460.878575 558.366512 
L 461.50404 619.854114 
L 462.129506 660.844817 
L 462.754972 619.941244 
L 463.380438 673.221828 
L 464.005904 667.808391 
L 464.63137 660.326962 
L 465.256836 568.157542 
L 465.882302 660.040746 
L 466.507768 628.585147 
L 467.133234 625.87509 
L 467.7587 686.670295 
L 468.384166 610.780427 
L 469.009632 624.399493 
L 469.635098 570.073251 
L 470.260564 618.154943 
L 470.88603 697.433698 
L 471.511496 602.515786 
L 472.136962 666.320449 
L 472.762428 586.134395 
L 473.387894 655.01914 
L 474.01336 683.813154 
L 474.638826 659.675376 
L 475.264292 605.775019 
L 476.515224 637.889957 
L 477.14069 649.701638 
L 477.766156 624.922411 
L 478.391622 621.642096 
L 479.017088 646.824669 
L 479.642554 588.939087 
L 480.26802 595.113646 
L 480.893486 623.588723 
L 481.518952 657.547049 
L 482.144418 582.934107 
L 482.769884 666.090087 
L 483.39535 666.50766 
L 484.020816 647.386683 
L 484.646281 642.832633 
L 485.271747 677.021388 
L 485.897213 666.240756 
L 486.522679 556.342567 
L 487.148145 649.276291 
L 487.773611 669.20042 
L 488.399077 650.128598 
L 489.024543 554.884871 
L 489.141818 647.304996 
L 489.767284 612.294471 
L 490.39275 642.264839 
L 491.018216 621.99893 
L 491.643682 654.441106 
L 492.269148 661.780043 
L 492.894614 682.919174 
L 493.52008 661.077666 
L 494.145546 613.736305 
L 494.771012 608.462806 
L 495.396478 641.372539 
L 496.021944 609.34164 
L 496.64741 536.681689 
L 497.272876 631.764016 
L 497.898342 670.682874 
L 498.523808 602.672774 
L 499.149274 635.397492 
L 499.77474 625.298088 
L 500.400206 679.631006 
L 501.025672 644.500371 
L 501.651138 653.614071 
L 502.276604 609.268714 
L 502.90207 665.916475 
L 503.527536 597.033433 
L 504.153002 642.388175 
L 504.778468 640.19306 
L 505.403933 624.235201 
L 506.029399 675.32383 
L 506.654865 644.079415 
L 507.280331 669.632265 
L 508.531263 625.519488 
L 509.156729 623.118141 
L 509.782195 631.81046 
L 510.407661 672.38247 
L 511.658593 635.610176 
L 512.284059 626.726166 
L 512.909525 626.787778 
L 513.534991 633.451716 
L 514.160457 648.269214 
L 514.785923 625.839221 
L 515.411389 680.23057 
L 516.036855 650.146948 
L 516.662321 625.478757 
L 517.287787 675.419318 
L 517.913253 659.354836 
L 518.538719 593.435961 
L 519.164185 661.156485 
L 519.789651 670.040182 
L 520.415117 652.082395 
L 521.040583 669.93096 
L 521.666049 629.584674 
L 522.291515 666.761479 
L 522.916981 674.414078 
L 523.542447 651.681491 
L 524.167913 601.953907 
L 524.793379 658.749962 
L 525.418845 616.918534 
L 526.044311 644.585194 
L 526.669777 661.880146 
L 527.295243 636.655946 
L 527.920709 636.311971 
L 528.546174 613.384467 
L 529.797106 634.228095 
L 530.422572 648.299392 
L 531.048038 619.149854 
L 531.673504 572.922641 
L 532.29897 654.715 
L 532.924436 591.940222 
L 533.549902 597.340082 
L 534.175368 634.872512 
L 534.800834 636.37262 
L 534.918109 644.028736 
L 535.543575 634.270394 
L 536.169041 682.261101 
L 536.794507 645.752036 
L 537.419973 663.779321 
L 538.045439 655.102394 
L 538.670905 612.68722 
L 539.296371 614.06603 
L 539.921837 657.642917 
L 540.547303 643.055624 
L 541.172769 649.320876 
L 541.798235 679.96342 
L 542.423701 658.607224 
L 543.049167 621.39865 
L 543.674633 687.118338 
L 544.300099 685.539524 
L 544.925565 612.290281 
L 545.551031 627.419693 
L 546.176497 666.093089 
L 546.801963 578.608359 
L 547.427429 660.959057 
L 548.052895 669.422089 
L 548.67836 637.112838 
L 549.303826 617.871863 
L 549.929292 657.536855 
L 550.554758 600.640382 
L 551.180224 654.139521 
L 551.80569 661.462596 
L 552.431156 605.649801 
L 553.056622 699.350684 
L 553.682088 615.344962 
L 554.307554 595.072758 
L 554.93302 650.540033 
L 555.558486 680.008027 
L 556.183952 539.547569 
L 556.809418 653.31681 
L 557.434884 598.018599 
L 558.06035 637.984727 
L 558.685816 652.11533 
L 559.311282 645.648214 
L 559.936748 658.532707 
L 560.562214 687.433243 
L 561.18768 655.235454 
L 561.813146 655.968906 
L 562.438612 664.220889 
L 563.064078 640.19967 
L 563.689544 669.036824 
L 564.31501 658.995559 
L 564.940476 631.032109 
L 565.565942 681.201408 
L 566.191408 609.171681 
L 566.816874 673.687033 
L 567.44234 650.517001 
L 568.067806 601.061921 
L 568.693272 654.351287 
L 569.318738 647.961064 
L 569.944204 596.30379 
L 570.56967 628.940906 
L 571.195136 587.943101 
L 571.820602 625.744249 
L 572.446067 586.919265 
L 573.071533 628.461072 
L 573.696999 624.257875 
L 574.322465 672.472066 
L 574.947931 656.939576 
L 575.573397 691.787154 
L 576.198863 601.048993 
L 576.824329 662.268481 
L 577.449795 665.654635 
L 578.075261 630.99792 
L 578.700727 581.730589 
L 579.326193 628.154132 
L 579.951659 683.174438 
L 580.577125 686.632286 
L 580.6944 637.394932 
L 581.319866 608.037907 
L 581.945332 632.033563 
L 582.570798 600.036808 
L 583.196264 689.065234 
L 583.82173 600.836062 
L 584.447196 592.98691 
L 585.072662 591.864159 
L 585.698128 583.087869 
L 586.323594 682.573172 
L 586.94906 646.820322 
L 587.574526 633.60998 
L 588.199992 670.162554 
L 588.825458 585.577646 
L 589.450924 687.984234 
L 590.07639 610.840113 
L 590.701856 627.840896 
L 591.327322 650.144931 
L 591.952788 633.246827 
L 592.578253 698.375657 
L 593.203719 639.818347 
L 593.829185 682.752866 
L 594.454651 602.077803 
L 595.080117 651.306688 
L 595.705583 626.056992 
L 596.331049 667.808951 
L 596.956515 633.94208 
L 597.581981 689.536858 
L 598.207447 664.506455 
L 598.832913 689.758168 
L 599.458379 612.707563 
L 600.083845 727.669894 
L 600.709311 655.601407 
L 601.334777 661.692666 
L 601.960243 637.208528 
L 602.585709 695.375082 
L 603.211175 647.675789 
L 603.836641 721.684529 
L 604.462107 652.999429 
L 605.087573 651.210596 
L 605.713039 598.330625 
L 606.338505 589.021782 
L 607.589437 665.917372 
L 608.214903 716.468721 
L 608.840369 627.029969 
L 609.465835 647.50798 
L 610.091301 634.62109 
L 610.716767 631.890914 
L 611.342233 710.644869 
L 611.967699 689.41863 
L 612.593165 632.000292 
L 613.218631 623.751939 
L 613.844097 602.111813 
L 614.469563 673.455797 
L 615.095029 598.188558 
L 616.34596 715.142986 
L 616.971426 657.588273 
L 617.596892 683.968159 
L 618.847824 640.609916 
L 619.47329 703.892815 
L 620.098756 621.491336 
L 620.724222 609.896418 
L 621.349688 627.964635 
L 621.975154 666.451582 
L 622.60062 628.127246 
L 623.226086 652.805564 
L 623.851552 608.123581 
L 624.477018 645.996401 
L 625.102484 651.381608 
L 625.72795 648.89741 
L 626.353416 729.865837 
L 626.470691 583.258993 
L 627.096157 650.071647 
L 627.721623 634.288923 
L 628.347089 670.676332 
L 628.972555 656.165975 
L 629.598021 673.545437 
L 630.223487 637.264113 
L 630.848953 654.637414 
L 631.474419 706.305655 
L 632.099885 676.554996 
L 632.725351 613.183275 
L 633.350817 603.212876 
L 633.976283 647.935209 
L 634.601749 599.705537 
L 635.227215 606.783373 
L 635.852681 657.982478 
L 636.478146 638.480133 
L 637.103612 650.875762 
L 637.729078 601.912593 
L 638.354544 672.971504 
L 638.98001 656.768429 
L 639.605476 690.629094 
L 640.856408 642.325151 
L 641.481874 642.080428 
L 642.10734 631.042729 
L 642.732806 629.114339 
L 643.358272 640.720796 
L 643.983738 695.983832 
L 644.609204 633.64865 
L 645.23467 683.214722 
L 646.485602 633.518413 
L 647.111068 682.917617 
L 647.736534 603.831842 
L 648.362 607.047162 
L 648.987466 706.174634 
L 649.612932 628.920115 
L 650.238398 653.543923 
L 650.863864 651.071196 
L 651.48933 681.732347 
L 652.114796 700.541724 
L 652.740262 624.168795 
L 653.365728 659.705801 
L 653.991194 631.292403 
L 654.61666 697.584995 
L 655.242126 629.48847 
L 655.867592 599.798358 
L 656.493058 656.862483 
L 657.118524 698.276282 
L 657.74399 689.61962 
L 658.369456 642.51653 
L 658.994922 688.296932 
L 659.620387 670.537649 
L 660.245853 605.327492 
L 660.871319 699.414346 
L 661.496785 628.494073 
L 662.122251 651.267189 
L 662.747717 663.843913 
L 663.373183 620.741999 
L 663.998649 666.342338 
L 664.624115 624.638592 
L 665.875047 679.462234 
L 666.500513 672.631428 
L 667.125979 677.13621 
L 667.751445 670.698691 
L 668.376911 672.920713 
L 669.002377 651.241335 
L 669.627843 597.962297 
L 670.253309 661.631547 
L 670.878775 608.478489 
L 671.504241 612.295972 
L 672.129707 644.062342 
L 672.246982 633.681853 
L 672.872448 600.595954 
L 673.497914 662.574212 
L 674.12338 679.759629 
L 674.748846 604.358009 
L 675.374312 699.970221 
L 675.999778 600.474567 
L 676.625244 687.986105 
L 677.25071 648.46272 
L 677.876176 643.463361 
L 678.501642 677.370314 
L 679.127108 647.288036 
L 679.752573 647.667298 
L 680.378039 696.529871 
L 681.003505 653.716616 
L 681.628971 687.573629 
L 682.254437 665.761303 
L 682.879903 638.101163 
L 684.130835 621.293259 
L 684.756301 717.584011 
L 685.381767 648.264352 
L 686.007233 686.203859 
L 686.632699 657.75355 
L 687.258165 643.456192 
L 687.883631 632.718644 
L 688.509097 640.266211 
L 689.134563 685.937526 
L 689.760029 715.236726 
L 691.010961 617.602361 
L 691.636427 634.417546 
L 692.261893 638.3326 
L 692.887359 667.787152 
L 693.512825 637.926454 
L 694.138291 577.057258 
L 694.763757 636.700239 
L 695.389223 596.947624 
L 696.014689 675.667894 
L 696.640155 613.409224 
L 697.265621 645.589179 
L 697.891087 659.798824 
L 698.516553 627.473778 
L 699.142019 650.759752 
L 699.767485 648.571046 
L 701.018417 674.904039 
L 701.643883 678.295234 
L 702.269349 638.062717 
L 702.894815 675.473267 
L 703.52028 598.149776 
L 704.145746 677.888101 
L 704.771212 660.722489 
L 705.396678 634.456059 
L 706.022144 623.26312 
L 706.64761 625.754667 
L 707.273076 683.11743 
L 707.898542 639.098808 
L 708.524008 666.367767 
L 709.149474 596.713364 
L 709.77494 623.070106 
L 710.400406 692.6127 
L 711.025872 679.813176 
L 711.651338 652.660787 
L 712.276804 661.225961 
L 712.90227 653.917986 
L 713.527736 617.668185 
L 714.153202 648.034326 
L 714.778668 671.350816 
L 715.404134 679.685471 
L 716.0296 658.601399 
L 716.655066 695.9745 
L 717.280532 686.980193 
L 717.905998 700.042554 
L 718.023273 664.064417 
L 718.648739 653.047374 
L 719.274205 637.794716 
L 719.899671 685.794318 
L 721.150603 638.319158 
L 721.776069 652.338388 
L 722.401535 698.612874 
L 723.027001 657.67211 
L 723.652466 653.560681 
L 724.277932 644.662399 
L 724.903398 653.241441 
L 725.528864 659.59752 
L 726.15433 655.452552 
L 726.779796 601.508619 
L 727.405262 625.553386 
L 728.030728 668.443444 
L 728.656194 587.069778 
L 729.28166 612.059471 
L 729.907126 727.486166 
L 730.532592 639.816219 
L 731.783524 666.098533 
L 732.40899 666.659562 
L 733.034456 700.852909 
L 733.659922 637.284008 
L 734.285388 608.671077 
L 734.910854 664.571249 
L 735.53632 637.308182 
L 736.161786 637.016813 
L 736.787252 663.622692 
L 737.412718 655.95972 
L 738.038184 685.762582 
L 738.66365 639.152556 
L 739.289116 687.783726 
L 739.914582 676.205017 
L 740.540048 651.001048 
L 741.165514 673.523817 
L 742.416446 635.807133 
L 743.041912 677.550759 
L 743.667378 669.225222 
L 744.292844 588.483987 
L 744.91831 659.739385 
L 745.543776 635.499319 
L 746.169242 671.190871 
L 746.794707 664.946478 
L 747.420173 617.466949 
L 748.045639 675.252226 
L 748.671105 684.105856 
L 749.296571 650.700896 
L 749.922037 662.344768 
L 750.547503 661.905374 
L 751.172969 683.566011 
L 751.798435 709.251451 
L 752.423901 682.491082 
L 753.674833 604.711841 
L 754.300299 616.44867 
L 754.925765 635.83077 
L 755.551231 640.285635 
L 756.176697 625.155394 
L 756.802163 683.889049 
L 757.427629 662.287704 
L 758.053095 646.153164 
L 758.678561 644.612684 
L 759.304027 628.135491 
L 759.929493 690.059261 
L 760.554959 653.380662 
L 761.180425 691.417784 
L 761.805891 646.970208 
L 762.431357 699.752025 
L 763.056823 643.935041 
L 763.682289 631.733815 
L 763.799564 671.074749 
L 764.42503 676.461077 
L 765.050496 635.499364 
L 766.301428 716.080957 
L 766.926894 654.454101 
L 767.552359 686.049403 
L 768.177825 666.532193 
L 768.803291 614.843418 
L 769.428757 667.990382 
L 770.054223 676.467283 
L 770.679689 647.506165 
L 771.305155 635.32293 
L 771.930621 695.960397 
L 772.556087 667.355957 
L 773.181553 688.12415 
L 773.807019 661.040699 
L 774.432485 641.11061 
L 775.057951 662.218116 
L 775.683417 703.648528 
L 776.308883 621.555211 
L 776.934349 620.316697 
L 777.559815 632.934914 
L 778.185281 667.479226 
L 778.810747 684.776912 
L 780.061679 611.476532 
L 780.687145 652.023539 
L 781.312611 669.650323 
L 781.938077 627.578316 
L 782.563543 673.377292 
L 783.189009 656.444417 
L 783.814475 662.81833 
L 784.439941 652.330098 
L 785.065407 646.437118 
L 785.690873 633.998114 
L 786.316339 683.667738 
L 786.941805 616.429559 
L 787.567271 651.691932 
L 788.192737 642.110495 
L 788.818203 692.435179 
L 789.443669 620.753874 
L 790.069135 695.160907 
L 790.6946 686.907468 
L 791.320066 638.373399 
L 791.945532 697.58439 
L 792.570998 672.749723 
L 793.196464 638.263707 
L 793.82193 641.403861 
L 794.447396 712.817624 
L 795.072862 687.902873 
L 795.698328 667.694555 
L 796.323794 661.210166 
L 796.94926 568.343162 
L 798.200192 721.022042 
L 798.825658 694.551307 
L 799.451124 709.187475 
L 800.07659 633.099429 
L 800.702056 630.002829 
L 801.327522 642.944722 
L 801.952988 698.887115 
L 802.578454 705.318551 
L 803.829386 676.594562 
L 804.454852 632.282901 
L 805.080318 689.499667 
L 805.705784 595.451392 
L 806.33125 663.062582 
L 806.956716 650.201435 
L 807.582182 695.000122 
L 808.207648 615.402923 
L 808.833114 639.671755 
L 809.45858 633.664423 
L 809.575855 652.345378 
L 810.201321 679.911173 
L 810.826786 633.535687 
L 811.452252 654.483383 
L 812.077718 638.639518 
L 812.703184 695.656313 
L 813.954116 650.550876 
L 814.579582 656.597237 
L 815.205048 561.257305 
L 815.830514 702.537002 
L 816.45598 677.20591 
L 817.081446 666.462739 
L 817.706912 728.446138 
L 818.332378 686.713446 
L 818.957844 693.448047 
L 819.58331 623.809653 
L 820.208776 650.720769 
L 820.834242 590.06428 
L 821.459708 654.934742 
L 822.085174 732.850639 
L 822.71064 666.881948 
L 823.336106 689.417398 
L 823.961572 728.990016 
L 824.587038 728.61202 
L 825.212504 681.078262 
L 825.83797 623.983511 
L 826.463436 704.083734 
L 827.088902 659.887568 
L 827.714368 687.09105 
L 828.339834 660.64907 
L 828.9653 625.414367 
L 829.590766 666.039341 
L 830.216232 653.081586 
L 830.841698 687.785138 
L 831.467164 668.066602 
L 832.09263 684.255764 
L 832.718096 643.644321 
L 833.343562 668.440486 
L 833.969027 576.240887 
L 834.594493 702.87942 
L 835.845425 631.39804 
L 836.470891 697.211626 
L 837.096357 622.9668 
L 837.721823 685.030026 
L 838.347289 610.967661 
L 838.972755 628.108225 
L 839.598221 685.6364 
L 840.223687 631.858921 
L 840.849153 667.339602 
L 841.474619 676.054728 
L 842.100085 627.812532 
L 842.725551 689.848985 
L 843.351017 607.441905 
L 843.976483 663.639921 
L 844.601949 679.618661 
L 845.227415 699.33583 
L 845.852881 659.653711 
L 846.478347 630.699807 
L 847.103813 591.89268 
L 847.729279 667.920368 
L 848.354745 670.246302 
L 848.980211 664.292135 
L 849.605677 604.768592 
L 850.231143 662.101748 
L 850.856609 695.917503 
L 851.482075 651.575922 
L 852.107541 716.415981 
L 852.733007 608.407131 
L 853.358473 629.645972 
L 853.983939 661.655677 
L 854.609405 652.615037 
L 855.234871 677.417161 
L 855.352145 670.740968 
L 855.977611 694.711419 
L 856.603077 641.537951 
L 857.228543 643.443645 
L 858.479475 678.125162 
L 859.104941 661.888458 
L 859.730407 670.615862 
L 860.355873 682.252352 
L 860.981339 715.775607 
L 861.606805 700.185808 
L 862.232271 715.670027 
L 862.857737 660.132627 
L 863.483203 695.546588 
L 864.108669 639.635841 
L 864.734135 607.995652 
L 865.359601 634.07346 
L 866.610533 669.916263 
L 867.235999 688.278617 
L 867.861465 690.669198 
L 868.486931 683.197515 
L 869.737863 604.768883 
L 870.988795 713.787756 
L 872.865193 652.423099 
L 873.490659 611.717222 
L 874.116125 639.30616 
L 874.741591 674.56338 
L 875.367057 648.564123 
L 875.992523 657.576242 
L 876.617989 653.02087 
L 877.243455 616.421471 
L 877.86892 699.242684 
L 878.494386 598.598626 
L 879.119852 698.159454 
L 879.745318 653.308677 
L 880.370784 658.097726 
L 880.99625 609.069942 
L 881.621716 652.51117 
L 882.247182 623.226847 
L 882.872648 639.148747 
L 883.498114 641.41988 
L 884.12358 612.304979 
L 884.749046 631.78344 
L 885.374512 690.276707 
L 885.999978 706.62429 
L 886.625444 666.569989 
L 887.25091 664.294107 
L 887.876376 670.8624 
L 888.501842 691.534399 
L 889.127308 705.177953 
L 889.752774 688.953437 
L 890.37824 654.845259 
L 891.003706 671.506885 
L 892.254638 697.384341 
L 892.880104 675.743263 
L 893.50557 648.004842 
L 894.131036 564.626275 
L 894.756502 699.074561 
L 895.381968 688.280162 
L 896.007434 704.418444 
L 896.6329 686.796421 
L 897.258366 664.254989 
L 897.883832 595.312082 
L 898.509298 685.816352 
L 899.134764 636.4194 
L 899.76023 666.893217 
L 900.385696 648.661447 
L 901.011161 703.667359 
L 901.128436 610.376857 
L 901.753902 728.008054 
L 902.379368 705.894478 
L 903.004834 702.617927 
L 903.6303 626.222784 
L 904.255766 673.844782 
L 904.881232 695.830115 
L 905.506698 675.836868 
L 906.132164 671.775065 
L 906.75763 696.964248 
L 907.383096 698.253665 
L 908.008562 641.665073 
L 908.634028 611.839841 
L 909.88496 661.846002 
L 910.510426 686.043241 
L 911.135892 681.571942 
L 911.761358 680.486943 
L 912.386824 666.473023 
L 913.01229 703.86435 
L 913.637756 642.586678 
L 914.263222 641.717253 
L 914.888688 690.184916 
L 915.514154 670.373648 
L 916.13962 701.961198 
L 916.765086 717.413872 
L 917.390552 722.685265 
L 918.016018 697.458275 
L 918.641484 652.406564 
L 919.26695 719.693003 
L 919.892416 653.916889 
L 920.517882 659.398166 
L 921.143348 716.026189 
L 921.768813 722.279959 
L 922.394279 726.180618 
L 923.019745 663.103336 
L 923.645211 673.145743 
L 924.270677 677.139302 
L 924.896143 661.677969 
L 925.521609 695.577864 
L 926.147075 654.03086 
L 926.772541 682.262177 
L 927.398007 636.869348 
L 928.023473 663.973186 
L 928.648939 700.474746 
L 929.274405 659.612128 
L 929.899871 673.597124 
L 930.525337 534.670761 
L 931.150803 719.52665 
L 931.776269 602.78484 
L 932.401735 630.636067 
L 933.027201 628.579098 
L 933.652667 660.532298 
L 934.278133 658.852328 
L 934.903599 698.318615 
L 935.529065 692.924815 
L 936.154531 690.911154 
L 936.779997 643.263223 
L 938.030929 680.688134 
L 938.656395 661.222443 
L 939.281861 634.792304 
L 939.907327 652.105875 
L 940.532793 674.62963 
L 941.158259 619.604775 
L 941.783725 692.964045 
L 942.409191 625.228858 
L 943.034657 671.469357 
L 943.660123 608.6821 
L 944.285589 637.351199 
L 944.911054 629.351713 
L 945.53652 685.975099 
L 946.161986 648.143077 
L 946.787452 778.260456 
L 946.904727 660.054234 
L 947.530193 700.590778 
L 948.155659 679.143262 
L 948.781125 638.112298 
L 949.406591 656.766077 
L 950.032057 715.63959 
L 950.657523 661.630337 
L 951.282989 686.00987 
L 951.908455 679.899903 
L 952.533921 643.694306 
L 953.159387 708.931258 
L 953.784853 636.376361 
L 954.410319 701.336217 
L 955.661251 635.281952 
L 956.286717 678.445836 
L 956.912183 629.746725 
L 957.537649 654.534107 
L 958.163115 701.792101 
L 958.788581 700.971765 
L 959.414047 665.724828 
L 960.039513 694.317248 
L 960.664979 644.727305 
L 961.290445 686.061848 
L 961.915911 598.387689 
L 962.541377 660.608944 
L 963.166843 649.723975 
L 963.792309 665.199289 
L 964.417775 637.436291 
L 965.04324 669.193587 
L 965.668706 685.12735 
L 966.919638 657.640721 
L 967.545104 688.219581 
L 968.17057 688.025033 
L 968.796036 690.276875 
L 969.421502 698.918078 
L 970.046968 622.607881 
L 970.672434 639.608956 
L 971.2979 688.802005 
L 971.923366 668.905601 
L 972.548832 682.732131 
L 973.174298 656.013469 
L 973.799764 589.322628 
L 974.42523 681.950554 
L 975.050696 640.135772 
L 975.676162 658.394136 
L 976.301628 638.961155 
L 976.927094 718.901456 
L 977.55256 641.774564 
L 978.178026 684.684897 
L 978.803492 631.599276 
L 979.428958 693.279365 
L 980.054424 659.051301 
L 980.67989 667.673517 
L 981.305356 659.176094 
L 981.930822 633.565104 
L 982.556288 665.938028 
L 983.181754 664.770558 
L 983.80722 708.516912 
L 984.432686 681.898554 
L 985.058152 619.980273 
L 985.683618 704.08538 
L 986.309084 719.103409 
L 986.93455 665.096004 
L 987.560016 687.937331 
L 988.185481 654.684015 
L 988.810947 673.947775 
L 989.436413 647.825226 
L 990.061879 695.585627 
L 990.687345 681.317798 
L 991.312811 702.479893 
L 991.938277 680.320949 
L 992.563743 803.437663 
L 992.681018 641.619525 
L 993.306484 627.396707 
L 993.93195 725.524808 
L 994.557416 684.404876 
L 995.182882 703.630336 
L 995.808348 641.420843 
L 996.433814 656.691448 
L 997.05928 679.855991 
L 997.684746 651.498895 
L 998.310212 723.158614 
L 998.935678 677.521902 
L 999.561144 655.3177 
L 1000.18661 642.403163 
L 1000.812076 678.925985 
L 1001.437542 652.4602 
L 1002.063008 648.551599 
L 1002.688474 706.102212 
L 1003.31394 676.720363 
L 1003.939406 681.052766 
L 1004.564872 717.458546 
L 1005.190338 720.353596 
L 1005.815804 604.919239 
L 1006.44127 689.709473 
L 1007.066736 652.47781 
L 1007.692202 646.853391 
L 1008.317668 654.142523 
L 1008.943133 654.302647 
L 1009.568599 653.911265 
L 1010.194065 666.549399 
L 1010.819531 674.795355 
L 1011.444997 619.539444 
L 1012.070463 710.340505 
L 1012.695929 611.235102 
L 1013.321395 670.322947 
L 1013.946861 705.254867 
L 1014.572327 638.63506 
L 1015.197793 668.353602 
L 1015.823259 652.369194 
L 1016.448725 648.439218 
L 1017.074191 677.424084 
L 1018.325123 652.289076 
L 1018.950589 728.170407 
L 1019.576055 670.619604 
L 1020.201521 698.230443 
L 1020.826987 708.803979 
L 1021.452453 682.885332 
L 1022.077919 636.018272 
L 1022.703385 667.131241 
L 1023.328851 675.71873 
L 1023.954317 610.712117 
L 1024.579783 756.667687 
L 1025.205249 649.9812 
L 1025.830715 648.204151 
L 1026.456181 692.550393 
L 1027.081647 597.113753 
L 1027.707113 676.725964 
L 1028.332579 670.871676 
L 1028.958045 648.982278 
L 1029.583511 634.420907 
L 1030.208977 642.153847 
L 1030.834443 638.493105 
L 1031.459909 717.735689 
L 1032.085374 618.304694 
L 1032.71084 690.496639 
L 1033.336306 673.28987 
L 1033.961772 694.545795 
L 1034.587238 665.893376 
L 1035.212704 689.789893 
L 1035.83817 699.121353 
L 1036.463636 620.83379 
L 1037.089102 692.623364 
L 1037.714568 640.682193 
L 1038.340034 766.675255 
L 1038.457309 669.131594 
L 1039.082775 668.148266 
L 1039.708241 695.22923 
L 1040.333707 627.344325 
L 1040.959173 615.844535 
L 1041.584639 642.650978 
L 1042.210105 610.553695 
L 1042.835571 652.463897 
L 1043.461037 660.199504 
L 1044.086503 650.201009 
L 1044.711969 708.94777 
L 1045.337435 671.895466 
L 1045.962901 662.472317 
L 1046.588367 690.877895 
L 1047.213833 669.743749 
L 1047.839299 638.045555 
L 1048.464765 664.414306 
L 1049.090231 719.911737 
L 1049.715697 654.644807 
L 1050.341163 659.239207 
L 1050.966629 705.570309 
L 1051.592095 680.244886 
L 1052.21756 694.732737 
L 1052.843026 657.664291 
L 1053.468492 686.609871 
L 1054.093958 724.590859 
L 1054.719424 636.331732 
L 1055.34489 711.236927 
L 1055.970356 734.223434 
L 1056.595822 639.973027 
L 1057.221288 700.133157 
L 1057.846754 667.709364 
L 1058.47222 586.736244 
L 1059.097686 688.535841 
L 1059.723152 619.529609 
L 1060.348618 719.129432 
L 1060.974084 667.103101 
L 1061.59955 699.353025 
L 1062.225016 684.811 
L 1062.850482 661.332561 
L 1063.475948 669.226163 
L 1064.101414 617.987111 
L 1064.72688 712.958346 
L 1065.352346 675.04568 
L 1065.977812 681.226657 
L 1066.603278 720.801538 
L 1067.228744 659.349078 
L 1067.85421 666.06533 
L 1068.479676 650.952385 
L 1069.105142 631.715846 
L 1069.730608 688.426049 
L 1070.356074 697.850375 
L 1070.98154 696.753321 
L 1071.607006 685.440653 
L 1072.232472 722.427884 
L 1072.857938 675.742366 
L 1073.483404 663.378036 
L 1074.10887 653.719976 
L 1074.734336 696.733538 
L 1075.359802 711.030101 
L 1075.985267 599.688711 
L 1076.610733 572.033613 
L 1077.236199 693.429429 
L 1077.861665 654.284433 
L 1078.487131 651.532816 
L 1079.112597 689.905489 
L 1079.738063 672.137344 
L 1080.363529 662.105041 
L 1080.988995 706.656261 
L 1081.614461 675.444612 
L 1082.239927 703.23482 
L 1082.865393 670.573652 
L 1083.490859 681.747458 
L 1084.116325 712.619793 
L 1084.2336 686.460926 
L 1084.859066 693.45879 
L 1085.484532 676.118581 
L 1086.109998 687.979305 
L 1086.735464 689.877337 
L 1087.36093 708.074649 
L 1087.986396 655.512036 
L 1088.611862 637.517618 
L 1089.237328 650.209814 
L 1089.862794 708.71752 
L 1090.48826 659.613629 
L 1091.113726 652.36646 
L 1091.739192 676.635674 
L 1092.364658 688.397517 
L 1092.990124 693.25239 
L 1093.61559 684.619465 
L 1094.241056 678.486836 
L 1094.866522 685.502411 
L 1095.491988 656.465567 
L 1096.117453 660.477363 
L 1096.742919 677.58432 
L 1097.368385 621.145592 
L 1097.993851 698.224931 
L 1098.619317 623.13062 
L 1099.244783 689.357769 
L 1099.870249 670.367375 
L 1100.495715 639.373598 
L 1101.746647 676.888552 
L 1102.372113 688.812367 
L 1102.997579 669.326266 
L 1103.623045 689.178903 
L 1104.248511 664.581913 
L 1104.873977 682.208171 
L 1105.499443 637.134279 
L 1106.124909 710.707556 
L 1106.750375 734.486114 
L 1107.375841 613.840015 
L 1108.001307 712.387684 
L 1108.626773 698.699434 
L 1109.252239 715.561141 
L 1109.877705 650.891176 
L 1110.503171 688.913086 
L 1111.128637 652.831755 
L 1111.754103 733.517785 
L 1112.379569 662.199946 
L 1113.005035 693.541283 
L 1113.630501 661.441961 
L 1114.255967 694.591063 
L 1114.881433 683.894258 
L 1116.132365 642.820826 
L 1116.757831 695.500076 
L 1117.383297 658.75115 
L 1118.008763 697.277192 
L 1118.634229 699.109669 
L 1119.259694 676.62846 
L 1119.88516 663.047661 
L 1120.510626 640.358584 
L 1121.761558 716.664176 
L 1122.387024 653.961339 
L 1123.01249 673.951942 
L 1123.637956 647.910296 
L 1124.263422 675.090108 
L 1124.888888 660.086003 
L 1125.514354 655.82265 
L 1126.765286 624.455123 
L 1127.390752 702.166736 
L 1128.016218 668.906004 
L 1128.641684 674.73576 
L 1129.26715 663.599414 
L 1129.892616 609.120621 
L 1130.009891 648.031884 
L 1130.635357 686.232906 
L 1131.260823 614.532221 
L 1131.886289 672.395443 
L 1132.511755 666.605881 
L 1133.137221 684.001967 
L 1133.762687 707.453532 
L 1134.388153 709.567218 
L 1135.013619 649.51669 
L 1136.264551 677.0161 
L 1136.890017 686.198392 
L 1137.515483 701.204882 
L 1138.140949 695.640787 
L 1138.766415 694.018586 
L 1139.391881 664.742172 
L 1140.017346 668.134913 
L 1140.642812 685.613144 
L 1141.268278 632.581888 
L 1141.893744 696.984501 
L 1142.51921 693.938211 
L 1143.144676 637.121867 
L 1143.770142 657.708472 
L 1144.395608 666.039162 
L 1145.021074 753.742055 
L 1145.64654 668.079081 
L 1146.272006 708.258242 
L 1146.897472 729.024586 
L 1147.522938 683.827526 
L 1148.148404 663.322966 
L 1148.77387 709.859674 
L 1149.399336 646.293797 
L 1150.024802 600.164827 
L 1150.650268 672.796727 
L 1151.275734 729.548938 
L 1151.9012 589.293951 
L 1152.526666 694.9646 
L 1153.152132 723.23396 
L 1153.777598 675.916986 
L 1154.403064 695.39239 
L 1155.02853 578.49385 
L 1155.653996 665.667518 
L 1156.279462 724.288221 
L 1156.904928 695.858065 
L 1157.530394 689.418787 
L 1158.15586 665.550657 
L 1158.781326 675.11594 
L 1159.406792 716.723604 
L 1160.032258 705.97165 
L 1160.657724 698.929739 
L 1161.28319 677.88734 
L 1161.908656 648.3919 
L 1162.534122 680.54385 
L 1163.159587 663.061193 
L 1163.785053 696.03339 
L 1164.410519 649.084644 
L 1165.035985 720.307746 
L 1165.661451 633.575343 
L 1166.286917 668.548117 
L 1166.912383 719.817963 
L 1167.537849 702.140086 
L 1168.163315 618.91407 
L 1169.414247 710.479827 
L 1170.039713 639.588366 
L 1170.665179 713.64066 
L 1171.290645 645.576767 
L 1171.916111 688.140919 
L 1172.541577 704.300216 
L 1173.167043 638.271504 
L 1173.792509 671.380255 
L 1174.417975 650.025045 
L 1175.043441 693.560204 
L 1175.668907 644.732525 
L 1175.786182 728.83155 
L 1176.411648 632.794931 
L 1177.037114 655.589286 
L 1177.66258 715.083525 
L 1178.288046 658.781911 
L 1178.913512 710.336484 
L 1179.538978 578.664773 
L 1180.164444 640.488014 
L 1180.78991 659.731409 
L 1181.415376 628.446755 
L 1182.040842 640.448157 
L 1182.666308 666.407176 
L 1183.291773 700.875426 
L 1183.917239 629.309548 
L 1184.542705 633.036181 
L 1185.168171 690.320205 
L 1185.793637 692.401505 
L 1186.419103 681.323735 
L 1187.044569 655.336677 
L 1187.670035 718.356279 
L 1188.295501 649.816707 
L 1188.920967 710.65755 
L 1189.546433 684.857086 
L 1190.171899 684.464886 
L 1190.797365 686.001401 
L 1191.422831 693.61934 
L 1192.048297 672.677648 
L 1192.673763 702.055084 
L 1193.299229 698.528634 
L 1193.924695 655.069393 
L 1194.550161 681.799179 
L 1195.175627 695.855298 
L 1195.801093 673.810571 
L 1197.052025 706.178566 
L 1197.677491 658.011155 
L 1198.302957 718.101474 
L 1198.928423 753.541413 
L 1199.553889 715.857193 
L 1200.179355 712.944332 
L 1200.804821 683.813703 
L 1201.430287 718.009033 
L 1202.055753 700.632775 
L 1202.681219 690.729824 
L 1203.306685 693.794498 
L 1203.932151 689.812835 
L 1204.557617 687.891054 
L 1205.183083 641.366288 
L 1205.808549 678.666542 
L 1206.434015 637.967678 
L 1207.05948 659.252403 
L 1207.684946 725.944655 
L 1208.310412 735.626867 
L 1208.935878 679.890605 
L 1209.561344 690.966963 
L 1210.18681 667.620374 
L 1210.812276 711.243648 
L 1211.437742 672.484724 
L 1212.063208 614.797646 
L 1212.688674 635.73694 
L 1213.31414 587.624331 
L 1213.939606 696.702856 
L 1214.565072 681.176057 
L 1215.190538 652.55347 
L 1215.816004 682.927923 
L 1216.44147 649.461598 
L 1217.066936 639.710873 
L 1217.692402 662.114967 
L 1218.317868 662.172658 
L 1218.943334 713.512955 
L 1219.5688 664.455217 
L 1220.194266 586.850752 
L 1220.819732 661.630427 
L 1221.445198 582.105392 
L 1221.562473 690.60483 
L 1222.187939 658.941341 
L 1222.813405 699.132712 
L 1223.438871 707.545917 
L 1224.064337 655.682197 
L 1224.689803 621.745469 
L 1225.315269 639.48488 
L 1225.940735 621.630266 
L 1226.566201 676.530597 
L 1227.191666 676.140111 
L 1227.817132 679.382989 
L 1228.442598 681.081107 
L 1229.068064 680.43185 
L 1229.69353 677.433472 
L 1230.318996 686.74516 
L 1230.944462 699.764784 
L 1231.569928 688.007165 
L 1232.195394 686.502576 
L 1232.82086 641.294594 
L 1233.446326 653.862155 
L 1234.071792 708.243164 
L 1234.697258 685.736189 
L 1235.322724 704.433802 
L 1235.94819 698.472701 
L 1236.573656 656.223129 
L 1237.199122 660.316746 
L 1237.824588 688.606908 
L 1238.450054 683.545489 
L 1239.07552 690.868328 
L 1239.700986 709.3819 
L 1240.326452 693.576044 
L 1240.951918 691.500961 
L 1241.577384 651.868837 
L 1242.20285 684.542585 
L 1242.828316 700.590879 
L 1243.453782 688.155818 
L 1244.079248 663.762428 
L 1244.704714 690.011876 
L 1245.33018 691.011492 
L 1245.955646 735.011463 
L 1246.581112 683.517618 
L 1247.206578 661.747804 
L 1247.832044 673.4534 
L 1248.45751 665.812071 
L 1249.082976 694.465946 
L 1249.708442 713.104176 
L 1250.333907 704.476729 
L 1250.959373 660.615217 
L 1251.584839 672.510287 
L 1252.210305 668.914137 
L 1252.835771 684.003793 
L 1253.461237 655.625044 
L 1254.086703 619.10453 
L 1254.712169 731.43504 
L 1255.337635 673.114578 
L 1255.963101 687.066607 
L 1256.588567 674.113971 
L 1257.214033 664.101339 
L 1257.839499 656.357376 
L 1258.464965 690.151623 
L 1259.090431 698.555284 
L 1259.715897 623.049427 
L 1260.341363 684.840496 
L 1260.966829 708.479474 
L 1261.592295 648.146415 
L 1262.217761 709.111546 
L 1262.843227 676.932062 
L 1263.468693 686.811342 
L 1264.094159 623.467918 
L 1264.719625 692.648861 
L 1265.345091 627.578316 
L 1265.970557 679.813512 
L 1266.596023 691.123122 
L 1267.221489 711.147209 
L 1267.338764 674.643386 
L 1267.96423 706.602255 
L 1268.589696 686.260183 
L 1269.215162 681.955125 
L 1269.840628 697.18753 
L 1270.466094 743.202865 
L 1271.091559 663.547413 
L 1271.717025 661.643578 
L 1272.342491 657.23099 
L 1272.967957 755.285616 
L 1273.593423 652.759008 
L 1274.218889 700.634175 
L 1274.844355 671.834168 
L 1275.469821 610.504159 
L 1276.095287 605.858543 
L 1276.720753 702.675652 
L 1277.346219 690.474818 
L 1277.971685 705.102618 
L 1278.597151 712.243646 
L 1279.222617 661.36023 
L 1279.848083 692.919651 
L 1280.473549 689.481374 
L 1281.724481 719.760742 
L 1282.975413 674.675873 
L 1283.600879 650.373299 
L 1284.226345 678.362514 
L 1284.851811 627.315267 
L 1285.477277 693.142978 
L 1286.102743 656.585228 
L 1286.728209 703.974781 
L 1287.353675 694.453209 
L 1287.979141 748.819151 
L 1288.604607 689.821394 
L 1289.230073 676.303731 
L 1289.855539 670.466649 
L 1290.481005 742.506704 
L 1291.106471 757.933579 
L 1291.731937 681.858427 
L 1292.357403 719.648026 
L 1292.982869 695.463255 
L 1293.608335 701.318831 
L 1294.2338 647.500049 
L 1294.859266 693.458633 
L 1295.484732 678.645571 
L 1296.110198 651.395566 
L 1296.735664 729.18005 
L 1297.36113 648.711409 
L 1297.986596 679.366164 
L 1298.612062 695.502126 
L 1299.237528 585.785558 
L 1299.862994 653.437838 
L 1300.48846 659.988566 
L 1301.113926 672.226424 
L 1301.739392 677.40233 
L 1302.364858 639.476949 
L 1303.61579 683.727244 
L 1304.241256 654.949484 
L 1304.866722 661.272831 
L 1305.492188 681.181445 
L 1306.117654 688.134836 
L 1306.74312 714.764901 
L 1307.368586 696.517482 
L 1307.994052 685.666747 
L 1308.619518 702.31437 
L 1309.244984 646.005228 
L 1309.87045 690.007204 
L 1310.495916 656.21177 
L 1311.121382 689.266583 
L 1311.746848 754.246804 
L 1312.372314 640.602433 
L 1312.99778 675.461617 
L 1313.115055 672.612653 
L 1313.740521 669.292659 
L 1314.365986 646.602193 
L 1314.991452 660.99058 
L 1315.616918 659.564519 
L 1316.242384 649.769703 
L 1316.86785 669.710972 
L 1317.493316 668.466565 
L 1318.118782 689.75772 
L 1319.369714 718.134856 
L 1319.99518 662.794044 
L 1320.620646 684.614167 
L 1321.246112 689.220082 
L 1321.871578 673.649797 
L 1322.497044 634.972525 
L 1323.12251 697.889022 
L 1323.747976 701.983423 
L 1324.373442 681.874525 
L 1324.998908 671.100447 
L 1325.624374 687.649905 
L 1326.24984 640.750123 
L 1326.875306 675.593243 
L 1327.500772 682.622271 
L 1328.126238 644.420499 
L 1328.751704 668.925631 
L 1329.37717 688.459353 
L 1330.002636 697.352896 
L 1330.628102 677.11757 
L 1331.253568 717.869095 
L 1331.879034 655.53267 
L 1332.5045 685.781883 
L 1333.129966 646.738905 
L 1333.755432 685.470149 
L 1334.380898 714.629556 
L 1335.006364 692.823492 
L 1335.63183 643.317061 
L 1336.257296 691.332894 
L 1336.882762 642.951892 
L 1337.508227 683.400756 
L 1338.133693 675.42689 
L 1338.759159 675.158262 
L 1339.384625 694.170006 
L 1340.010091 695.354493 
L 1340.635557 713.336117 
L 1341.261023 684.633244 
L 1341.886489 695.369996 
L 1342.511955 696.559871 
L 1343.137421 691.627355 
L 1344.388353 715.383374 
L 1345.013819 685.349098 
L 1345.639285 700.639687 
L 1346.264751 647.968973 
L 1346.890217 719.615775 
L 1347.515683 630.160131 
L 1348.141149 691.534052 
L 1348.766615 707.007573 
L 1349.392081 705.149745 
L 1350.017547 749.363477 
L 1350.643013 688.085424 
L 1351.268479 689.818627 
L 1351.893945 702.905599 
L 1352.519411 671.841875 
L 1353.144877 685.549931 
L 1353.770343 664.591458 
L 1354.395809 730.384734 
L 1355.021275 702.564436 
L 1355.646741 686.786126 
L 1356.272207 698.995082 
L 1356.897673 730.689803 
L 1357.523139 688.042508 
L 1358.148605 661.51314 
L 1358.774071 743.631539 
L 1358.891345 668.836416 
L 1359.516811 708.315104 
L 1360.142277 667.961234 
L 1360.767743 676.419225 
L 1361.393209 637.815866 
L 1362.018675 694.987778 
L 1362.644141 700.423126 
L 1363.269607 665.055094 
L 1363.895073 659.158663 
L 1364.520539 700.644717 
L 1365.146005 671.534016 
L 1365.771471 723.581709 
L 1366.396937 691.507548 
L 1367.022403 707.886968 
L 1367.647869 711.840613 
L 1368.273335 711.24105 
L 1368.898801 665.88614 
L 1369.524267 713.489363 
L 1370.149733 713.142543 
L 1370.775199 667.415418 
L 1371.400665 704.427753 
L 1372.026131 656.36468 
L 1372.651597 710.32191 
L 1373.277063 679.499335 
L 1373.902529 706.446601 
L 1374.527995 693.293726 
L 1375.153461 649.900029 
L 1375.778927 664.329259 
L 1376.404393 720.458359 
L 1377.029859 749.580486 
L 1377.655325 699.510808 
L 1378.906257 662.031376 
L 1379.531723 721.093971 
L 1380.157189 631.469801 
L 1380.782655 626.735374 
L 1382.659052 687.494351 
L 1383.284518 686.72746 
L 1383.909984 696.204885 
L 1384.53545 659.351632 
L 1385.786382 687.756124 
L 1386.411848 711.694268 
L 1387.037314 761.650881 
L 1387.66278 736.706523 
L 1388.288246 665.602568 
L 1388.913712 707.898371 
L 1389.539178 623.211523 
L 1390.164644 706.123138 
L 1390.79011 707.933468 
L 1391.415576 622.425106 
L 1392.041042 676.607781 
L 1392.666508 663.781113 
L 1393.291974 680.238321 
L 1393.91744 725.429567 
L 1394.542906 695.236701 
L 1395.168372 648.156833 
L 1395.793838 709.661731 
L 1397.04477 683.584114 
L 1398.295702 703.024219 
L 1398.921168 710.585531 
L 1399.546634 697.299843 
L 1400.1721 701.429789 
L 1400.797566 706.718411 
L 1401.423032 687.403456 
L 1402.048498 677.851672 
L 1402.673964 619.818379 
L 1403.29943 716.547976 
L 1403.924896 634.382842 
L 1404.550361 736.762131 
L 1404.550361 736.762131 
" clip-path="url(#p99ac023bad)" style="fill: none; stroke: #0000ff; stroke-width: 1.5; stroke-linecap: square"/>
   </g>
   <g id="PathCollection_1">
    <defs>
     <path id="m4459d4a75f" d="M 0 3 
C 0.795609 3 1.55874 2.683901 2.12132 2.12132 
C 2.683901 1.55874 3 0.795609 3 0 
C 3 -0.795609 2.683901 -1.55874 2.12132 -2.12132 
C 1.55874 -2.683901 0.795609 -3 0 -3 
C -0.795609 -3 -1.55874 -2.683901 -2.12132 -2.12132 
C -2.683901 -1.55874 -3 -0.795609 -3 0 
C -3 0.795609 -2.683901 1.55874 -2.12132 2.12132 
C -1.55874 2.683901 -0.795609 3 0 3 
z
" style="stroke: #ff0000"/>
    </defs>
    <g clip-path="url(#p99ac023bad)">
     <use xlink:href="#m4459d4a75f" x="260.260364" y="449.567767" style="fill: #ff0000; stroke: #ff0000"/>
     <use xlink:href="#m4459d4a75f" x="306.036655" y="534.140085" style="fill: #ff0000; stroke: #ff0000"/>
     <use xlink:href="#m4459d4a75f" x="351.812945" y="570.13829" style="fill: #ff0000; stroke: #ff0000"/>
     <use xlink:href="#m4459d4a75f" x="397.589236" y="609.294895" style="fill: #ff0000; stroke: #ff0000"/>
     <use xlink:href="#m4459d4a75f" x="443.365527" y="614.375422" style="fill: #ff0000; stroke: #ff0000"/>
     <use xlink:href="#m4459d4a75f" x="489.141818" y="624.580013" style="fill: #ff0000; stroke: #ff0000"/>
     <use xlink:href="#m4459d4a75f" x="534.918109" y="625.265406" style="fill: #ff0000; stroke: #ff0000"/>
     <use xlink:href="#m4459d4a75f" x="580.6944" y="634.987811" style="fill: #ff0000; stroke: #ff0000"/>
     <use xlink:href="#m4459d4a75f" x="626.470691" y="630.997589" style="fill: #ff0000; stroke: #ff0000"/>
     <use xlink:href="#m4459d4a75f" x="672.246982" y="644.03022" style="fill: #ff0000; stroke: #ff0000"/>
     <use xlink:href="#m4459d4a75f" x="718.023273" y="645.57452" style="fill: #ff0000; stroke: #ff0000"/>
     <use xlink:href="#m4459d4a75f" x="763.799564" y="643.114492" style="fill: #ff0000; stroke: #ff0000"/>
     <use xlink:href="#m4459d4a75f" x="809.575855" y="639.351549" style="fill: #ff0000; stroke: #ff0000"/>
     <use xlink:href="#m4459d4a75f" x="855.352145" y="648.164075" style="fill: #ff0000; stroke: #ff0000"/>
     <use xlink:href="#m4459d4a75f" x="901.128436" y="647.393608" style="fill: #ff0000; stroke: #ff0000"/>
     <use xlink:href="#m4459d4a75f" x="946.904727" y="646.36922" style="fill: #ff0000; stroke: #ff0000"/>
     <use xlink:href="#m4459d4a75f" x="992.681018" y="651.030248" style="fill: #ff0000; stroke: #ff0000"/>
     <use xlink:href="#m4459d4a75f" x="1038.457309" y="650.888714" style="fill: #ff0000; stroke: #ff0000"/>
     <use xlink:href="#m4459d4a75f" x="1084.2336" y="648.78491" style="fill: #ff0000; stroke: #ff0000"/>
     <use xlink:href="#m4459d4a75f" x="1130.009891" y="649.404713" style="fill: #ff0000; stroke: #ff0000"/>
     <use xlink:href="#m4459d4a75f" x="1175.786182" y="653.789396" style="fill: #ff0000; stroke: #ff0000"/>
     <use xlink:href="#m4459d4a75f" x="1221.562473" y="644.690646" style="fill: #ff0000; stroke: #ff0000"/>
     <use xlink:href="#m4459d4a75f" x="1267.338764" y="654.303958" style="fill: #ff0000; stroke: #ff0000"/>
     <use xlink:href="#m4459d4a75f" x="1313.115055" y="659.801147" style="fill: #ff0000; stroke: #ff0000"/>
     <use xlink:href="#m4459d4a75f" x="1358.891345" y="658.466451" style="fill: #ff0000; stroke: #ff0000"/>
     <use xlink:href="#m4459d4a75f" x="1404.667636" y="656.880127" style="fill: #ff0000; stroke: #ff0000"/>
     <use xlink:href="#m4459d4a75f" x="1284.57817" y="670.940997" style="fill: #ff0000; stroke: #ff0000"/>
    </g>
   </g>
   <g id="patch_3">
    <path d="M 203.04 868.9248 
L 203.04 117.1584 
" style="fill: none; stroke: #000000; stroke-width: 0.8; stroke-linejoin: miter; stroke-linecap: square"/>
   </g>
   <g id="patch_4">
    <path d="M 1461.888 868.9248 
L 1461.888 117.1584 
" style="fill: none; stroke: #000000; stroke-width: 0.8; stroke-linejoin: miter; stroke-linecap: square"/>
   </g>
   <g id="patch_5">
    <path d="M 203.04 868.9248 
L 1461.888 868.9248 
" style="fill: none; stroke: #000000; stroke-width: 0.8; stroke-linejoin: miter; stroke-linecap: square"/>
   </g>
   <g id="patch_6">
    <path d="M 203.04 117.1584 
L 1461.888 117.1584 
" style="fill: none; stroke: #000000; stroke-width: 0.8; stroke-linejoin: miter; stroke-linecap: square"/>
   </g>
   <g id="legend_1">
    <g id="patch_7">
     <path d="M 1285.688 191.8709 
L 1447.888 191.8709 
Q 1451.888 191.8709 1451.888 187.8709 
L 1451.888 131.1584 
Q 1451.888 127.1584 1447.888 127.1584 
L 1285.688 127.1584 
Q 1281.688 127.1584 1281.688 131.1584 
L 1281.688 187.8709 
Q 1281.688 191.8709 1285.688 191.8709 
z
" style="fill: #ffffff; opacity: 0.8; stroke: #cccccc; stroke-linejoin: miter"/>
    </g>
    <g id="line2d_32">
     <path d="M 1289.688 143.355275 
L 1309.688 143.355275 
L 1329.688 143.355275 
" style="fill: none; stroke: #0000ff; stroke-width: 1.5; stroke-linecap: square"/>
    </g>
    <g id="text_18">
     <!-- Train Loss -->
     <g transform="translate(1345.688 150.355275) scale(0.2 -0.2)">
      <use xlink:href="#DejaVuSans-54"/>
      <use xlink:href="#DejaVuSans-72" x="46.333984"/>
      <use xlink:href="#DejaVuSans-61" x="87.447266"/>
      <use xlink:href="#DejaVuSans-69" x="148.726562"/>
      <use xlink:href="#DejaVuSans-6e" x="176.509766"/>
      <use xlink:href="#DejaVuSans-20" x="239.888672"/>
      <use xlink:href="#DejaVuSans-4c" x="271.675781"/>
      <use xlink:href="#DejaVuSans-6f" x="325.638672"/>
      <use xlink:href="#DejaVuSans-73" x="386.820312"/>
      <use xlink:href="#DejaVuSans-73" x="438.919922"/>
     </g>
    </g>
    <g id="PathCollection_2">
     <g>
      <use xlink:href="#m4459d4a75f" x="1309.688" y="174.461525" style="fill: #ff0000; stroke: #ff0000"/>
     </g>
    </g>
    <g id="text_19">
     <!-- Test Loss -->
     <g transform="translate(1345.688 179.711525) scale(0.2 -0.2)">
      <use xlink:href="#DejaVuSans-54"/>
      <use xlink:href="#DejaVuSans-65" x="44.083984"/>
      <use xlink:href="#DejaVuSans-73" x="105.607422"/>
      <use xlink:href="#DejaVuSans-74" x="157.707031"/>
      <use xlink:href="#DejaVuSans-20" x="196.916016"/>
      <use xlink:href="#DejaVuSans-4c" x="228.703125"/>
      <use xlink:href="#DejaVuSans-6f" x="282.666016"/>
      <use xlink:href="#DejaVuSans-73" x="343.847656"/>
      <use xlink:href="#DejaVuSans-73" x="395.947266"/>
     </g>
    </g>
   </g>
  </g>
 </g>
 <defs>
  <clipPath id="p99ac023bad">
   <rect x="203.04" y="117.1584" width="1258.848" height="751.7664"/>
  </clipPath>
 </defs>
</svg>
