<?xml version="1.0" encoding="utf-8" standalone="no"?>
<!DOCTYPE svg PUBLIC "-//W3C//DTD SVG 1.1//EN"
  "http://www.w3.org/Graphics/SVG/1.1/DTD/svg11.dtd">
<svg xmlns:xlink="http://www.w3.org/1999/xlink" width="1082.88pt" height="644.16pt" viewBox="0 0 1082.88 644.16" xmlns="http://www.w3.org/2000/svg" version="1.1">
 <metadata>
  <rdf:RDF xmlns:dc="http://purl.org/dc/elements/1.1/" xmlns:cc="http://creativecommons.org/ns#" xmlns:rdf="http://www.w3.org/1999/02/22-rdf-syntax-ns#">
   <cc:Work>
    <dc:type rdf:resource="http://purl.org/dc/dcmitype/StillImage"/>
    <dc:date>2024-02-12T19:56:15.819570</dc:date>
    <dc:format>image/svg+xml</dc:format>
    <dc:creator>
     <cc:Agent>
      <dc:title>Matplotlib v3.8.2, https://matplotlib.org/</dc:title>
     </cc:Agent>
    </dc:creator>
   </cc:Work>
  </rdf:RDF>
 </metadata>
 <defs>
  <style type="text/css">*{stroke-linejoin: round; stroke-linecap: butt}</style>
 </defs>
 <g id="figure_1">
  <g id="patch_1">
   <path d="M 0 644.16 
L 1082.88 644.16 
L 1082.88 0 
L 0 0 
z
" style="fill: #ffffff"/>
  </g>
  <g id="axes_1">
   <g id="patch_2">
    <path d="M 135.36 573.3024 
L 974.592 573.3024 
L 974.592 77.2992 
L 135.36 77.2992 
z
" style="fill: #ffffff"/>
   </g>
   <g id="matplotlib.axis_1">
    <g id="xtick_1">
     <g id="line2d_1">
      <path d="M 173.506909 573.3024 
L 173.506909 77.2992 
" clip-path="url(#pac867014c4)" style="fill: none; stroke: #b0b0b0; stroke-width: 0.8; stroke-linecap: square"/>
     </g>
     <g id="line2d_2">
      <defs>
       <path id="mc98356477c" d="M 0 0 
L 0 3.5 
" style="stroke: #000000; stroke-width: 0.8"/>
      </defs>
      <g>
       <use xlink:href="#mc98356477c" x="173.506909" y="573.3024" style="stroke: #000000; stroke-width: 0.8"/>
      </g>
     </g>
     <g id="text_1">
      <!-- 0 -->
      <g transform="translate(167.144409 595.499275) scale(0.2 -0.2)">
       <defs>
        <path id="DejaVuSans-30" d="M 2034 4250 
Q 1547 4250 1301 3770 
Q 1056 3291 1056 2328 
Q 1056 1369 1301 889 
Q 1547 409 2034 409 
Q 2525 409 2770 889 
Q 3016 1369 3016 2328 
Q 3016 3291 2770 3770 
Q 2525 4250 2034 4250 
z
M 2034 4750 
Q 2819 4750 3233 4129 
Q 3647 3509 3647 2328 
Q 3647 1150 3233 529 
Q 2819 -91 2034 -91 
Q 1250 -91 836 529 
Q 422 1150 422 2328 
Q 422 3509 836 4129 
Q 1250 4750 2034 4750 
z
" transform="scale(0.015625)"/>
       </defs>
       <use xlink:href="#DejaVuSans-30"/>
      </g>
     </g>
    </g>
    <g id="xtick_2">
     <g id="line2d_3">
      <path d="M 303.81232 573.3024 
L 303.81232 77.2992 
" clip-path="url(#pac867014c4)" style="fill: none; stroke: #b0b0b0; stroke-width: 0.8; stroke-linecap: square"/>
     </g>
     <g id="line2d_4">
      <g>
       <use xlink:href="#mc98356477c" x="303.81232" y="573.3024" style="stroke: #000000; stroke-width: 0.8"/>
      </g>
     </g>
     <g id="text_2">
      <!-- 20000 -->
      <g transform="translate(271.99982 595.499275) scale(0.2 -0.2)">
       <defs>
        <path id="DejaVuSans-32" d="M 1228 531 
L 3431 531 
L 3431 0 
L 469 0 
L 469 531 
Q 828 903 1448 1529 
Q 2069 2156 2228 2338 
Q 2531 2678 2651 2914 
Q 2772 3150 2772 3378 
Q 2772 3750 2511 3984 
Q 2250 4219 1831 4219 
Q 1534 4219 1204 4116 
Q 875 4013 500 3803 
L 500 4441 
Q 881 4594 1212 4672 
Q 1544 4750 1819 4750 
Q 2544 4750 2975 4387 
Q 3406 4025 3406 3419 
Q 3406 3131 3298 2873 
Q 3191 2616 2906 2266 
Q 2828 2175 2409 1742 
Q 1991 1309 1228 531 
z
" transform="scale(0.015625)"/>
       </defs>
       <use xlink:href="#DejaVuSans-32"/>
       <use xlink:href="#DejaVuSans-30" x="63.623047"/>
       <use xlink:href="#DejaVuSans-30" x="127.246094"/>
       <use xlink:href="#DejaVuSans-30" x="190.869141"/>
       <use xlink:href="#DejaVuSans-30" x="254.492188"/>
      </g>
     </g>
    </g>
    <g id="xtick_3">
     <g id="line2d_5">
      <path d="M 434.117731 573.3024 
L 434.117731 77.2992 
" clip-path="url(#pac867014c4)" style="fill: none; stroke: #b0b0b0; stroke-width: 0.8; stroke-linecap: square"/>
     </g>
     <g id="line2d_6">
      <g>
       <use xlink:href="#mc98356477c" x="434.117731" y="573.3024" style="stroke: #000000; stroke-width: 0.8"/>
      </g>
     </g>
     <g id="text_3">
      <!-- 40000 -->
      <g transform="translate(402.305231 595.499275) scale(0.2 -0.2)">
       <defs>
        <path id="DejaVuSans-34" d="M 2419 4116 
L 825 1625 
L 2419 1625 
L 2419 4116 
z
M 2253 4666 
L 3047 4666 
L 3047 1625 
L 3713 1625 
L 3713 1100 
L 3047 1100 
L 3047 0 
L 2419 0 
L 2419 1100 
L 313 1100 
L 313 1709 
L 2253 4666 
z
" transform="scale(0.015625)"/>
       </defs>
       <use xlink:href="#DejaVuSans-34"/>
       <use xlink:href="#DejaVuSans-30" x="63.623047"/>
       <use xlink:href="#DejaVuSans-30" x="127.246094"/>
       <use xlink:href="#DejaVuSans-30" x="190.869141"/>
       <use xlink:href="#DejaVuSans-30" x="254.492188"/>
      </g>
     </g>
    </g>
    <g id="xtick_4">
     <g id="line2d_7">
      <path d="M 564.423142 573.3024 
L 564.423142 77.2992 
" clip-path="url(#pac867014c4)" style="fill: none; stroke: #b0b0b0; stroke-width: 0.8; stroke-linecap: square"/>
     </g>
     <g id="line2d_8">
      <g>
       <use xlink:href="#mc98356477c" x="564.423142" y="573.3024" style="stroke: #000000; stroke-width: 0.8"/>
      </g>
     </g>
     <g id="text_4">
      <!-- 60000 -->
      <g transform="translate(532.610642 595.499275) scale(0.2 -0.2)">
       <defs>
        <path id="DejaVuSans-36" d="M 2113 2584 
Q 1688 2584 1439 2293 
Q 1191 2003 1191 1497 
Q 1191 994 1439 701 
Q 1688 409 2113 409 
Q 2538 409 2786 701 
Q 3034 994 3034 1497 
Q 3034 2003 2786 2293 
Q 2538 2584 2113 2584 
z
M 3366 4563 
L 3366 3988 
Q 3128 4100 2886 4159 
Q 2644 4219 2406 4219 
Q 1781 4219 1451 3797 
Q 1122 3375 1075 2522 
Q 1259 2794 1537 2939 
Q 1816 3084 2150 3084 
Q 2853 3084 3261 2657 
Q 3669 2231 3669 1497 
Q 3669 778 3244 343 
Q 2819 -91 2113 -91 
Q 1303 -91 875 529 
Q 447 1150 447 2328 
Q 447 3434 972 4092 
Q 1497 4750 2381 4750 
Q 2619 4750 2861 4703 
Q 3103 4656 3366 4563 
z
" transform="scale(0.015625)"/>
       </defs>
       <use xlink:href="#DejaVuSans-36"/>
       <use xlink:href="#DejaVuSans-30" x="63.623047"/>
       <use xlink:href="#DejaVuSans-30" x="127.246094"/>
       <use xlink:href="#DejaVuSans-30" x="190.869141"/>
       <use xlink:href="#DejaVuSans-30" x="254.492188"/>
      </g>
     </g>
    </g>
    <g id="xtick_5">
     <g id="line2d_9">
      <path d="M 694.728553 573.3024 
L 694.728553 77.2992 
" clip-path="url(#pac867014c4)" style="fill: none; stroke: #b0b0b0; stroke-width: 0.8; stroke-linecap: square"/>
     </g>
     <g id="line2d_10">
      <g>
       <use xlink:href="#mc98356477c" x="694.728553" y="573.3024" style="stroke: #000000; stroke-width: 0.8"/>
      </g>
     </g>
     <g id="text_5">
      <!-- 80000 -->
      <g transform="translate(662.916053 595.499275) scale(0.2 -0.2)">
       <defs>
        <path id="DejaVuSans-38" d="M 2034 2216 
Q 1584 2216 1326 1975 
Q 1069 1734 1069 1313 
Q 1069 891 1326 650 
Q 1584 409 2034 409 
Q 2484 409 2743 651 
Q 3003 894 3003 1313 
Q 3003 1734 2745 1975 
Q 2488 2216 2034 2216 
z
M 1403 2484 
Q 997 2584 770 2862 
Q 544 3141 544 3541 
Q 544 4100 942 4425 
Q 1341 4750 2034 4750 
Q 2731 4750 3128 4425 
Q 3525 4100 3525 3541 
Q 3525 3141 3298 2862 
Q 3072 2584 2669 2484 
Q 3125 2378 3379 2068 
Q 3634 1759 3634 1313 
Q 3634 634 3220 271 
Q 2806 -91 2034 -91 
Q 1263 -91 848 271 
Q 434 634 434 1313 
Q 434 1759 690 2068 
Q 947 2378 1403 2484 
z
M 1172 3481 
Q 1172 3119 1398 2916 
Q 1625 2713 2034 2713 
Q 2441 2713 2670 2916 
Q 2900 3119 2900 3481 
Q 2900 3844 2670 4047 
Q 2441 4250 2034 4250 
Q 1625 4250 1398 4047 
Q 1172 3844 1172 3481 
z
" transform="scale(0.015625)"/>
       </defs>
       <use xlink:href="#DejaVuSans-38"/>
       <use xlink:href="#DejaVuSans-30" x="63.623047"/>
       <use xlink:href="#DejaVuSans-30" x="127.246094"/>
       <use xlink:href="#DejaVuSans-30" x="190.869141"/>
       <use xlink:href="#DejaVuSans-30" x="254.492188"/>
      </g>
     </g>
    </g>
    <g id="xtick_6">
     <g id="line2d_11">
      <path d="M 825.033964 573.3024 
L 825.033964 77.2992 
" clip-path="url(#pac867014c4)" style="fill: none; stroke: #b0b0b0; stroke-width: 0.8; stroke-linecap: square"/>
     </g>
     <g id="line2d_12">
      <g>
       <use xlink:href="#mc98356477c" x="825.033964" y="573.3024" style="stroke: #000000; stroke-width: 0.8"/>
      </g>
     </g>
     <g id="text_6">
      <!-- 100000 -->
      <g transform="translate(786.858964 595.499275) scale(0.2 -0.2)">
       <defs>
        <path id="DejaVuSans-31" d="M 794 531 
L 1825 531 
L 1825 4091 
L 703 3866 
L 703 4441 
L 1819 4666 
L 2450 4666 
L 2450 531 
L 3481 531 
L 3481 0 
L 794 0 
L 794 531 
z
" transform="scale(0.015625)"/>
       </defs>
       <use xlink:href="#DejaVuSans-31"/>
       <use xlink:href="#DejaVuSans-30" x="63.623047"/>
       <use xlink:href="#DejaVuSans-30" x="127.246094"/>
       <use xlink:href="#DejaVuSans-30" x="190.869141"/>
       <use xlink:href="#DejaVuSans-30" x="254.492188"/>
       <use xlink:href="#DejaVuSans-30" x="318.115234"/>
      </g>
     </g>
    </g>
    <g id="xtick_7">
     <g id="line2d_13">
      <path d="M 955.339376 573.3024 
L 955.339376 77.2992 
" clip-path="url(#pac867014c4)" style="fill: none; stroke: #b0b0b0; stroke-width: 0.8; stroke-linecap: square"/>
     </g>
     <g id="line2d_14">
      <g>
       <use xlink:href="#mc98356477c" x="955.339376" y="573.3024" style="stroke: #000000; stroke-width: 0.8"/>
      </g>
     </g>
     <g id="text_7">
      <!-- 120000 -->
      <g transform="translate(917.164376 595.499275) scale(0.2 -0.2)">
       <use xlink:href="#DejaVuSans-31"/>
       <use xlink:href="#DejaVuSans-32" x="63.623047"/>
       <use xlink:href="#DejaVuSans-30" x="127.246094"/>
       <use xlink:href="#DejaVuSans-30" x="190.869141"/>
       <use xlink:href="#DejaVuSans-30" x="254.492188"/>
       <use xlink:href="#DejaVuSans-30" x="318.115234"/>
      </g>
     </g>
    </g>
    <g id="text_8">
     <!-- Number of Training Examples Seen -->
     <g transform="translate(379.4135 618.855525) scale(0.2 -0.2)">
      <defs>
       <path id="DejaVuSans-4e" d="M 628 4666 
L 1478 4666 
L 3547 763 
L 3547 4666 
L 4159 4666 
L 4159 0 
L 3309 0 
L 1241 3903 
L 1241 0 
L 628 0 
L 628 4666 
z
" transform="scale(0.015625)"/>
       <path id="DejaVuSans-75" d="M 544 1381 
L 544 3500 
L 1119 3500 
L 1119 1403 
Q 1119 906 1312 657 
Q 1506 409 1894 409 
Q 2359 409 2629 706 
Q 2900 1003 2900 1516 
L 2900 3500 
L 3475 3500 
L 3475 0 
L 2900 0 
L 2900 538 
Q 2691 219 2414 64 
Q 2138 -91 1772 -91 
Q 1169 -91 856 284 
Q 544 659 544 1381 
z
M 1991 3584 
L 1991 3584 
z
" transform="scale(0.015625)"/>
       <path id="DejaVuSans-6d" d="M 3328 2828 
Q 3544 3216 3844 3400 
Q 4144 3584 4550 3584 
Q 5097 3584 5394 3201 
Q 5691 2819 5691 2113 
L 5691 0 
L 5113 0 
L 5113 2094 
Q 5113 2597 4934 2840 
Q 4756 3084 4391 3084 
Q 3944 3084 3684 2787 
Q 3425 2491 3425 1978 
L 3425 0 
L 2847 0 
L 2847 2094 
Q 2847 2600 2669 2842 
Q 2491 3084 2119 3084 
Q 1678 3084 1418 2786 
Q 1159 2488 1159 1978 
L 1159 0 
L 581 0 
L 581 3500 
L 1159 3500 
L 1159 2956 
Q 1356 3278 1631 3431 
Q 1906 3584 2284 3584 
Q 2666 3584 2933 3390 
Q 3200 3197 3328 2828 
z
" transform="scale(0.015625)"/>
       <path id="DejaVuSans-62" d="M 3116 1747 
Q 3116 2381 2855 2742 
Q 2594 3103 2138 3103 
Q 1681 3103 1420 2742 
Q 1159 2381 1159 1747 
Q 1159 1113 1420 752 
Q 1681 391 2138 391 
Q 2594 391 2855 752 
Q 3116 1113 3116 1747 
z
M 1159 2969 
Q 1341 3281 1617 3432 
Q 1894 3584 2278 3584 
Q 2916 3584 3314 3078 
Q 3713 2572 3713 1747 
Q 3713 922 3314 415 
Q 2916 -91 2278 -91 
Q 1894 -91 1617 61 
Q 1341 213 1159 525 
L 1159 0 
L 581 0 
L 581 4863 
L 1159 4863 
L 1159 2969 
z
" transform="scale(0.015625)"/>
       <path id="DejaVuSans-65" d="M 3597 1894 
L 3597 1613 
L 953 1613 
Q 991 1019 1311 708 
Q 1631 397 2203 397 
Q 2534 397 2845 478 
Q 3156 559 3463 722 
L 3463 178 
Q 3153 47 2828 -22 
Q 2503 -91 2169 -91 
Q 1331 -91 842 396 
Q 353 884 353 1716 
Q 353 2575 817 3079 
Q 1281 3584 2069 3584 
Q 2775 3584 3186 3129 
Q 3597 2675 3597 1894 
z
M 3022 2063 
Q 3016 2534 2758 2815 
Q 2500 3097 2075 3097 
Q 1594 3097 1305 2825 
Q 1016 2553 972 2059 
L 3022 2063 
z
" transform="scale(0.015625)"/>
       <path id="DejaVuSans-72" d="M 2631 2963 
Q 2534 3019 2420 3045 
Q 2306 3072 2169 3072 
Q 1681 3072 1420 2755 
Q 1159 2438 1159 1844 
L 1159 0 
L 581 0 
L 581 3500 
L 1159 3500 
L 1159 2956 
Q 1341 3275 1631 3429 
Q 1922 3584 2338 3584 
Q 2397 3584 2469 3576 
Q 2541 3569 2628 3553 
L 2631 2963 
z
" transform="scale(0.015625)"/>
       <path id="DejaVuSans-20" transform="scale(0.015625)"/>
       <path id="DejaVuSans-6f" d="M 1959 3097 
Q 1497 3097 1228 2736 
Q 959 2375 959 1747 
Q 959 1119 1226 758 
Q 1494 397 1959 397 
Q 2419 397 2687 759 
Q 2956 1122 2956 1747 
Q 2956 2369 2687 2733 
Q 2419 3097 1959 3097 
z
M 1959 3584 
Q 2709 3584 3137 3096 
Q 3566 2609 3566 1747 
Q 3566 888 3137 398 
Q 2709 -91 1959 -91 
Q 1206 -91 779 398 
Q 353 888 353 1747 
Q 353 2609 779 3096 
Q 1206 3584 1959 3584 
z
" transform="scale(0.015625)"/>
       <path id="DejaVuSans-66" d="M 2375 4863 
L 2375 4384 
L 1825 4384 
Q 1516 4384 1395 4259 
Q 1275 4134 1275 3809 
L 1275 3500 
L 2222 3500 
L 2222 3053 
L 1275 3053 
L 1275 0 
L 697 0 
L 697 3053 
L 147 3053 
L 147 3500 
L 697 3500 
L 697 3744 
Q 697 4328 969 4595 
Q 1241 4863 1831 4863 
L 2375 4863 
z
" transform="scale(0.015625)"/>
       <path id="DejaVuSans-54" d="M -19 4666 
L 3928 4666 
L 3928 4134 
L 2272 4134 
L 2272 0 
L 1638 0 
L 1638 4134 
L -19 4134 
L -19 4666 
z
" transform="scale(0.015625)"/>
       <path id="DejaVuSans-61" d="M 2194 1759 
Q 1497 1759 1228 1600 
Q 959 1441 959 1056 
Q 959 750 1161 570 
Q 1363 391 1709 391 
Q 2188 391 2477 730 
Q 2766 1069 2766 1631 
L 2766 1759 
L 2194 1759 
z
M 3341 1997 
L 3341 0 
L 2766 0 
L 2766 531 
Q 2569 213 2275 61 
Q 1981 -91 1556 -91 
Q 1019 -91 701 211 
Q 384 513 384 1019 
Q 384 1609 779 1909 
Q 1175 2209 1959 2209 
L 2766 2209 
L 2766 2266 
Q 2766 2663 2505 2880 
Q 2244 3097 1772 3097 
Q 1472 3097 1187 3025 
Q 903 2953 641 2809 
L 641 3341 
Q 956 3463 1253 3523 
Q 1550 3584 1831 3584 
Q 2591 3584 2966 3190 
Q 3341 2797 3341 1997 
z
" transform="scale(0.015625)"/>
       <path id="DejaVuSans-69" d="M 603 3500 
L 1178 3500 
L 1178 0 
L 603 0 
L 603 3500 
z
M 603 4863 
L 1178 4863 
L 1178 4134 
L 603 4134 
L 603 4863 
z
" transform="scale(0.015625)"/>
       <path id="DejaVuSans-6e" d="M 3513 2113 
L 3513 0 
L 2938 0 
L 2938 2094 
Q 2938 2591 2744 2837 
Q 2550 3084 2163 3084 
Q 1697 3084 1428 2787 
Q 1159 2491 1159 1978 
L 1159 0 
L 581 0 
L 581 3500 
L 1159 3500 
L 1159 2956 
Q 1366 3272 1645 3428 
Q 1925 3584 2291 3584 
Q 2894 3584 3203 3211 
Q 3513 2838 3513 2113 
z
" transform="scale(0.015625)"/>
       <path id="DejaVuSans-67" d="M 2906 1791 
Q 2906 2416 2648 2759 
Q 2391 3103 1925 3103 
Q 1463 3103 1205 2759 
Q 947 2416 947 1791 
Q 947 1169 1205 825 
Q 1463 481 1925 481 
Q 2391 481 2648 825 
Q 2906 1169 2906 1791 
z
M 3481 434 
Q 3481 -459 3084 -895 
Q 2688 -1331 1869 -1331 
Q 1566 -1331 1297 -1286 
Q 1028 -1241 775 -1147 
L 775 -588 
Q 1028 -725 1275 -790 
Q 1522 -856 1778 -856 
Q 2344 -856 2625 -561 
Q 2906 -266 2906 331 
L 2906 616 
Q 2728 306 2450 153 
Q 2172 0 1784 0 
Q 1141 0 747 490 
Q 353 981 353 1791 
Q 353 2603 747 3093 
Q 1141 3584 1784 3584 
Q 2172 3584 2450 3431 
Q 2728 3278 2906 2969 
L 2906 3500 
L 3481 3500 
L 3481 434 
z
" transform="scale(0.015625)"/>
       <path id="DejaVuSans-45" d="M 628 4666 
L 3578 4666 
L 3578 4134 
L 1259 4134 
L 1259 2753 
L 3481 2753 
L 3481 2222 
L 1259 2222 
L 1259 531 
L 3634 531 
L 3634 0 
L 628 0 
L 628 4666 
z
" transform="scale(0.015625)"/>
       <path id="DejaVuSans-78" d="M 3513 3500 
L 2247 1797 
L 3578 0 
L 2900 0 
L 1881 1375 
L 863 0 
L 184 0 
L 1544 1831 
L 300 3500 
L 978 3500 
L 1906 2253 
L 2834 3500 
L 3513 3500 
z
" transform="scale(0.015625)"/>
       <path id="DejaVuSans-70" d="M 1159 525 
L 1159 -1331 
L 581 -1331 
L 581 3500 
L 1159 3500 
L 1159 2969 
Q 1341 3281 1617 3432 
Q 1894 3584 2278 3584 
Q 2916 3584 3314 3078 
Q 3713 2572 3713 1747 
Q 3713 922 3314 415 
Q 2916 -91 2278 -91 
Q 1894 -91 1617 61 
Q 1341 213 1159 525 
z
M 3116 1747 
Q 3116 2381 2855 2742 
Q 2594 3103 2138 3103 
Q 1681 3103 1420 2742 
Q 1159 2381 1159 1747 
Q 1159 1113 1420 752 
Q 1681 391 2138 391 
Q 2594 391 2855 752 
Q 3116 1113 3116 1747 
z
" transform="scale(0.015625)"/>
       <path id="DejaVuSans-6c" d="M 603 4863 
L 1178 4863 
L 1178 0 
L 603 0 
L 603 4863 
z
" transform="scale(0.015625)"/>
       <path id="DejaVuSans-73" d="M 2834 3397 
L 2834 2853 
Q 2591 2978 2328 3040 
Q 2066 3103 1784 3103 
Q 1356 3103 1142 2972 
Q 928 2841 928 2578 
Q 928 2378 1081 2264 
Q 1234 2150 1697 2047 
L 1894 2003 
Q 2506 1872 2764 1633 
Q 3022 1394 3022 966 
Q 3022 478 2636 193 
Q 2250 -91 1575 -91 
Q 1294 -91 989 -36 
Q 684 19 347 128 
L 347 722 
Q 666 556 975 473 
Q 1284 391 1588 391 
Q 1994 391 2212 530 
Q 2431 669 2431 922 
Q 2431 1156 2273 1281 
Q 2116 1406 1581 1522 
L 1381 1569 
Q 847 1681 609 1914 
Q 372 2147 372 2553 
Q 372 3047 722 3315 
Q 1072 3584 1716 3584 
Q 2034 3584 2315 3537 
Q 2597 3491 2834 3397 
z
" transform="scale(0.015625)"/>
       <path id="DejaVuSans-53" d="M 3425 4513 
L 3425 3897 
Q 3066 4069 2747 4153 
Q 2428 4238 2131 4238 
Q 1616 4238 1336 4038 
Q 1056 3838 1056 3469 
Q 1056 3159 1242 3001 
Q 1428 2844 1947 2747 
L 2328 2669 
Q 3034 2534 3370 2195 
Q 3706 1856 3706 1288 
Q 3706 609 3251 259 
Q 2797 -91 1919 -91 
Q 1588 -91 1214 -16 
Q 841 59 441 206 
L 441 856 
Q 825 641 1194 531 
Q 1563 422 1919 422 
Q 2459 422 2753 634 
Q 3047 847 3047 1241 
Q 3047 1584 2836 1778 
Q 2625 1972 2144 2069 
L 1759 2144 
Q 1053 2284 737 2584 
Q 422 2884 422 3419 
Q 422 4038 858 4394 
Q 1294 4750 2059 4750 
Q 2388 4750 2728 4690 
Q 3069 4631 3425 4513 
z
" transform="scale(0.015625)"/>
      </defs>
      <use xlink:href="#DejaVuSans-4e"/>
      <use xlink:href="#DejaVuSans-75" x="74.804688"/>
      <use xlink:href="#DejaVuSans-6d" x="138.183594"/>
      <use xlink:href="#DejaVuSans-62" x="235.595703"/>
      <use xlink:href="#DejaVuSans-65" x="299.072266"/>
      <use xlink:href="#DejaVuSans-72" x="360.595703"/>
      <use xlink:href="#DejaVuSans-20" x="401.708984"/>
      <use xlink:href="#DejaVuSans-6f" x="433.496094"/>
      <use xlink:href="#DejaVuSans-66" x="494.677734"/>
      <use xlink:href="#DejaVuSans-20" x="529.882812"/>
      <use xlink:href="#DejaVuSans-54" x="561.669922"/>
      <use xlink:href="#DejaVuSans-72" x="608.003906"/>
      <use xlink:href="#DejaVuSans-61" x="649.117188"/>
      <use xlink:href="#DejaVuSans-69" x="710.396484"/>
      <use xlink:href="#DejaVuSans-6e" x="738.179688"/>
      <use xlink:href="#DejaVuSans-69" x="801.558594"/>
      <use xlink:href="#DejaVuSans-6e" x="829.341797"/>
      <use xlink:href="#DejaVuSans-67" x="892.720703"/>
      <use xlink:href="#DejaVuSans-20" x="956.197266"/>
      <use xlink:href="#DejaVuSans-45" x="987.984375"/>
      <use xlink:href="#DejaVuSans-78" x="1051.167969"/>
      <use xlink:href="#DejaVuSans-61" x="1110.347656"/>
      <use xlink:href="#DejaVuSans-6d" x="1171.626953"/>
      <use xlink:href="#DejaVuSans-70" x="1269.039062"/>
      <use xlink:href="#DejaVuSans-6c" x="1332.515625"/>
      <use xlink:href="#DejaVuSans-65" x="1360.298828"/>
      <use xlink:href="#DejaVuSans-73" x="1421.822266"/>
      <use xlink:href="#DejaVuSans-20" x="1473.921875"/>
      <use xlink:href="#DejaVuSans-53" x="1505.708984"/>
      <use xlink:href="#DejaVuSans-65" x="1569.185547"/>
      <use xlink:href="#DejaVuSans-65" x="1630.708984"/>
      <use xlink:href="#DejaVuSans-6e" x="1692.232422"/>
     </g>
    </g>
   </g>
   <g id="matplotlib.axis_2">
    <g id="ytick_1">
     <g id="line2d_15">
      <path d="M 135.36 573.3024 
L 974.592 573.3024 
" clip-path="url(#pac867014c4)" style="fill: none; stroke: #b0b0b0; stroke-width: 0.8; stroke-linecap: square"/>
     </g>
     <g id="line2d_16">
      <defs>
       <path id="mcc4a51f34c" d="M 0 0 
L -3.5 0 
" style="stroke: #000000; stroke-width: 0.8"/>
      </defs>
      <g>
       <use xlink:href="#mcc4a51f34c" x="135.36" y="573.3024" style="stroke: #000000; stroke-width: 0.8"/>
      </g>
     </g>
     <g id="text_9">
      <!-- 0.00 -->
      <g transform="translate(83.82875 580.900838) scale(0.2 -0.2)">
       <defs>
        <path id="DejaVuSans-2e" d="M 684 794 
L 1344 794 
L 1344 0 
L 684 0 
L 684 794 
z
" transform="scale(0.015625)"/>
       </defs>
       <use xlink:href="#DejaVuSans-30"/>
       <use xlink:href="#DejaVuSans-2e" x="63.623047"/>
       <use xlink:href="#DejaVuSans-30" x="95.410156"/>
       <use xlink:href="#DejaVuSans-30" x="159.033203"/>
      </g>
     </g>
    </g>
    <g id="ytick_2">
     <g id="line2d_17">
      <path d="M 135.36 511.302 
L 974.592 511.302 
" clip-path="url(#pac867014c4)" style="fill: none; stroke: #b0b0b0; stroke-width: 0.8; stroke-linecap: square"/>
     </g>
     <g id="line2d_18">
      <g>
       <use xlink:href="#mcc4a51f34c" x="135.36" y="511.302" style="stroke: #000000; stroke-width: 0.8"/>
      </g>
     </g>
     <g id="text_10">
      <!-- 0.25 -->
      <g transform="translate(83.82875 518.900438) scale(0.2 -0.2)">
       <defs>
        <path id="DejaVuSans-35" d="M 691 4666 
L 3169 4666 
L 3169 4134 
L 1269 4134 
L 1269 2991 
Q 1406 3038 1543 3061 
Q 1681 3084 1819 3084 
Q 2600 3084 3056 2656 
Q 3513 2228 3513 1497 
Q 3513 744 3044 326 
Q 2575 -91 1722 -91 
Q 1428 -91 1123 -41 
Q 819 9 494 109 
L 494 744 
Q 775 591 1075 516 
Q 1375 441 1709 441 
Q 2250 441 2565 725 
Q 2881 1009 2881 1497 
Q 2881 1984 2565 2268 
Q 2250 2553 1709 2553 
Q 1456 2553 1204 2497 
Q 953 2441 691 2322 
L 691 4666 
z
" transform="scale(0.015625)"/>
       </defs>
       <use xlink:href="#DejaVuSans-30"/>
       <use xlink:href="#DejaVuSans-2e" x="63.623047"/>
       <use xlink:href="#DejaVuSans-32" x="95.410156"/>
       <use xlink:href="#DejaVuSans-35" x="159.033203"/>
      </g>
     </g>
    </g>
    <g id="ytick_3">
     <g id="line2d_19">
      <path d="M 135.36 449.3016 
L 974.592 449.3016 
" clip-path="url(#pac867014c4)" style="fill: none; stroke: #b0b0b0; stroke-width: 0.8; stroke-linecap: square"/>
     </g>
     <g id="line2d_20">
      <g>
       <use xlink:href="#mcc4a51f34c" x="135.36" y="449.3016" style="stroke: #000000; stroke-width: 0.8"/>
      </g>
     </g>
     <g id="text_11">
      <!-- 0.50 -->
      <g transform="translate(83.82875 456.900038) scale(0.2 -0.2)">
       <use xlink:href="#DejaVuSans-30"/>
       <use xlink:href="#DejaVuSans-2e" x="63.623047"/>
       <use xlink:href="#DejaVuSans-35" x="95.410156"/>
       <use xlink:href="#DejaVuSans-30" x="159.033203"/>
      </g>
     </g>
    </g>
    <g id="ytick_4">
     <g id="line2d_21">
      <path d="M 135.36 387.3012 
L 974.592 387.3012 
" clip-path="url(#pac867014c4)" style="fill: none; stroke: #b0b0b0; stroke-width: 0.8; stroke-linecap: square"/>
     </g>
     <g id="line2d_22">
      <g>
       <use xlink:href="#mcc4a51f34c" x="135.36" y="387.3012" style="stroke: #000000; stroke-width: 0.8"/>
      </g>
     </g>
     <g id="text_12">
      <!-- 0.75 -->
      <g transform="translate(83.82875 394.899638) scale(0.2 -0.2)">
       <defs>
        <path id="DejaVuSans-37" d="M 525 4666 
L 3525 4666 
L 3525 4397 
L 1831 0 
L 1172 0 
L 2766 4134 
L 525 4134 
L 525 4666 
z
" transform="scale(0.015625)"/>
       </defs>
       <use xlink:href="#DejaVuSans-30"/>
       <use xlink:href="#DejaVuSans-2e" x="63.623047"/>
       <use xlink:href="#DejaVuSans-37" x="95.410156"/>
       <use xlink:href="#DejaVuSans-35" x="159.033203"/>
      </g>
     </g>
    </g>
    <g id="ytick_5">
     <g id="line2d_23">
      <path d="M 135.36 325.3008 
L 974.592 325.3008 
" clip-path="url(#pac867014c4)" style="fill: none; stroke: #b0b0b0; stroke-width: 0.8; stroke-linecap: square"/>
     </g>
     <g id="line2d_24">
      <g>
       <use xlink:href="#mcc4a51f34c" x="135.36" y="325.3008" style="stroke: #000000; stroke-width: 0.8"/>
      </g>
     </g>
     <g id="text_13">
      <!-- 1.00 -->
      <g transform="translate(83.82875 332.899238) scale(0.2 -0.2)">
       <use xlink:href="#DejaVuSans-31"/>
       <use xlink:href="#DejaVuSans-2e" x="63.623047"/>
       <use xlink:href="#DejaVuSans-30" x="95.410156"/>
       <use xlink:href="#DejaVuSans-30" x="159.033203"/>
      </g>
     </g>
    </g>
    <g id="ytick_6">
     <g id="line2d_25">
      <path d="M 135.36 263.3004 
L 974.592 263.3004 
" clip-path="url(#pac867014c4)" style="fill: none; stroke: #b0b0b0; stroke-width: 0.8; stroke-linecap: square"/>
     </g>
     <g id="line2d_26">
      <g>
       <use xlink:href="#mcc4a51f34c" x="135.36" y="263.3004" style="stroke: #000000; stroke-width: 0.8"/>
      </g>
     </g>
     <g id="text_14">
      <!-- 1.25 -->
      <g transform="translate(83.82875 270.898838) scale(0.2 -0.2)">
       <use xlink:href="#DejaVuSans-31"/>
       <use xlink:href="#DejaVuSans-2e" x="63.623047"/>
       <use xlink:href="#DejaVuSans-32" x="95.410156"/>
       <use xlink:href="#DejaVuSans-35" x="159.033203"/>
      </g>
     </g>
    </g>
    <g id="ytick_7">
     <g id="line2d_27">
      <path d="M 135.36 201.3 
L 974.592 201.3 
" clip-path="url(#pac867014c4)" style="fill: none; stroke: #b0b0b0; stroke-width: 0.8; stroke-linecap: square"/>
     </g>
     <g id="line2d_28">
      <g>
       <use xlink:href="#mcc4a51f34c" x="135.36" y="201.3" style="stroke: #000000; stroke-width: 0.8"/>
      </g>
     </g>
     <g id="text_15">
      <!-- 1.50 -->
      <g transform="translate(83.82875 208.898438) scale(0.2 -0.2)">
       <use xlink:href="#DejaVuSans-31"/>
       <use xlink:href="#DejaVuSans-2e" x="63.623047"/>
       <use xlink:href="#DejaVuSans-35" x="95.410156"/>
       <use xlink:href="#DejaVuSans-30" x="159.033203"/>
      </g>
     </g>
    </g>
    <g id="ytick_8">
     <g id="line2d_29">
      <path d="M 135.36 139.2996 
L 974.592 139.2996 
" clip-path="url(#pac867014c4)" style="fill: none; stroke: #b0b0b0; stroke-width: 0.8; stroke-linecap: square"/>
     </g>
     <g id="line2d_30">
      <g>
       <use xlink:href="#mcc4a51f34c" x="135.36" y="139.2996" style="stroke: #000000; stroke-width: 0.8"/>
      </g>
     </g>
     <g id="text_16">
      <!-- 1.75 -->
      <g transform="translate(83.82875 146.898038) scale(0.2 -0.2)">
       <use xlink:href="#DejaVuSans-31"/>
       <use xlink:href="#DejaVuSans-2e" x="63.623047"/>
       <use xlink:href="#DejaVuSans-37" x="95.410156"/>
       <use xlink:href="#DejaVuSans-35" x="159.033203"/>
      </g>
     </g>
    </g>
    <g id="ytick_9">
     <g id="line2d_31">
      <path d="M 135.36 77.2992 
L 974.592 77.2992 
" clip-path="url(#pac867014c4)" style="fill: none; stroke: #b0b0b0; stroke-width: 0.8; stroke-linecap: square"/>
     </g>
     <g id="line2d_32">
      <g>
       <use xlink:href="#mcc4a51f34c" x="135.36" y="77.2992" style="stroke: #000000; stroke-width: 0.8"/>
      </g>
     </g>
     <g id="text_17">
      <!-- 2.00 -->
      <g transform="translate(83.82875 84.897638) scale(0.2 -0.2)">
       <use xlink:href="#DejaVuSans-32"/>
       <use xlink:href="#DejaVuSans-2e" x="63.623047"/>
       <use xlink:href="#DejaVuSans-30" x="95.410156"/>
       <use xlink:href="#DejaVuSans-30" x="159.033203"/>
      </g>
     </g>
    </g>
    <g id="text_18">
     <!-- Cross Entropy Loss -->
     <g transform="translate(75.669375 419.846113) rotate(-90) scale(0.2 -0.2)">
      <defs>
       <path id="DejaVuSans-43" d="M 4122 4306 
L 4122 3641 
Q 3803 3938 3442 4084 
Q 3081 4231 2675 4231 
Q 1875 4231 1450 3742 
Q 1025 3253 1025 2328 
Q 1025 1406 1450 917 
Q 1875 428 2675 428 
Q 3081 428 3442 575 
Q 3803 722 4122 1019 
L 4122 359 
Q 3791 134 3420 21 
Q 3050 -91 2638 -91 
Q 1578 -91 968 557 
Q 359 1206 359 2328 
Q 359 3453 968 4101 
Q 1578 4750 2638 4750 
Q 3056 4750 3426 4639 
Q 3797 4528 4122 4306 
z
" transform="scale(0.015625)"/>
       <path id="DejaVuSans-74" d="M 1172 4494 
L 1172 3500 
L 2356 3500 
L 2356 3053 
L 1172 3053 
L 1172 1153 
Q 1172 725 1289 603 
Q 1406 481 1766 481 
L 2356 481 
L 2356 0 
L 1766 0 
Q 1100 0 847 248 
Q 594 497 594 1153 
L 594 3053 
L 172 3053 
L 172 3500 
L 594 3500 
L 594 4494 
L 1172 4494 
z
" transform="scale(0.015625)"/>
       <path id="DejaVuSans-79" d="M 2059 -325 
Q 1816 -950 1584 -1140 
Q 1353 -1331 966 -1331 
L 506 -1331 
L 506 -850 
L 844 -850 
Q 1081 -850 1212 -737 
Q 1344 -625 1503 -206 
L 1606 56 
L 191 3500 
L 800 3500 
L 1894 763 
L 2988 3500 
L 3597 3500 
L 2059 -325 
z
" transform="scale(0.015625)"/>
       <path id="DejaVuSans-4c" d="M 628 4666 
L 1259 4666 
L 1259 531 
L 3531 531 
L 3531 0 
L 628 0 
L 628 4666 
z
" transform="scale(0.015625)"/>
      </defs>
      <use xlink:href="#DejaVuSans-43"/>
      <use xlink:href="#DejaVuSans-72" x="69.824219"/>
      <use xlink:href="#DejaVuSans-6f" x="108.6875"/>
      <use xlink:href="#DejaVuSans-73" x="169.869141"/>
      <use xlink:href="#DejaVuSans-73" x="221.96875"/>
      <use xlink:href="#DejaVuSans-20" x="274.068359"/>
      <use xlink:href="#DejaVuSans-45" x="305.855469"/>
      <use xlink:href="#DejaVuSans-6e" x="369.039062"/>
      <use xlink:href="#DejaVuSans-74" x="432.417969"/>
      <use xlink:href="#DejaVuSans-72" x="471.626953"/>
      <use xlink:href="#DejaVuSans-6f" x="510.490234"/>
      <use xlink:href="#DejaVuSans-70" x="571.671875"/>
      <use xlink:href="#DejaVuSans-79" x="635.148438"/>
      <use xlink:href="#DejaVuSans-20" x="694.328125"/>
      <use xlink:href="#DejaVuSans-4c" x="726.115234"/>
      <use xlink:href="#DejaVuSans-6f" x="780.078125"/>
      <use xlink:href="#DejaVuSans-73" x="841.259766"/>
      <use xlink:href="#DejaVuSans-73" x="893.359375"/>
     </g>
    </g>
   </g>
   <g id="line2d_33">
    <path d="M 173.506909 297.428954 
L 173.923886 282.011663 
L 174.340864 278.620366 
L 174.757841 296.029686 
L 175.174818 295.982147 
L 175.591796 286.818578 
L 176.008773 315.54391 
L 176.42575 305.320202 
L 176.842728 311.218624 
L 177.259705 251.271568 
L 178.09366 286.265138 
L 178.510637 315.69513 
L 178.927614 309.535628 
L 179.344592 316.593051 
L 179.761569 307.450029 
L 180.178546 284.452682 
L 180.595523 338.502203 
L 181.012501 312.566717 
L 181.429478 315.923986 
L 181.846455 280.494079 
L 182.263433 327.854768 
L 182.68041 320.341334 
L 183.097387 322.160354 
L 183.514365 328.573471 
L 183.931342 326.554554 
L 184.765297 332.368141 
L 185.182274 332.193476 
L 185.599251 312.62076 
L 186.016229 334.538752 
L 186.433206 335.004638 
L 186.850183 296.95383 
L 187.26716 329.196919 
L 187.684138 311.042717 
L 188.101115 340.296832 
L 188.518092 344.622636 
L 188.93507 344.039292 
L 189.352047 346.380236 
L 189.769024 337.246852 
L 190.186002 321.135485 
L 190.602979 343.62671 
L 191.019956 329.719065 
L 191.436934 340.419937 
L 191.853911 370.78819 
L 192.270888 350.056117 
L 192.687866 360.84849 
L 193.104843 344.760567 
L 193.52182 318.561635 
L 193.938798 347.928448 
L 194.355775 356.693537 
L 194.772752 355.535911 
L 195.189729 378.531662 
L 195.606707 358.463761 
L 196.023684 352.787485 
L 196.440661 335.186353 
L 197.274616 363.185458 
L 197.691593 346.715759 
L 198.108571 344.395051 
L 198.525548 356.246824 
L 198.942525 301.201747 
L 199.359503 371.944737 
L 199.77648 354.273849 
L 200.193457 366.609719 
L 200.610435 362.664302 
L 201.027412 326.501339 
L 201.444389 353.580985 
L 201.861367 372.668865 
L 202.278344 367.457839 
L 202.695321 371.130261 
L 203.112298 363.939327 
L 203.529276 350.357361 
L 203.946253 300.801597 
L 204.024436 346.874518 
L 204.441414 360.414829 
L 204.858391 341.24989 
L 205.275368 362.350154 
L 205.692346 397.10115 
L 206.109323 339.206228 
L 206.5263 396.825746 
L 206.943278 378.410685 
L 207.360255 376.753219 
L 207.777232 399.428805 
L 208.19421 325.231709 
L 208.611187 314.559632 
L 209.445141 348.363676 
L 209.862119 404.320096 
L 210.279096 371.979711 
L 210.696073 393.863291 
L 211.113051 360.912467 
L 211.530028 356.157747 
L 211.947005 372.34434 
L 212.363983 372.314067 
L 212.78096 383.194274 
L 213.197937 363.601705 
L 213.614915 369.032585 
L 214.031892 392.492625 
L 214.448869 371.898854 
L 214.865847 374.172229 
L 215.282824 313.154333 
L 215.699801 350.730696 
L 216.116779 370.220737 
L 216.533756 399.671704 
L 216.950733 362.394603 
L 217.36771 355.000712 
L 217.784688 357.130953 
L 218.618642 374.339991 
L 219.03562 370.809003 
L 219.452597 373.904245 
L 219.869574 375.810361 
L 220.286552 385.717496 
L 220.703529 358.217788 
L 221.120506 357.056747 
L 221.537484 379.925786 
L 221.954461 352.801439 
L 222.371438 380.100362 
L 222.788416 378.614959 
L 223.205393 373.790069 
L 223.62237 370.877592 
L 224.039348 398.208459 
L 225.290279 354.659971 
L 225.707257 383.527062 
L 226.124234 343.839823 
L 226.541211 374.975648 
L 226.958189 378.497205 
L 227.375166 407.58715 
L 227.792143 365.260192 
L 228.209121 367.935861 
L 228.626098 307.341884 
L 229.043075 373.442617 
L 229.460053 405.413746 
L 229.87703 354.431174 
L 230.294007 335.895167 
L 230.710985 384.104346 
L 231.127962 406.093735 
L 231.544939 399.570403 
L 231.961916 379.946644 
L 232.378894 414.280225 
L 232.795871 373.417473 
L 233.212848 401.591582 
L 233.629826 390.159664 
L 234.046803 388.67834 
L 234.46378 449.13137 
L 234.541964 414.986289 
L 234.958941 380.638015 
L 235.375918 381.361123 
L 235.792896 378.264358 
L 236.209873 402.027061 
L 236.62685 398.201969 
L 237.043828 378.498121 
L 237.460805 389.294071 
L 237.877782 383.383987 
L 238.294759 393.411537 
L 238.711737 388.139416 
L 239.128714 374.362356 
L 239.545691 390.52002 
L 239.962669 382.350131 
L 240.379646 448.650362 
L 240.796623 365.088247 
L 241.213601 385.613312 
L 242.047555 391.389899 
L 242.464533 402.872195 
L 242.88151 398.453471 
L 243.298487 399.956613 
L 243.715465 364.071183 
L 244.132442 415.48477 
L 244.549419 385.892116 
L 244.966397 398.554433 
L 245.383374 376.157414 
L 245.800351 422.911122 
L 246.217328 348.907907 
L 246.634306 373.099304 
L 247.051283 425.42784 
L 247.46826 369.812826 
L 247.885238 403.381939 
L 248.302215 459.755567 
L 248.719192 408.809729 
L 249.13617 415.190459 
L 249.553147 399.724239 
L 249.970124 370.46736 
L 250.387102 388.027871 
L 250.804079 390.393235 
L 251.221056 407.365671 
L 251.638034 393.143449 
L 252.471988 387.100149 
L 252.888966 425.736267 
L 253.305943 389.287109 
L 253.72292 388.394214 
L 254.139897 424.469786 
L 254.556875 373.481124 
L 254.973852 383.789266 
L 255.390829 419.694771 
L 256.224784 404.116474 
L 256.641761 375.134939 
L 257.058739 408.942723 
L 257.475716 414.891433 
L 257.892693 397.822293 
L 258.309671 387.37205 
L 258.726648 406.218451 
L 259.143625 431.975843 
L 259.560603 374.212407 
L 259.97758 404.666573 
L 260.394557 411.840921 
L 260.811535 413.603769 
L 261.228512 417.594508 
L 261.645489 380.878356 
L 262.062466 426.917131 
L 262.479444 378.583074 
L 262.896421 423.08425 
L 263.313398 395.498969 
L 263.730376 411.294044 
L 264.147353 385.820763 
L 264.56433 466.372108 
L 264.981308 197.384413 
L 265.059491 359.462363 
L 265.476468 377.163613 
L 265.893446 438.584305 
L 266.310423 391.236979 
L 266.7274 386.814013 
L 267.144377 385.316917 
L 267.561355 396.754157 
L 267.978332 374.974599 
L 268.395309 379.457683 
L 268.812287 400.112534 
L 269.229264 408.463519 
L 269.646241 424.570585 
L 270.063219 402.423811 
L 270.480196 423.308582 
L 270.897173 404.151404 
L 271.314151 407.373993 
L 271.731128 405.69292 
L 272.148105 390.36475 
L 272.565083 427.601008 
L 272.98206 423.944535 
L 273.399037 432.537147 
L 273.816015 362.119302 
L 274.232992 423.659286 
L 274.649969 430.350868 
L 275.066946 373.634443 
L 275.483924 385.404929 
L 275.900901 393.579845 
L 276.317878 395.901425 
L 276.734856 410.847774 
L 277.151833 419.864262 
L 277.56881 402.513139 
L 277.985788 395.668016 
L 278.402765 399.903575 
L 278.819742 409.717406 
L 279.23672 404.342417 
L 279.653697 403.499515 
L 280.070674 415.249469 
L 280.904629 388.716197 
L 281.321606 402.396213 
L 281.738584 384.294886 
L 282.155561 381.399704 
L 282.572538 386.631825 
L 282.989515 378.94448 
L 283.406493 424.123014 
L 283.82347 423.537719 
L 284.240447 417.40209 
L 284.657425 427.655672 
L 285.074402 402.991456 
L 285.491379 417.638381 
L 285.908357 368.996088 
L 286.325334 426.1861 
L 286.742311 419.154457 
L 287.159289 393.341322 
L 287.576266 395.97093 
L 287.993243 425.631522 
L 288.410221 397.498063 
L 288.827198 342.515499 
L 289.244175 433.675335 
L 289.661153 430.479412 
L 290.07813 373.578774 
L 290.495107 430.749185 
L 291.329062 421.055088 
L 291.746039 382.927458 
L 292.163016 423.418974 
L 292.579994 381.228025 
L 292.996971 455.97344 
L 293.413948 423.010044 
L 293.830926 407.963693 
L 294.247903 408.52244 
L 294.66488 430.919119 
L 295.081858 382.578617 
L 295.498835 435.031958 
L 295.577018 358.792603 
L 295.993995 394.111821 
L 296.410973 390.693916 
L 296.82795 423.10861 
L 297.244927 427.107819 
L 298.078882 410.51645 
L 298.495859 420.691613 
L 298.912837 398.413545 
L 299.329814 432.830127 
L 299.746791 402.803783 
L 300.163769 413.896468 
L 300.580746 428.39473 
L 300.997723 407.28777 
L 301.414701 414.148044 
L 301.831678 401.959965 
L 302.248655 356.047074 
L 302.665633 397.821169 
L 303.08261 419.249343 
L 303.499587 380.247044 
L 303.916564 414.900687 
L 304.750519 438.256839 
L 305.167496 413.414485 
L 305.584474 438.971876 
L 306.001451 382.093307 
L 306.418428 394.190935 
L 306.835406 425.919964 
L 307.252383 368.401111 
L 307.66936 408.969627 
L 308.086338 436.014624 
L 308.503315 409.027114 
L 308.920292 444.180774 
L 309.33727 440.609076 
L 309.754247 435.672952 
L 310.171224 374.861072 
L 310.588202 435.484111 
L 311.005179 414.73022 
L 311.422156 412.942169 
L 311.839133 453.053853 
L 312.256111 402.982957 
L 312.673088 411.968594 
L 313.090065 376.125026 
L 313.507043 407.848541 
L 313.92402 460.15537 
L 314.340997 397.530081 
L 314.757975 439.627356 
L 315.174952 386.721906 
L 315.591929 432.170937 
L 316.008907 451.168757 
L 316.425884 435.243045 
L 316.842861 399.68047 
L 318.093793 428.662536 
L 318.510771 412.313607 
L 318.927748 410.149308 
L 319.344725 426.764359 
L 319.761702 388.572397 
L 320.17868 392.64627 
L 321.012634 433.83881 
L 321.429612 384.610409 
L 321.846589 439.475367 
L 322.263566 439.750875 
L 322.680544 427.135166 
L 323.097521 424.130479 
L 323.514498 446.687661 
L 323.931476 439.574776 
L 324.348453 367.065745 
L 324.76543 428.381899 
L 325.182408 441.527514 
L 325.599385 428.944238 
L 326.016362 366.103981 
L 326.094545 427.081271 
L 326.511523 403.981898 
L 326.9285 423.755857 
L 327.345477 410.384742 
L 327.762455 431.78956 
L 328.179432 436.631671 
L 328.596409 450.578924 
L 329.013387 436.168254 
L 329.430364 404.933196 
L 329.847341 401.453828 
L 330.264319 423.167133 
L 330.681296 402.033668 
L 331.098273 354.093819 
L 331.515251 416.827586 
L 331.932228 442.505613 
L 332.349205 397.633659 
L 332.766183 419.224894 
L 333.18316 412.561472 
L 333.600137 448.409444 
L 334.017114 425.230825 
L 334.434092 431.243895 
L 334.851069 401.985553 
L 335.268046 439.360821 
L 335.685024 393.912914 
L 336.102001 423.837232 
L 336.518978 422.388932 
L 336.935956 411.860197 
L 337.352933 445.56764 
L 337.76991 424.953085 
L 338.186888 441.812438 
L 339.020842 412.707548 
L 339.43782 411.123179 
L 339.854797 416.858229 
L 340.271774 443.626979 
L 341.105729 419.36522 
L 341.522706 413.503694 
L 341.939683 413.544345 
L 342.356661 417.941102 
L 342.773638 427.717446 
L 343.190615 412.918503 
L 343.607593 448.805027 
L 344.441547 412.680674 
L 344.858525 445.630641 
L 345.275502 435.031558 
L 345.692479 391.539361 
L 346.109457 436.220257 
L 346.526434 442.081575 
L 346.943411 430.233321 
L 347.360389 442.009513 
L 347.777366 415.389691 
L 348.194343 439.918341 
L 348.61132 444.9674 
L 349.028298 429.968811 
L 349.445275 397.159362 
L 349.862252 434.632473 
L 350.27923 407.032779 
L 350.696207 425.286789 
L 351.113184 436.697717 
L 351.530162 420.055201 
L 351.947139 419.828252 
L 352.364116 404.701059 
L 353.198071 418.453345 
L 353.615048 427.737357 
L 354.032026 408.504968 
L 354.449003 378.005007 
L 354.86598 431.97027 
L 355.282958 390.552497 
L 355.699935 394.115236 
L 356.116912 418.878521 
L 356.533889 419.868267 
L 356.612073 424.919648 
L 357.02905 418.481253 
L 357.446027 450.144738 
L 357.863005 426.056653 
L 358.279982 437.950762 
L 358.696959 432.225867 
L 359.113937 404.241027 
L 359.530914 405.150744 
L 359.947891 433.902062 
L 360.364869 424.277604 
L 360.781846 428.411315 
L 361.198823 448.628766 
L 361.615801 434.538296 
L 362.032778 409.988686 
L 362.449755 453.349464 
L 362.866732 452.307788 
L 363.28371 403.979134 
L 363.700687 413.961273 
L 364.117664 439.477348 
L 364.534642 381.756351 
L 364.951619 436.089997 
L 365.368596 441.673768 
L 365.785574 420.356652 
L 366.202551 407.66177 
L 366.619528 433.832084 
L 367.036506 396.29272 
L 367.453483 431.590579 
L 367.87046 436.422224 
L 368.287438 399.597853 
L 368.704415 461.420166 
L 369.121392 405.994562 
L 369.53837 392.619293 
L 369.955347 429.215695 
L 370.372324 448.658197 
L 370.789301 355.984679 
L 371.206279 431.047767 
L 371.623256 394.56291 
L 372.040233 420.93191 
L 372.457211 430.25505 
L 372.874188 425.988153 
L 373.291165 434.489131 
L 373.708143 453.557233 
L 374.12512 432.313657 
L 374.542097 432.797577 
L 374.959075 438.242101 
L 375.376052 422.393292 
L 375.793029 441.419576 
L 376.210007 434.794514 
L 376.626984 416.344686 
L 377.043961 449.44557 
L 377.460938 401.921532 
L 377.877916 444.487708 
L 378.294893 429.200499 
L 378.71187 396.570844 
L 379.128848 431.730299 
L 379.545825 427.514134 
L 379.962802 393.431507 
L 380.37978 414.964944 
L 380.796757 387.915261 
L 381.213734 412.855842 
L 381.630712 387.239751 
L 382.047689 414.648357 
L 382.464666 411.875156 
L 382.881644 443.686092 
L 383.298621 433.438009 
L 383.715598 456.429873 
L 384.132576 396.562315 
L 384.549553 436.953934 
L 384.96653 439.188063 
L 385.383507 416.322128 
L 385.800485 383.816347 
L 386.634439 450.747343 
L 387.051417 453.028775 
L 387.1296 420.542772 
L 387.546577 401.173486 
L 387.963555 417.005428 
L 388.380532 395.894492 
L 388.797509 454.633994 
L 389.214487 396.421827 
L 389.631464 391.243084 
L 390.048441 390.502311 
L 390.465419 384.711858 
L 390.882396 450.350638 
L 391.299373 426.761491 
L 391.71635 418.045523 
L 392.133328 442.162315 
L 392.550305 386.354572 
L 392.967282 453.920768 
L 393.38426 403.022336 
L 393.801237 414.239175 
L 394.218214 428.955014 
L 394.635192 417.805921 
L 395.052169 460.776859 
L 395.469146 422.141702 
L 395.886124 450.469197 
L 396.303101 397.241107 
L 396.720078 429.721522 
L 397.137056 413.062184 
L 397.554033 440.609446 
L 397.97101 418.264637 
L 398.387988 454.945164 
L 398.804965 438.430513 
L 399.221942 455.091181 
L 399.638919 404.254449 
L 400.055897 480.104718 
L 400.472874 432.555107 
L 400.889851 436.574021 
L 401.306829 420.419786 
L 401.723806 458.797129 
L 402.140783 427.325914 
L 402.557761 476.155672 
L 402.974738 430.838365 
L 403.391715 429.658122 
L 403.808693 394.76878 
L 404.22567 388.626957 
L 405.059625 439.361412 
L 405.476602 472.714367 
L 405.893579 413.704139 
L 406.310557 427.215196 
L 406.727534 418.712637 
L 407.144511 416.911311 
L 407.561488 468.871885 
L 407.978466 454.867159 
L 408.395443 416.983477 
L 408.81242 411.541348 
L 409.229398 397.263546 
L 409.646375 444.335143 
L 410.063352 394.675047 
L 410.897307 471.839669 
L 411.314284 433.866009 
L 411.731262 451.271027 
L 412.565216 422.663966 
L 412.982194 464.41699 
L 413.399171 410.049839 
L 413.816148 402.399701 
L 414.233126 414.320816 
L 414.650103 439.713875 
L 415.06708 414.428104 
L 415.484057 430.710456 
L 415.901035 401.230013 
L 416.318012 426.217881 
L 416.734989 429.770953 
L 417.151967 428.13192 
L 417.568944 481.553566 
L 417.647127 384.824764 
L 418.064105 428.906662 
L 418.481082 418.493478 
L 418.898059 442.501297 
L 419.315037 432.9276 
L 419.732014 444.394286 
L 420.148991 420.45646 
L 420.565968 431.91908 
L 420.982946 466.008942 
L 421.399923 446.379943 
L 421.8169 404.568316 
L 422.233878 397.99001 
L 422.650855 427.497075 
L 423.067832 395.675925 
L 423.48481 400.345765 
L 423.901787 434.126099 
L 424.318764 421.25877 
L 424.735742 429.437204 
L 425.152719 397.132104 
L 425.569696 444.015614 
L 425.986674 433.325089 
L 426.403651 455.665804 
L 427.237606 423.79565 
L 427.654583 423.634186 
L 428.07156 416.351692 
L 428.488537 415.079372 
L 428.905515 422.737123 
L 429.322492 459.198772 
L 429.739469 418.071037 
L 430.156447 450.773921 
L 430.990401 417.985109 
L 431.407379 450.577897 
L 431.824356 398.398393 
L 432.241333 400.519809 
L 432.658311 465.922497 
L 433.075288 414.951226 
L 433.492265 431.197613 
L 433.909243 429.566148 
L 434.32622 449.795875 
L 434.743197 462.205995 
L 435.160175 411.816383 
L 435.577152 435.263119 
L 435.994129 416.516423 
L 436.411106 460.255193 
L 436.828084 415.326217 
L 437.245061 395.737167 
L 437.662038 433.387144 
L 438.079016 460.711293 
L 438.495993 454.999769 
L 438.91297 423.921919 
L 439.329948 454.127081 
L 439.746925 442.409796 
L 440.163902 399.385198 
L 440.58088 461.462169 
L 440.997857 414.670131 
L 441.414834 429.695461 
L 441.831812 437.993378 
L 442.248789 409.555439 
L 442.665766 439.641798 
L 443.082744 412.126348 
L 443.916698 448.298091 
L 444.333675 443.791237 
L 444.750653 446.763419 
L 445.16763 442.516049 
L 445.584607 443.982103 
L 446.001585 429.678403 
L 446.418562 394.525763 
L 446.835539 436.533695 
L 447.252517 401.464175 
L 447.669494 403.982888 
L 448.086471 424.941821 
L 448.164655 418.092944 
L 448.581632 396.263407 
L 448.998609 437.15565 
L 449.415586 448.494308 
L 449.832564 398.74555 
L 450.249541 461.828927 
L 450.666518 396.183318 
L 451.083496 453.922002 
L 451.500473 427.845118 
L 451.91745 424.546623 
L 452.334428 446.917877 
L 452.751405 427.070081 
L 453.168382 427.320311 
L 453.58536 459.55904 
L 454.002337 431.311553 
L 454.419314 453.649857 
L 454.836292 439.258441 
L 455.253269 421.008732 
L 456.087224 409.919151 
L 456.504201 473.450218 
L 456.921178 427.714238 
L 457.338155 452.746105 
L 457.755133 433.975056 
L 458.589087 417.457434 
L 459.006065 422.437195 
L 459.423042 452.570384 
L 459.840019 471.901517 
L 460.673974 407.483957 
L 461.090951 418.578342 
L 461.507929 421.161431 
L 461.924906 440.595063 
L 462.341883 420.893462 
L 462.758861 380.73296 
L 463.175838 420.084425 
L 463.592815 393.856299 
L 464.009793 445.794648 
L 464.42677 404.717393 
L 464.843747 425.949203 
L 465.260724 435.324494 
L 465.677702 413.996957 
L 466.094679 429.360663 
L 466.511656 427.91659 
L 467.345611 445.290669 
L 467.762588 447.528124 
L 468.179566 420.983366 
L 468.596543 445.666236 
L 469.01352 394.649459 
L 469.430498 447.259505 
L 469.847475 435.933914 
L 470.264452 418.603752 
L 470.68143 411.218833 
L 471.098407 412.862715 
L 471.515384 450.70973 
L 471.932362 421.666962 
L 472.349339 439.658576 
L 472.766316 393.701738 
L 473.183293 411.091486 
L 473.600271 456.974554 
L 474.017248 448.529637 
L 474.434225 430.614934 
L 474.851203 436.266096 
L 475.26818 431.444414 
L 475.685157 407.527387 
L 476.519112 442.94631 
L 476.936089 448.445379 
L 477.353067 434.534453 
L 477.770044 459.192615 
L 478.187021 453.258318 
L 478.603999 461.876651 
L 478.682182 438.138863 
L 479.099159 430.869998 
L 479.516136 420.806543 
L 479.933114 452.475897 
L 480.767068 421.152561 
L 481.184046 430.40222 
L 481.601023 460.933371 
L 482.018 433.921323 
L 482.434978 431.20867 
L 482.851955 425.337728 
L 483.68591 435.191678 
L 484.102887 432.456895 
L 484.519864 396.865569 
L 484.936842 412.729913 
L 485.353819 441.028073 
L 485.770796 387.339057 
L 486.187773 403.826849 
L 486.604751 479.983498 
L 487.021728 422.140298 
L 487.855683 439.48094 
L 488.27266 439.851097 
L 488.689637 462.41131 
L 489.106615 420.469586 
L 489.523592 401.591242 
L 489.940569 438.473263 
L 490.357547 420.485536 
L 490.774524 420.293296 
L 491.191501 437.84742 
L 491.608479 432.791517 
L 492.025456 452.454958 
L 492.442433 421.702424 
L 492.859411 453.788476 
L 493.276388 446.149033 
L 493.693365 429.519865 
L 494.110342 444.380021 
L 494.944297 419.495169 
L 495.361274 447.036931 
L 495.778252 441.543878 
L 496.195229 388.272129 
L 496.612206 435.285278 
L 497.029184 419.292078 
L 497.446161 442.840781 
L 497.863138 438.720832 
L 498.280116 407.394614 
L 498.697093 445.520397 
L 499.11407 451.361877 
L 499.531048 429.32183 
L 499.948025 437.004267 
L 500.365002 436.714362 
L 501.198957 467.95253 
L 501.615934 450.296476 
L 502.449889 398.979003 
L 502.866866 406.72277 
L 503.283843 419.510764 
L 503.700821 422.450011 
L 504.117798 412.467325 
L 504.534775 451.218832 
L 505.36873 426.321311 
L 505.785707 425.304927 
L 506.202685 414.433544 
L 506.619662 455.289837 
L 507.036639 431.089896 
L 507.453617 456.186169 
L 507.870594 426.860383 
L 508.287571 461.684964 
L 508.704549 424.857829 
L 509.121526 416.807659 
L 509.199709 442.764166 
L 509.616686 446.317977 
L 510.033664 419.292108 
L 510.867618 472.458527 
L 511.284596 431.798133 
L 511.701573 452.644198 
L 512.11855 439.767061 
L 512.535528 405.663651 
L 512.952505 440.729151 
L 513.369482 446.322071 
L 513.78646 427.213999 
L 514.203437 419.175699 
L 514.620414 459.18331 
L 515.037392 440.310568 
L 515.454369 454.013082 
L 516.288323 422.994316 
L 516.705301 436.920704 
L 517.122278 464.255814 
L 517.539255 410.091983 
L 517.956233 409.274832 
L 518.37321 417.600125 
L 518.790187 440.391898 
L 519.207165 451.804629 
L 520.041119 403.442235 
L 520.458097 430.194488 
L 520.875074 441.824353 
L 521.292051 414.06593 
L 521.709029 444.283346 
L 522.126006 433.111311 
L 522.542983 437.316715 
L 522.95996 430.396751 
L 523.376938 426.508659 
L 523.793915 418.301607 
L 524.210892 451.072814 
L 524.62787 406.710161 
L 525.044847 429.975699 
L 525.461824 423.654024 
L 525.878802 456.857429 
L 526.295779 409.563274 
L 526.712756 458.65582 
L 527.129734 453.210335 
L 527.546711 421.188349 
L 527.963688 460.254794 
L 528.380666 443.869286 
L 528.797643 421.115976 
L 529.21462 423.187798 
L 529.631598 470.305433 
L 530.465552 440.533969 
L 530.882529 436.255675 
L 531.299507 374.983542 
L 532.133461 475.718575 
L 532.550439 458.253615 
L 532.967416 467.91032 
L 533.384393 417.708669 
L 533.801371 415.665584 
L 534.218348 424.204433 
L 534.635325 461.114311 
L 535.052303 465.357668 
L 535.886257 446.406048 
L 536.303235 417.169938 
L 536.720212 454.920626 
L 537.137189 392.869109 
L 537.554167 437.477869 
L 537.971144 428.992294 
L 538.388121 458.549737 
L 538.805098 406.032803 
L 539.222076 422.044983 
L 539.639053 418.081443 
L 539.717236 430.406832 
L 540.134214 448.594294 
L 540.551191 417.996505 
L 540.968168 431.817454 
L 541.385146 421.36393 
L 541.802123 458.982681 
L 542.636078 429.22285 
L 543.053055 433.21214 
L 543.470032 370.308409 
L 543.88701 463.522447 
L 544.303987 446.809406 
L 544.720964 439.721237 
L 545.137941 480.616872 
L 545.554919 453.082323 
L 545.971896 457.525703 
L 546.388873 411.579427 
L 546.805851 429.334942 
L 547.222828 389.314781 
L 548.056783 483.522889 
L 548.47376 439.997824 
L 548.890737 454.866346 
L 549.307715 480.975714 
L 549.724692 480.726318 
L 550.558647 411.694135 
L 550.975624 464.542955 
L 551.392601 435.383046 
L 551.809579 453.33146 
L 552.226556 435.885473 
L 552.643533 412.638191 
L 553.06051 439.441886 
L 553.477488 430.89257 
L 553.894465 453.789407 
L 554.311442 440.779439 
L 554.72842 451.460784 
L 555.145397 424.666017 
L 555.562374 441.026122 
L 555.979352 380.194332 
L 556.396329 463.748368 
L 557.230284 416.586121 
L 557.647261 460.00885 
L 558.064238 411.023326 
L 558.481216 451.971629 
L 558.898193 403.10649 
L 559.31517 414.415555 
L 559.732148 452.371706 
L 560.149125 416.890202 
L 560.566102 440.299777 
L 560.983079 446.049875 
L 561.400057 414.220461 
L 561.817034 455.1511 
L 562.234011 400.780254 
L 562.650989 437.858788 
L 563.484943 461.410366 
L 563.901921 435.228751 
L 564.318898 416.125438 
L 564.735875 390.521129 
L 565.152853 440.682957 
L 565.56983 442.21757 
L 565.986807 438.289108 
L 566.403785 399.016445 
L 566.820762 436.843926 
L 567.237739 459.15501 
L 567.654716 429.899158 
L 568.071694 472.67957 
L 568.488671 401.417094 
L 568.905648 415.430135 
L 569.322626 436.549616 
L 569.739603 430.584749 
L 570.15658 446.948786 
L 570.234764 442.543943 
L 570.651741 458.359255 
L 571.068718 423.276268 
L 571.485696 424.533615 
L 572.31965 447.415913 
L 572.736628 436.703201 
L 573.153605 442.4614 
L 573.570582 450.138966 
L 573.987559 472.257062 
L 574.404537 461.971167 
L 574.821514 472.187402 
L 575.238491 435.544732 
L 575.655469 458.910285 
L 576.072446 422.021287 
L 576.489423 401.145607 
L 576.906401 418.351319 
L 578.157333 454.114997 
L 578.57431 455.692263 
L 578.991287 450.762569 
L 579.825242 399.016638 
L 580.659197 470.945511 
L 581.910128 430.458111 
L 582.327106 403.601038 
L 582.744083 421.80377 
L 583.16106 445.065908 
L 583.578038 427.912022 
L 583.995015 433.858071 
L 584.411992 430.852511 
L 584.82897 406.704825 
L 585.245947 461.348909 
L 585.662924 394.945603 
L 586.079902 460.634212 
L 586.496879 431.042401 
L 586.913856 434.202138 
L 587.330834 401.854406 
L 587.747811 430.51622 
L 588.164788 411.194901 
L 588.581766 421.699911 
L 588.998743 423.198367 
L 589.41572 403.988831 
L 589.832697 416.840402 
L 590.249675 455.433304 
L 590.666652 466.219173 
L 591.083629 439.791999 
L 591.500607 438.290409 
L 591.917584 442.624061 
L 592.334561 456.263109 
L 592.751539 465.264903 
L 593.168516 454.560232 
L 593.585493 432.056213 
L 594.419448 451.46108 
L 594.836425 460.122805 
L 595.253403 445.844375 
L 595.67038 427.543018 
L 596.087357 372.5312 
L 596.504335 461.237985 
L 596.921312 454.116017 
L 597.338289 464.763791 
L 597.755266 453.137068 
L 598.172244 438.264599 
L 598.589221 392.777195 
L 599.006198 452.490435 
L 599.423176 419.899132 
L 599.840153 440.005259 
L 600.25713 427.976235 
L 600.674108 464.268238 
L 600.752291 402.716688 
L 601.169268 480.327831 
L 601.586246 465.737655 
L 602.003223 463.57584 
L 602.4202 413.171571 
L 602.837177 444.591788 
L 603.254155 459.097352 
L 603.671132 445.906134 
L 604.088109 443.226223 
L 604.505087 459.845634 
L 604.922064 460.696371 
L 605.339041 423.360142 
L 605.756019 403.68194 
L 607.006951 452.640133 
L 607.423928 449.690043 
L 607.840905 448.974178 
L 608.257883 439.728022 
L 608.67486 464.398209 
L 609.091837 423.968201 
L 609.508815 423.394569 
L 609.925792 455.372742 
L 610.342769 442.301591 
L 610.759746 463.142541 
L 611.176724 473.337963 
L 611.593701 476.815942 
L 612.010678 460.171586 
L 612.427656 430.447202 
L 612.844633 474.841696 
L 613.26161 431.44369 
L 613.678588 435.060147 
L 614.095565 472.422392 
L 614.512542 476.548527 
L 614.92952 479.122119 
L 615.346497 437.504758 
L 615.763474 444.130574 
L 616.180452 446.765459 
L 616.597429 436.564324 
L 617.014406 458.930921 
L 617.431384 431.518886 
L 617.848361 450.145448 
L 618.265338 420.196 
L 618.682315 438.078671 
L 619.099293 462.161804 
L 619.51627 435.201316 
L 619.933247 444.428388 
L 620.350225 352.767041 
L 620.767202 474.731939 
L 621.184179 397.707599 
L 621.601157 416.083383 
L 622.018134 414.726229 
L 622.435111 435.808429 
L 622.852089 434.700012 
L 623.269066 460.739224 
L 623.686043 457.180483 
L 624.103021 455.851902 
L 624.519998 424.414575 
L 625.353953 449.10692 
L 625.77093 436.263775 
L 626.187907 418.825601 
L 626.604884 430.248812 
L 627.021862 445.109618 
L 627.438839 408.805117 
L 627.855816 457.206366 
L 628.272794 412.515795 
L 628.689771 443.024522 
L 629.106748 401.598514 
L 629.523726 420.513918 
L 629.940703 415.235988 
L 630.35768 452.595173 
L 630.774658 427.634223 
L 631.191635 513.483546 
L 631.269818 435.49301 
L 631.686795 462.23836 
L 632.103773 448.087639 
L 632.52075 421.016079 
L 632.937727 433.323537 
L 633.354705 472.167321 
L 633.771682 436.532897 
L 634.188659 452.618115 
L 634.605637 448.586858 
L 635.022614 424.698996 
L 635.439591 467.741273 
L 635.856569 419.870736 
L 636.273546 462.730188 
L 637.107501 419.148663 
L 637.524478 447.627489 
L 637.941455 415.49661 
L 638.358433 431.85092 
L 638.77541 463.030973 
L 639.192387 462.489729 
L 639.609364 439.234375 
L 640.026342 458.099187 
L 640.443319 425.380552 
L 640.860296 452.652409 
L 641.277274 394.80643 
L 641.694251 435.858998 
L 642.111228 428.677274 
L 642.528206 438.887633 
L 642.945183 420.57006 
L 643.36216 441.523006 
L 643.779138 452.035843 
L 644.613092 433.900614 
L 645.03007 454.076046 
L 645.447047 453.947686 
L 645.864024 455.433415 
L 646.281002 461.13474 
L 646.697979 410.786518 
L 647.114956 422.003549 
L 647.531933 454.46032 
L 647.948911 441.332997 
L 648.365888 450.455516 
L 648.782865 432.826979 
L 649.199843 388.825451 
L 649.61682 449.939844 
L 650.033797 422.351134 
L 650.450775 434.397704 
L 650.867752 421.576141 
L 651.284729 474.319446 
L 651.701707 423.432382 
L 652.118684 451.743919 
L 652.535661 416.718893 
L 652.952639 457.414409 
L 653.369616 434.831291 
L 653.786593 440.520088 
L 654.203571 434.913627 
L 654.620548 418.015914 
L 655.037525 439.375041 
L 655.454502 438.604764 
L 655.87148 467.467894 
L 656.288457 449.905535 
L 656.705434 409.052864 
L 657.122412 464.544042 
L 657.539389 474.452692 
L 657.956366 438.819488 
L 658.373344 453.889822 
L 658.790321 431.949827 
L 659.207298 444.659742 
L 659.624276 427.42451 
L 660.041253 458.936043 
L 660.45823 449.522362 
L 660.875208 463.484767 
L 661.292185 448.864657 
L 661.709162 530.095056 
L 661.787345 423.33009 
L 662.204323 413.946106 
L 662.6213 478.689426 
L 663.038277 451.559166 
L 663.455255 464.243811 
L 663.872232 423.199003 
L 664.289209 433.274298 
L 664.706187 448.557886 
L 665.123164 429.848337 
L 665.540141 477.12825 
L 665.957119 447.017892 
L 666.374096 432.367922 
L 666.791073 423.847122 
L 667.208051 447.944283 
L 667.625028 430.48259 
L 668.042005 427.903759 
L 668.458983 465.874714 
L 668.87596 446.489049 
L 669.292937 449.347498 
L 669.709914 473.367438 
L 670.126892 475.277545 
L 670.543869 399.11584 
L 670.960846 455.059052 
L 671.377824 430.494209 
L 671.794801 426.783309 
L 672.211778 431.59256 
L 672.628756 431.698207 
L 673.045733 431.439979 
L 673.46271 439.778414 
L 673.879688 445.218961 
L 674.296665 408.762013 
L 674.713642 468.671071 
L 675.13062 403.282943 
L 675.547597 442.268139 
L 675.964574 465.31565 
L 676.381551 421.360988 
L 676.798529 440.968797 
L 677.215506 430.422546 
L 677.632483 427.829612 
L 678.049461 446.953354 
L 678.883415 430.369685 
L 679.300393 480.434949 
L 679.71737 442.463868 
L 680.134347 460.681049 
L 680.551325 467.657296 
L 680.968302 450.556596 
L 681.385279 419.634475 
L 681.802257 440.162304 
L 682.219234 445.828188 
L 682.636211 402.937886 
L 683.053189 499.236989 
L 683.470166 428.846986 
L 683.887143 427.674519 
L 684.30412 456.933445 
L 684.721098 393.965908 
L 685.138075 446.492745 
L 685.555052 442.630181 
L 685.97203 428.187914 
L 686.389007 418.580559 
L 686.805984 423.682627 
L 687.222962 421.267329 
L 687.639939 473.550292 
L 688.056916 407.947345 
L 688.473894 455.578412 
L 688.890871 444.225667 
L 689.307848 458.249979 
L 689.724826 439.345581 
L 690.141803 455.112112 
L 690.55878 461.268857 
L 690.975758 409.616001 
L 691.392735 456.98159 
L 691.809712 422.711653 
L 692.226689 505.839819 
L 692.304873 441.482104 
L 692.72185 440.83332 
L 693.138827 458.700898 
L 693.555805 413.911546 
L 693.972782 406.324172 
L 694.389759 424.010626 
L 694.806737 402.833362 
L 695.223714 430.485029 
L 695.640691 435.588856 
L 696.057669 428.992013 
L 696.474646 467.752167 
L 696.891623 443.305662 
L 697.308601 437.088421 
L 697.725578 455.829958 
L 698.142555 441.885994 
L 698.559532 420.972043 
L 698.97651 438.369714 
L 699.393487 474.986013 
L 699.810464 431.923958 
L 700.227442 434.955268 
L 700.644419 465.523773 
L 701.061396 448.814472 
L 701.478374 458.37332 
L 701.895351 433.916164 
L 702.312328 453.013986 
L 702.729306 478.073222 
L 703.146283 419.84129 
L 703.56326 469.262515 
L 703.980238 484.428637 
L 704.397215 422.243757 
L 704.814192 461.936429 
L 705.23117 440.54374 
L 705.648147 387.118996 
L 706.065124 454.284709 
L 706.482101 408.755523 
L 706.899079 474.469861 
L 707.316056 440.143737 
L 707.733033 461.421711 
L 708.150011 451.82712 
L 708.566988 436.336429 
L 708.983965 441.544499 
L 709.400943 407.737809 
L 709.81792 470.398279 
L 710.234897 445.384121 
L 710.651875 449.462229 
L 711.068852 475.57309 
L 711.485829 435.02776 
L 711.902807 439.459033 
L 712.319784 429.487759 
L 712.736761 416.795804 
L 713.153738 454.21227 
L 713.570716 460.430286 
L 713.987693 459.706469 
L 714.40467 452.242555 
L 714.821648 476.646126 
L 715.238625 445.843784 
L 716.07258 431.31377 
L 716.489557 459.693416 
L 716.906534 469.126055 
L 717.323512 395.664823 
L 717.740489 377.418441 
L 718.157466 457.513419 
L 718.574444 431.686189 
L 718.991421 429.870717 
L 719.408398 455.18838 
L 719.825376 443.465249 
L 720.242353 436.846099 
L 720.65933 466.240267 
L 721.076307 445.64733 
L 721.493285 463.982856 
L 721.910262 442.43355 
L 722.327239 449.805845 
L 722.744217 470.174908 
L 722.8224 452.915714 
L 723.239377 457.532791 
L 723.656355 446.092004 
L 724.073332 453.917516 
L 724.490309 455.169807 
L 724.907287 467.176096 
L 725.324264 432.496142 
L 725.741241 420.623719 
L 726.158219 428.997822 
L 726.575196 467.600252 
L 726.992173 435.202306 
L 727.40915 430.420742 
L 727.826128 446.433173 
L 728.243105 454.193445 
L 728.660082 457.396611 
L 729.07706 451.700748 
L 729.494037 447.65454 
L 729.911014 452.283302 
L 730.327992 433.125266 
L 730.744969 435.772183 
L 731.161946 447.059075 
L 731.578924 409.821723 
L 731.995901 460.677413 
L 732.412878 411.131412 
L 732.829856 454.827004 
L 733.246833 442.297452 
L 733.66381 421.848264 
L 734.497765 446.600018 
L 734.914742 454.467157 
L 735.331719 441.610545 
L 735.748697 454.708991 
L 736.165674 438.480299 
L 736.582651 450.109816 
L 736.999629 420.370798 
L 737.416606 468.913245 
L 737.833583 484.601949 
L 738.250561 405.001623 
L 738.667538 470.021766 
L 739.084515 460.990482 
L 739.501493 472.115561 
L 739.91847 429.447374 
L 740.335447 454.53361 
L 740.752425 430.727736 
L 741.169402 483.963062 
L 741.586379 436.908716 
L 742.003357 457.587218 
L 742.420334 436.40861 
L 742.837311 458.279846 
L 743.254288 451.222268 
L 744.088243 424.122688 
L 744.50522 458.879598 
L 744.922198 434.633256 
L 745.339175 460.05211 
L 745.756152 461.261148 
L 746.17313 446.428413 
L 746.590107 437.468024 
L 747.007084 422.498141 
L 747.841039 472.843326 
L 748.258016 431.473017 
L 748.674994 444.662491 
L 749.091971 427.480637 
L 749.508948 445.413434 
L 749.925926 435.513971 
L 750.342903 432.70108 
L 751.176857 412.005297 
L 751.593835 463.278151 
L 752.010812 441.333264 
L 752.427789 445.179641 
L 752.844767 437.832062 
L 753.261744 401.887843 
L 753.339927 427.56086 
L 753.756905 452.76527 
L 754.173882 405.458329 
L 754.590859 443.635538 
L 755.007837 439.815679 
L 755.424814 451.293333 
L 755.841791 466.766293 
L 756.258768 468.160869 
L 756.675746 428.54051 
L 757.5097 446.684172 
L 757.926678 452.742498 
L 758.343655 462.643536 
L 758.760632 458.972437 
L 759.17761 457.902135 
L 759.594587 438.586035 
L 760.011564 440.82451 
L 760.428542 452.356362 
L 760.845519 417.367204 
L 761.262496 459.858997 
L 761.679474 457.849104 
L 762.096451 420.362609 
L 762.513428 433.945315 
L 762.930406 439.441768 
L 763.347383 497.306705 
L 763.76436 440.787673 
L 764.181337 467.297227 
L 764.598315 480.998522 
L 765.015292 451.17824 
L 765.432269 437.649666 
L 765.849247 468.353826 
L 766.266224 426.414098 
L 766.683201 395.978957 
L 767.517156 481.344481 
L 767.934133 388.80653 
L 768.351111 458.5263 
L 768.768088 477.177962 
L 769.185065 445.958995 
L 769.602043 458.808548 
L 770.01902 381.6808 
L 770.435997 439.196563 
L 770.852975 477.873546 
L 771.269952 459.115793 
L 771.686929 454.867263 
L 772.103906 439.11946 
L 772.520884 445.430477 
L 772.937861 472.882535 
L 773.354838 465.788572 
L 773.771816 461.142434 
L 774.188793 447.259002 
L 774.60577 427.798392 
L 775.022748 449.011724 
L 775.439725 437.476953 
L 775.856702 459.23147 
L 776.27368 428.255453 
L 776.690657 475.247293 
L 777.107634 418.02267 
L 777.524612 441.097135 
L 777.941589 474.924143 
L 778.358566 463.260568 
L 778.775544 408.349401 
L 779.609498 468.762993 
L 780.026475 421.989964 
L 780.443453 470.848459 
L 780.86043 425.941013 
L 781.277407 454.024146 
L 781.694385 464.685787 
L 782.111362 421.12112 
L 782.528339 442.965734 
L 782.945317 428.875915 
L 783.362294 457.599702 
L 783.779271 425.383996 
L 783.857455 480.87116 
L 784.274432 417.507767 
L 784.691409 432.54711 
L 785.108386 471.800438 
L 785.525364 434.653552 
L 785.942341 468.668417 
L 786.359318 381.793572 
L 786.776296 422.583537 
L 787.193273 435.280015 
L 787.61025 414.638911 
L 788.027228 422.55724 
L 788.444205 439.684577 
L 788.861182 462.426166 
L 789.27816 415.208168 
L 789.695137 417.66694 
L 790.112114 455.462003 
L 790.529092 456.835211 
L 790.946069 449.52628 
L 791.363046 432.380443 
L 791.780024 473.959747 
L 792.197001 428.738457 
L 792.613978 468.880252 
L 793.030955 451.857527 
L 793.447933 451.59876 
L 793.86491 452.612527 
L 794.281887 457.638719 
L 794.698865 443.821732 
L 795.115842 463.204485 
L 795.532819 460.877791 
L 795.949797 432.204093 
L 796.366774 449.83997 
L 796.783751 459.113967 
L 797.200729 444.569216 
L 798.034683 465.925091 
L 798.451661 434.14502 
L 798.868638 473.791631 
L 799.285615 497.174324 
L 799.702593 472.310891 
L 800.11957 470.389033 
L 800.536547 451.16912 
L 800.953524 473.73064 
L 801.370502 462.266069 
L 801.787479 455.732264 
L 802.204456 457.754285 
L 802.621434 455.127249 
L 803.038411 453.85929 
L 803.455388 423.163008 
L 803.872366 447.773107 
L 804.289343 420.920661 
L 804.70632 434.963975 
L 805.123298 478.966434 
L 805.540275 485.354599 
L 805.957252 448.580724 
L 806.37423 455.888724 
L 806.791207 440.485025 
L 807.208184 469.26695 
L 807.625162 443.694444 
L 808.042139 405.633452 
L 808.459116 419.448856 
L 808.876093 387.704942 
L 809.293071 459.673172 
L 809.710048 449.428844 
L 810.127025 430.544128 
L 810.544003 450.584696 
L 810.96098 428.504161 
L 811.377957 422.070792 
L 811.794935 436.852648 
L 812.211912 436.890711 
L 812.628889 470.764201 
L 813.045867 438.396706 
L 813.462844 387.194548 
L 813.879821 436.532956 
L 814.296799 384.063636 
L 814.374982 455.649795 
L 814.791959 434.758741 
L 815.208936 461.276352 
L 815.625914 466.827247 
L 816.042891 432.608411 
L 816.459868 410.217512 
L 816.876846 421.921686 
L 817.293823 410.141503 
L 817.7108 446.363845 
L 818.127778 446.106209 
L 818.544755 448.245807 
L 818.961732 449.366198 
L 819.37871 448.937829 
L 819.795687 446.959547 
L 820.212664 453.103247 
L 820.629642 461.693383 
L 821.046619 453.935897 
L 821.463596 452.943194 
L 821.880573 423.115706 
L 822.297551 431.407577 
L 822.714528 467.287279 
L 823.131505 452.437545 
L 823.548483 464.773925 
L 823.96546 460.840887 
L 824.382437 432.965309 
L 824.799415 435.666211 
L 825.216392 454.331598 
L 825.633369 450.992156 
L 826.050347 455.823646 
L 826.467324 468.038599 
L 826.884301 457.610153 
L 827.301279 456.241047 
L 827.718256 430.092418 
L 828.135233 451.650024 
L 828.552211 462.238426 
L 828.969188 454.033976 
L 829.386165 437.939616 
L 829.803142 455.258573 
L 830.22012 455.918103 
L 830.637097 484.948566 
L 831.054074 450.973767 
L 831.471052 436.610399 
L 831.888029 444.333561 
L 832.305006 439.291937 
L 832.721984 458.197296 
L 833.138961 470.494496 
L 833.555938 464.802247 
L 833.972916 435.863137 
L 834.389893 443.711311 
L 834.80687 441.338629 
L 835.223848 451.294538 
L 835.640825 432.570702 
L 836.057802 408.475064 
L 836.47478 482.588901 
L 836.891757 444.110012 
L 837.308734 453.315332 
L 838.142689 438.163224 
L 838.559666 433.053883 
L 838.976643 455.350776 
L 839.393621 460.895374 
L 839.810598 411.077842 
L 840.227575 451.846581 
L 840.644553 467.443193 
L 841.06153 427.636425 
L 841.478507 467.860224 
L 841.895485 446.628725 
L 842.312462 453.146913 
L 842.729439 411.353956 
L 843.146417 456.998412 
L 843.563394 414.06593 
L 843.980371 448.529859 
L 844.397349 455.991755 
L 844.814326 469.203321 
L 844.892509 445.118695 
L 845.309486 466.204635 
L 845.726464 452.783267 
L 846.143441 449.94286 
L 846.560418 459.992952 
L 846.977396 490.353119 
L 847.394373 437.797753 
L 847.81135 436.541633 
L 848.228328 433.63028 
L 848.645305 498.325122 
L 849.062282 430.679739 
L 849.47926 462.266993 
L 849.896237 443.265218 
L 850.313214 402.800679 
L 850.730192 399.735577 
L 851.147169 463.613926 
L 851.564146 455.564014 
L 851.981123 465.215198 
L 852.398101 469.926732 
L 852.815078 436.354685 
L 853.232055 457.177076 
L 853.649033 454.908556 
L 854.482987 474.88639 
L 855.733919 429.105687 
L 856.150897 447.572514 
L 856.567874 413.892374 
L 856.984851 457.324423 
L 857.401829 433.204217 
L 857.818806 464.47107 
L 858.235783 458.188892 
L 858.65276 494.058653 
L 859.069738 455.132896 
L 859.486715 446.214162 
L 859.903692 442.362951 
L 860.32067 489.893804 
L 860.737647 500.072204 
L 861.154624 449.879061 
L 861.571602 474.812021 
L 861.988579 458.855304 
L 862.405556 462.718717 
L 862.822534 427.209963 
L 863.239511 457.532687 
L 863.656488 447.759271 
L 864.073466 429.780162 
L 864.490443 481.101095 
L 864.90742 428.009199 
L 865.324398 448.234706 
L 865.741375 458.880951 
L 866.158352 386.49175 
L 866.575329 431.12762 
L 866.992307 435.449683 
L 867.409284 443.524022 
L 867.826261 446.939 
L 868.243239 421.916453 
L 869.077193 451.112076 
L 869.494171 432.124979 
L 869.911148 436.29702 
L 870.328125 449.432399 
L 870.745103 454.020133 
L 871.16208 471.590215 
L 871.579057 459.550866 
L 871.996035 452.391728 
L 872.413012 463.375558 
L 872.829989 426.223705 
L 873.246967 455.255491 
L 873.663944 432.957815 
L 874.080921 454.766841 
L 874.497898 497.63973 
L 874.914876 422.659029 
L 875.331853 445.65855 
L 875.410036 443.77885 
L 875.827014 441.588372 
L 876.243991 426.617573 
L 876.660968 436.110796 
L 877.077946 435.169904 
L 877.494923 428.707444 
L 877.9119 441.864368 
L 878.328878 441.043328 
L 878.745855 455.090885 
L 879.57981 473.813656 
L 879.996787 437.300691 
L 880.413764 451.697252 
L 880.830741 454.736161 
L 881.247719 444.46314 
L 881.664696 418.944508 
L 882.081673 460.455785 
L 882.498651 463.157205 
L 882.915628 449.889682 
L 883.332605 442.781121 
L 883.749583 453.700183 
L 884.16656 422.756473 
L 884.583537 445.745394 
L 885.000515 450.383032 
L 885.417492 425.178127 
L 886.251447 454.234244 
L 886.668424 460.102058 
L 887.085401 446.75112 
L 887.502379 473.638312 
L 887.919356 432.509756 
L 888.336333 452.467693 
L 888.75331 426.707773 
L 889.587265 471.500916 
L 890.004242 457.113631 
L 890.42122 424.450096 
L 890.838197 456.130159 
L 891.255174 424.209163 
L 891.672152 450.896664 
L 892.089129 445.635637 
L 892.506106 445.458401 
L 892.923084 458.00204 
L 893.340061 458.783544 
L 893.757038 470.647527 
L 894.174016 451.709839 
L 894.590993 458.793773 
L 895.00797 459.578833 
L 895.424948 456.32444 
L 896.258902 471.998273 
L 896.675879 452.182148 
L 897.092857 462.270629 
L 897.509834 427.519352 
L 897.926811 474.790742 
L 898.343789 415.769368 
L 898.760766 456.26288 
L 899.177743 466.472057 
L 899.594721 465.246292 
L 900.011698 494.41779 
L 900.428675 453.987531 
L 900.845653 455.13107 
L 901.26263 463.765641 
L 901.679607 443.270303 
L 902.096585 452.314654 
L 902.513562 438.486596 
L 902.930539 481.895926 
L 903.347516 463.540547 
L 903.764494 453.130276 
L 904.181471 461.185546 
L 904.598448 482.097205 
L 905.015426 453.959216 
L 905.432403 436.455572 
L 905.84938 490.635951 
L 905.927564 441.28735 
L 906.344541 467.334744 
L 906.761518 440.709919 
L 907.178496 446.290364 
L 907.595473 420.820497 
L 908.01245 458.541592 
L 908.429428 462.127746 
L 908.846405 438.792496 
L 909.263382 434.902127 
L 909.680359 462.273948 
L 910.097337 443.067183 
L 910.514314 477.407401 
L 910.931291 456.245393 
L 911.348269 467.052267 
L 911.765246 469.660818 
L 912.182223 469.265235 
L 912.599201 439.340806 
L 913.016178 470.748636 
L 913.433155 470.51981 
L 913.850133 440.349799 
L 914.26711 464.769933 
L 914.684087 433.058702 
L 915.101065 468.658802 
L 915.518042 448.32257 
L 915.935019 466.101936 
L 916.351997 457.423884 
L 916.768974 428.793431 
L 917.185951 438.313602 
L 917.602928 475.346666 
L 918.019906 494.560969 
L 918.436883 461.525814 
L 919.270838 436.797496 
L 919.687815 475.766032 
L 920.104792 416.633468 
L 920.52177 413.50977 
L 921.772702 453.597551 
L 922.189679 453.091569 
L 922.606656 459.344619 
L 923.023634 435.029445 
L 923.857588 453.770265 
L 924.274566 469.564261 
L 924.691543 502.524819 
L 925.10852 486.066939 
L 925.525497 439.15371 
L 925.942475 467.059791 
L 926.359452 411.18479 
L 926.776429 465.88852 
L 927.193407 467.082947 
L 927.610384 410.665926 
L 928.027361 446.41477 
L 928.444339 437.951944 
L 928.861316 448.810141 
L 929.278293 478.626588 
L 929.695271 458.705828 
L 930.112248 427.643299 
L 930.529225 468.223227 
L 931.36318 451.01764 
L 932.197135 463.843905 
L 932.614112 468.832735 
L 933.031089 460.067055 
L 933.448066 462.791925 
L 933.865044 466.281272 
L 934.282021 453.53758 
L 934.698998 447.235469 
L 935.115976 408.946049 
L 935.532953 472.766659 
L 935.94993 418.555444 
L 936.366908 486.103628 
L 936.366908 486.103628 
" clip-path="url(#pac867014c4)" style="fill: none; stroke: #0000ff; stroke-width: 1.5; stroke-linecap: square"/>
   </g>
   <g id="PathCollection_1">
    <defs>
     <path id="m94d5a223a6" d="M 0 3 
C 0.795609 3 1.55874 2.683901 2.12132 2.12132 
C 2.683901 1.55874 3 0.795609 3 0 
C 3 -0.795609 2.683901 -1.55874 2.12132 -2.12132 
C 1.55874 -2.683901 0.795609 -3 0 -3 
C -0.795609 -3 -1.55874 -2.683901 -2.12132 -2.12132 
C -2.683901 -1.55874 -3 -0.795609 -3 0 
C -3 0.795609 -2.683901 1.55874 -2.12132 2.12132 
C -1.55874 2.683901 -0.795609 3 0 3 
z
" style="stroke: #ff0000"/>
    </defs>
    <g clip-path="url(#pac867014c4)">
     <use xlink:href="#m94d5a223a6" x="173.506909" y="296.617474" style="fill: #ff0000; stroke: #ff0000"/>
     <use xlink:href="#m94d5a223a6" x="204.024436" y="352.41691" style="fill: #ff0000; stroke: #ff0000"/>
     <use xlink:href="#m94d5a223a6" x="234.541964" y="376.167938" style="fill: #ff0000; stroke: #ff0000"/>
     <use xlink:href="#m94d5a223a6" x="265.059491" y="402.002827" style="fill: #ff0000; stroke: #ff0000"/>
     <use xlink:href="#m94d5a223a6" x="295.577018" y="405.354875" style="fill: #ff0000; stroke: #ff0000"/>
     <use xlink:href="#m94d5a223a6" x="326.094545" y="412.087698" style="fill: #ff0000; stroke: #ff0000"/>
     <use xlink:href="#m94d5a223a6" x="356.612073" y="412.539909" style="fill: #ff0000; stroke: #ff0000"/>
     <use xlink:href="#m94d5a223a6" x="387.1296" y="418.954593" style="fill: #ff0000; stroke: #ff0000"/>
     <use xlink:href="#m94d5a223a6" x="417.647127" y="416.32191" style="fill: #ff0000; stroke: #ff0000"/>
     <use xlink:href="#m94d5a223a6" x="448.164655" y="424.920627" style="fill: #ff0000; stroke: #ff0000"/>
     <use xlink:href="#m94d5a223a6" x="478.682182" y="425.939531" style="fill: #ff0000; stroke: #ff0000"/>
     <use xlink:href="#m94d5a223a6" x="509.199709" y="424.316445" style="fill: #ff0000; stroke: #ff0000"/>
     <use xlink:href="#m94d5a223a6" x="539.717236" y="421.833716" style="fill: #ff0000; stroke: #ff0000"/>
     <use xlink:href="#m94d5a223a6" x="570.234764" y="427.648077" style="fill: #ff0000; stroke: #ff0000"/>
     <use xlink:href="#m94d5a223a6" x="600.752291" y="427.139735" style="fill: #ff0000; stroke: #ff0000"/>
     <use xlink:href="#m94d5a223a6" x="631.269818" y="426.463861" style="fill: #ff0000; stroke: #ff0000"/>
     <use xlink:href="#m94d5a223a6" x="661.787345" y="429.539131" style="fill: #ff0000; stroke: #ff0000"/>
     <use xlink:href="#m94d5a223a6" x="692.304873" y="429.44575" style="fill: #ff0000; stroke: #ff0000"/>
     <use xlink:href="#m94d5a223a6" x="722.8224" y="428.057694" style="fill: #ff0000; stroke: #ff0000"/>
     <use xlink:href="#m94d5a223a6" x="753.339927" y="428.46663" style="fill: #ff0000; stroke: #ff0000"/>
     <use xlink:href="#m94d5a223a6" x="783.857455" y="431.359572" style="fill: #ff0000; stroke: #ff0000"/>
     <use xlink:href="#m94d5a223a6" x="814.374982" y="425.356365" style="fill: #ff0000; stroke: #ff0000"/>
     <use xlink:href="#m94d5a223a6" x="844.892509" y="431.699072" style="fill: #ff0000; stroke: #ff0000"/>
     <use xlink:href="#m94d5a223a6" x="875.410036" y="435.326027" style="fill: #ff0000; stroke: #ff0000"/>
     <use xlink:href="#m94d5a223a6" x="905.927564" y="434.445416" style="fill: #ff0000; stroke: #ff0000"/>
     <use xlink:href="#m94d5a223a6" x="936.445091" y="433.398786" style="fill: #ff0000; stroke: #ff0000"/>
     <use xlink:href="#m94d5a223a6" x="856.385446" y="442.675918" style="fill: #ff0000; stroke: #ff0000"/>
    </g>
   </g>
   <g id="patch_3">
    <path d="M 135.36 573.3024 
L 135.36 77.2992 
" style="fill: none; stroke: #000000; stroke-width: 0.8; stroke-linejoin: miter; stroke-linecap: square"/>
   </g>
   <g id="patch_4">
    <path d="M 974.592 573.3024 
L 974.592 77.2992 
" style="fill: none; stroke: #000000; stroke-width: 0.8; stroke-linejoin: miter; stroke-linecap: square"/>
   </g>
   <g id="patch_5">
    <path d="M 135.36 573.3024 
L 974.592 573.3024 
" style="fill: none; stroke: #000000; stroke-width: 0.8; stroke-linejoin: miter; stroke-linecap: square"/>
   </g>
   <g id="patch_6">
    <path d="M 135.36 77.2992 
L 974.592 77.2992 
" style="fill: none; stroke: #000000; stroke-width: 0.8; stroke-linejoin: miter; stroke-linecap: square"/>
   </g>
   <g id="legend_1">
    <g id="patch_7">
     <path d="M 798.392 152.0117 
L 960.592 152.0117 
Q 964.592 152.0117 964.592 148.0117 
L 964.592 91.2992 
Q 964.592 87.2992 960.592 87.2992 
L 798.392 87.2992 
Q 794.392 87.2992 794.392 91.2992 
L 794.392 148.0117 
Q 794.392 152.0117 798.392 152.0117 
z
" style="fill: #ffffff; opacity: 0.8; stroke: #cccccc; stroke-linejoin: miter"/>
    </g>
    <g id="line2d_34">
     <path d="M 802.392 103.496075 
L 822.392 103.496075 
L 842.392 103.496075 
" style="fill: none; stroke: #0000ff; stroke-width: 1.5; stroke-linecap: square"/>
    </g>
    <g id="text_19">
     <!-- Train Loss -->
     <g transform="translate(858.392 110.496075) scale(0.2 -0.2)">
      <use xlink:href="#DejaVuSans-54"/>
      <use xlink:href="#DejaVuSans-72" x="46.333984"/>
      <use xlink:href="#DejaVuSans-61" x="87.447266"/>
      <use xlink:href="#DejaVuSans-69" x="148.726562"/>
      <use xlink:href="#DejaVuSans-6e" x="176.509766"/>
      <use xlink:href="#DejaVuSans-20" x="239.888672"/>
      <use xlink:href="#DejaVuSans-4c" x="271.675781"/>
      <use xlink:href="#DejaVuSans-6f" x="325.638672"/>
      <use xlink:href="#DejaVuSans-73" x="386.820312"/>
      <use xlink:href="#DejaVuSans-73" x="438.919922"/>
     </g>
    </g>
    <g id="PathCollection_2">
     <g>
      <use xlink:href="#m94d5a223a6" x="822.392" y="134.602325" style="fill: #ff0000; stroke: #ff0000"/>
     </g>
    </g>
    <g id="text_20">
     <!-- Test Loss -->
     <g transform="translate(858.392 139.852325) scale(0.2 -0.2)">
      <use xlink:href="#DejaVuSans-54"/>
      <use xlink:href="#DejaVuSans-65" x="44.083984"/>
      <use xlink:href="#DejaVuSans-73" x="105.607422"/>
      <use xlink:href="#DejaVuSans-74" x="157.707031"/>
      <use xlink:href="#DejaVuSans-20" x="196.916016"/>
      <use xlink:href="#DejaVuSans-4c" x="228.703125"/>
      <use xlink:href="#DejaVuSans-6f" x="282.666016"/>
      <use xlink:href="#DejaVuSans-73" x="343.847656"/>
      <use xlink:href="#DejaVuSans-73" x="395.947266"/>
     </g>
    </g>
   </g>
  </g>
 </g>
 <defs>
  <clipPath id="pac867014c4">
   <rect x="135.36" y="77.2992" width="839.232" height="496.0032"/>
  </clipPath>
 </defs>
</svg>
