<?xml version="1.0" encoding="UTF-8" standalone="no"?>
<!DOCTYPE svg PUBLIC "-//W3C//DTD SVG 1.1//EN"
 "http://www.w3.org/Graphics/SVG/1.1/DTD/svg11.dtd">
<!-- Generated by graphviz version 9.0.0 (20230911.1827)
 -->
<!-- Title: model Pages: 1 -->
<svg width="130pt" height="864pt"
 viewBox="0.00 0.00 129.73 864.00" xmlns="http://www.w3.org/2000/svg" xmlns:xlink="http://www.w3.org/1999/xlink">
<g id="graph0" class="graph" transform="scale(0.658537 0.658537) rotate(0) translate(4 1308)">
<title>model</title>
<polygon fill="white" stroke="none" points="-4,4 -4,-1308 193,-1308 193,4 -4,4"/>
<!-- 0 -->
<g id="node1" class="node">
<title>0</title>
<polygon fill="lightyellow" stroke="none" points="166.75,-1304 22.25,-1304 22.25,-1270 166.75,-1270 166.75,-1304"/>
<polygon fill="none" stroke="black" points="22.25,-1270 22.25,-1304 84,-1304 84,-1270 22.25,-1270"/>
<text text-anchor="start" x="27.25" y="-1289.5" font-family="Linux libertine" font-size="10.00">input&#45;tensor</text>
<text text-anchor="start" x="36.62" y="-1277.5" font-family="Linux libertine" font-size="10.00">depth:0</text>
<polygon fill="none" stroke="black" points="84,-1270 84,-1304 166.75,-1304 166.75,-1270 84,-1270"/>
<text text-anchor="start" x="89" y="-1283.5" font-family="Linux libertine" font-size="10.00">(64, 1, 750, 500)</text>
</g>
<!-- 1 -->
<g id="node2" class="node">
<title>1</title>
<polygon fill="#c1ffc1" stroke="none" points="183,-1234 6,-1234 6,-1190 183,-1190 183,-1234"/>
<polygon fill="none" stroke="black" points="6,-1190 6,-1234 49,-1234 49,-1190 6,-1190"/>
<text text-anchor="start" x="11.75" y="-1214.5" font-family="Linux libertine" font-size="10.00">Conv2d</text>
<text text-anchor="start" x="11" y="-1202.5" font-family="Linux libertine" font-size="10.00">depth:1</text>
<polygon fill="none" stroke="black" points="49,-1212 49,-1234 92,-1234 92,-1212 49,-1212"/>
<text text-anchor="start" x="58.12" y="-1219.5" font-family="Linux libertine" font-size="10.00">input:</text>
<polygon fill="none" stroke="black" points="92,-1212 92,-1234 183,-1234 183,-1212 92,-1212"/>
<text text-anchor="start" x="99.62" y="-1219.5" font-family="Linux libertine" font-size="10.00">(64, 1, 750, 500) </text>
<polygon fill="none" stroke="black" points="49,-1190 49,-1212 92,-1212 92,-1190 49,-1190"/>
<text text-anchor="start" x="53.62" y="-1197.5" font-family="Linux libertine" font-size="10.00">output: </text>
<polygon fill="none" stroke="black" points="92,-1190 92,-1212 183,-1212 183,-1190 92,-1190"/>
<text text-anchor="start" x="97" y="-1197.5" font-family="Linux libertine" font-size="10.00">(64, 16, 750, 500) </text>
</g>
<!-- 0&#45;&gt;1 -->
<g id="edge1" class="edge">
<title>0&#45;&gt;1</title>
<path fill="none" stroke="black" d="M94.5,-1270.16C94.5,-1262.84 94.5,-1253.86 94.5,-1245.21"/>
<polygon fill="black" stroke="black" points="98,-1245.31 94.5,-1235.31 91,-1245.31 98,-1245.31"/>
</g>
<!-- 2 -->
<g id="node3" class="node">
<title>2</title>
<polygon fill="#c1ffc1" stroke="none" points="183,-1154 6,-1154 6,-1110 183,-1110 183,-1154"/>
<polygon fill="none" stroke="black" points="6,-1110 6,-1154 49,-1154 49,-1110 6,-1110"/>
<text text-anchor="start" x="16.62" y="-1134.5" font-family="Linux libertine" font-size="10.00">ReLU</text>
<text text-anchor="start" x="11" y="-1122.5" font-family="Linux libertine" font-size="10.00">depth:1</text>
<polygon fill="none" stroke="black" points="49,-1132 49,-1154 92,-1154 92,-1132 49,-1132"/>
<text text-anchor="start" x="58.12" y="-1139.5" font-family="Linux libertine" font-size="10.00">input:</text>
<polygon fill="none" stroke="black" points="92,-1132 92,-1154 183,-1154 183,-1132 92,-1132"/>
<text text-anchor="start" x="97" y="-1139.5" font-family="Linux libertine" font-size="10.00">(64, 16, 750, 500) </text>
<polygon fill="none" stroke="black" points="49,-1110 49,-1132 92,-1132 92,-1110 49,-1110"/>
<text text-anchor="start" x="53.62" y="-1117.5" font-family="Linux libertine" font-size="10.00">output: </text>
<polygon fill="none" stroke="black" points="92,-1110 92,-1132 183,-1132 183,-1110 92,-1110"/>
<text text-anchor="start" x="97" y="-1117.5" font-family="Linux libertine" font-size="10.00">(64, 16, 750, 500) </text>
</g>
<!-- 1&#45;&gt;2 -->
<g id="edge2" class="edge">
<title>1&#45;&gt;2</title>
<path fill="none" stroke="black" d="M94.5,-1190.1C94.5,-1182.49 94.5,-1173.7 94.5,-1165.34"/>
<polygon fill="black" stroke="black" points="98,-1165.47 94.5,-1155.47 91,-1165.47 98,-1165.47"/>
</g>
<!-- 3 -->
<g id="node4" class="node">
<title>3</title>
<polygon fill="#c1ffc1" stroke="none" points="183,-1074 6,-1074 6,-1030 183,-1030 183,-1074"/>
<polygon fill="none" stroke="black" points="6,-1030 6,-1074 49,-1074 49,-1030 6,-1030"/>
<text text-anchor="start" x="10.62" y="-1054.5" font-family="Linux libertine" font-size="10.00">Dropout</text>
<text text-anchor="start" x="11" y="-1042.5" font-family="Linux libertine" font-size="10.00">depth:1</text>
<polygon fill="none" stroke="black" points="49,-1052 49,-1074 92,-1074 92,-1052 49,-1052"/>
<text text-anchor="start" x="58.12" y="-1059.5" font-family="Linux libertine" font-size="10.00">input:</text>
<polygon fill="none" stroke="black" points="92,-1052 92,-1074 183,-1074 183,-1052 92,-1052"/>
<text text-anchor="start" x="97" y="-1059.5" font-family="Linux libertine" font-size="10.00">(64, 16, 750, 500) </text>
<polygon fill="none" stroke="black" points="49,-1030 49,-1052 92,-1052 92,-1030 49,-1030"/>
<text text-anchor="start" x="53.62" y="-1037.5" font-family="Linux libertine" font-size="10.00">output: </text>
<polygon fill="none" stroke="black" points="92,-1030 92,-1052 183,-1052 183,-1030 92,-1030"/>
<text text-anchor="start" x="97" y="-1037.5" font-family="Linux libertine" font-size="10.00">(64, 16, 750, 500) </text>
</g>
<!-- 2&#45;&gt;3 -->
<g id="edge3" class="edge">
<title>2&#45;&gt;3</title>
<path fill="none" stroke="black" d="M94.5,-1110.1C94.5,-1102.49 94.5,-1093.7 94.5,-1085.34"/>
<polygon fill="black" stroke="black" points="98,-1085.47 94.5,-1075.47 91,-1085.47 98,-1085.47"/>
</g>
<!-- 4 -->
<g id="node5" class="node">
<title>4</title>
<polygon fill="#c1ffc1" stroke="none" points="183,-994 6,-994 6,-950 183,-950 183,-994"/>
<polygon fill="none" stroke="black" points="6,-950 6,-994 49,-994 49,-950 6,-950"/>
<text text-anchor="start" x="11.75" y="-974.5" font-family="Linux libertine" font-size="10.00">Conv2d</text>
<text text-anchor="start" x="11" y="-962.5" font-family="Linux libertine" font-size="10.00">depth:1</text>
<polygon fill="none" stroke="black" points="49,-972 49,-994 92,-994 92,-972 49,-972"/>
<text text-anchor="start" x="58.12" y="-979.5" font-family="Linux libertine" font-size="10.00">input:</text>
<polygon fill="none" stroke="black" points="92,-972 92,-994 183,-994 183,-972 92,-972"/>
<text text-anchor="start" x="97" y="-979.5" font-family="Linux libertine" font-size="10.00">(64, 16, 750, 500) </text>
<polygon fill="none" stroke="black" points="49,-950 49,-972 92,-972 92,-950 49,-950"/>
<text text-anchor="start" x="53.62" y="-957.5" font-family="Linux libertine" font-size="10.00">output: </text>
<polygon fill="none" stroke="black" points="92,-950 92,-972 183,-972 183,-950 92,-950"/>
<text text-anchor="start" x="97" y="-957.5" font-family="Linux libertine" font-size="10.00">(64, 16, 750, 500) </text>
</g>
<!-- 3&#45;&gt;4 -->
<g id="edge4" class="edge">
<title>3&#45;&gt;4</title>
<path fill="none" stroke="black" d="M94.5,-1030.1C94.5,-1022.49 94.5,-1013.7 94.5,-1005.34"/>
<polygon fill="black" stroke="black" points="98,-1005.47 94.5,-995.47 91,-1005.47 98,-1005.47"/>
</g>
<!-- 5 -->
<g id="node6" class="node">
<title>5</title>
<polygon fill="#c1ffc1" stroke="none" points="183,-914 6,-914 6,-870 183,-870 183,-914"/>
<polygon fill="none" stroke="black" points="6,-870 6,-914 49,-914 49,-870 6,-870"/>
<text text-anchor="start" x="16.62" y="-894.5" font-family="Linux libertine" font-size="10.00">ReLU</text>
<text text-anchor="start" x="11" y="-882.5" font-family="Linux libertine" font-size="10.00">depth:1</text>
<polygon fill="none" stroke="black" points="49,-892 49,-914 92,-914 92,-892 49,-892"/>
<text text-anchor="start" x="58.12" y="-899.5" font-family="Linux libertine" font-size="10.00">input:</text>
<polygon fill="none" stroke="black" points="92,-892 92,-914 183,-914 183,-892 92,-892"/>
<text text-anchor="start" x="97" y="-899.5" font-family="Linux libertine" font-size="10.00">(64, 16, 750, 500) </text>
<polygon fill="none" stroke="black" points="49,-870 49,-892 92,-892 92,-870 49,-870"/>
<text text-anchor="start" x="53.62" y="-877.5" font-family="Linux libertine" font-size="10.00">output: </text>
<polygon fill="none" stroke="black" points="92,-870 92,-892 183,-892 183,-870 92,-870"/>
<text text-anchor="start" x="97" y="-877.5" font-family="Linux libertine" font-size="10.00">(64, 16, 750, 500) </text>
</g>
<!-- 4&#45;&gt;5 -->
<g id="edge5" class="edge">
<title>4&#45;&gt;5</title>
<path fill="none" stroke="black" d="M94.5,-950.1C94.5,-942.49 94.5,-933.7 94.5,-925.34"/>
<polygon fill="black" stroke="black" points="98,-925.47 94.5,-915.47 91,-925.47 98,-925.47"/>
</g>
<!-- 6 -->
<g id="node7" class="node">
<title>6</title>
<polygon fill="#c1ffc1" stroke="none" points="183,-834 6,-834 6,-790 183,-790 183,-834"/>
<polygon fill="none" stroke="black" points="6,-790 6,-834 49,-834 49,-790 6,-790"/>
<text text-anchor="start" x="11.75" y="-814.5" font-family="Linux libertine" font-size="10.00">Conv2d</text>
<text text-anchor="start" x="11" y="-802.5" font-family="Linux libertine" font-size="10.00">depth:1</text>
<polygon fill="none" stroke="black" points="49,-812 49,-834 92,-834 92,-812 49,-812"/>
<text text-anchor="start" x="58.12" y="-819.5" font-family="Linux libertine" font-size="10.00">input:</text>
<polygon fill="none" stroke="black" points="92,-812 92,-834 183,-834 183,-812 92,-812"/>
<text text-anchor="start" x="97" y="-819.5" font-family="Linux libertine" font-size="10.00">(64, 16, 750, 500) </text>
<polygon fill="none" stroke="black" points="49,-790 49,-812 92,-812 92,-790 49,-790"/>
<text text-anchor="start" x="53.62" y="-797.5" font-family="Linux libertine" font-size="10.00">output: </text>
<polygon fill="none" stroke="black" points="92,-790 92,-812 183,-812 183,-790 92,-790"/>
<text text-anchor="start" x="97" y="-797.5" font-family="Linux libertine" font-size="10.00">(64, 16, 750, 500) </text>
</g>
<!-- 5&#45;&gt;6 -->
<g id="edge6" class="edge">
<title>5&#45;&gt;6</title>
<path fill="none" stroke="black" d="M94.5,-870.1C94.5,-862.49 94.5,-853.7 94.5,-845.34"/>
<polygon fill="black" stroke="black" points="98,-845.47 94.5,-835.47 91,-845.47 98,-845.47"/>
</g>
<!-- 7 -->
<g id="node8" class="node">
<title>7</title>
<polygon fill="#c1ffc1" stroke="none" points="183,-754 6,-754 6,-710 183,-710 183,-754"/>
<polygon fill="none" stroke="black" points="6,-710 6,-754 49,-754 49,-710 6,-710"/>
<text text-anchor="start" x="16.62" y="-734.5" font-family="Linux libertine" font-size="10.00">ReLU</text>
<text text-anchor="start" x="11" y="-722.5" font-family="Linux libertine" font-size="10.00">depth:1</text>
<polygon fill="none" stroke="black" points="49,-732 49,-754 92,-754 92,-732 49,-732"/>
<text text-anchor="start" x="58.12" y="-739.5" font-family="Linux libertine" font-size="10.00">input:</text>
<polygon fill="none" stroke="black" points="92,-732 92,-754 183,-754 183,-732 92,-732"/>
<text text-anchor="start" x="97" y="-739.5" font-family="Linux libertine" font-size="10.00">(64, 16, 750, 500) </text>
<polygon fill="none" stroke="black" points="49,-710 49,-732 92,-732 92,-710 49,-710"/>
<text text-anchor="start" x="53.62" y="-717.5" font-family="Linux libertine" font-size="10.00">output: </text>
<polygon fill="none" stroke="black" points="92,-710 92,-732 183,-732 183,-710 92,-710"/>
<text text-anchor="start" x="97" y="-717.5" font-family="Linux libertine" font-size="10.00">(64, 16, 750, 500) </text>
</g>
<!-- 6&#45;&gt;7 -->
<g id="edge7" class="edge">
<title>6&#45;&gt;7</title>
<path fill="none" stroke="black" d="M94.5,-790.1C94.5,-782.49 94.5,-773.7 94.5,-765.34"/>
<polygon fill="black" stroke="black" points="98,-765.47 94.5,-755.47 91,-765.47 98,-765.47"/>
</g>
<!-- 8 -->
<g id="node9" class="node">
<title>8</title>
<polygon fill="#c1ffc1" stroke="none" points="189,-674 0,-674 0,-630 189,-630 189,-674"/>
<polygon fill="none" stroke="black" points="0,-630 0,-674 55,-674 55,-630 0,-630"/>
<text text-anchor="start" x="4.62" y="-654.5" font-family="Linux libertine" font-size="10.00">MaxPool2d</text>
<text text-anchor="start" x="11" y="-642.5" font-family="Linux libertine" font-size="10.00">depth:1</text>
<polygon fill="none" stroke="black" points="55,-652 55,-674 98,-674 98,-652 55,-652"/>
<text text-anchor="start" x="64.12" y="-659.5" font-family="Linux libertine" font-size="10.00">input:</text>
<polygon fill="none" stroke="black" points="98,-652 98,-674 189,-674 189,-652 98,-652"/>
<text text-anchor="start" x="103" y="-659.5" font-family="Linux libertine" font-size="10.00">(64, 16, 750, 500) </text>
<polygon fill="none" stroke="black" points="55,-630 55,-652 98,-652 98,-630 55,-630"/>
<text text-anchor="start" x="59.62" y="-637.5" font-family="Linux libertine" font-size="10.00">output: </text>
<polygon fill="none" stroke="black" points="98,-630 98,-652 189,-652 189,-630 98,-630"/>
<text text-anchor="start" x="103" y="-637.5" font-family="Linux libertine" font-size="10.00">(64, 16, 250, 166) </text>
</g>
<!-- 7&#45;&gt;8 -->
<g id="edge8" class="edge">
<title>7&#45;&gt;8</title>
<path fill="none" stroke="black" d="M94.5,-710.1C94.5,-702.49 94.5,-693.7 94.5,-685.34"/>
<polygon fill="black" stroke="black" points="98,-685.47 94.5,-675.47 91,-685.47 98,-685.47"/>
</g>
<!-- 9 -->
<g id="node10" class="node">
<title>9</title>
<polygon fill="#c1ffc1" stroke="none" points="183,-594 6,-594 6,-550 183,-550 183,-594"/>
<polygon fill="none" stroke="black" points="6,-550 6,-594 49,-594 49,-550 6,-550"/>
<text text-anchor="start" x="12.88" y="-574.5" font-family="Linux libertine" font-size="10.00">Flatten</text>
<text text-anchor="start" x="11" y="-562.5" font-family="Linux libertine" font-size="10.00">depth:1</text>
<polygon fill="none" stroke="black" points="49,-572 49,-594 92,-594 92,-572 49,-572"/>
<text text-anchor="start" x="58.12" y="-579.5" font-family="Linux libertine" font-size="10.00">input:</text>
<polygon fill="none" stroke="black" points="92,-572 92,-594 183,-594 183,-572 92,-572"/>
<text text-anchor="start" x="97" y="-579.5" font-family="Linux libertine" font-size="10.00">(64, 16, 250, 166) </text>
<polygon fill="none" stroke="black" points="49,-550 49,-572 92,-572 92,-550 49,-550"/>
<text text-anchor="start" x="53.62" y="-557.5" font-family="Linux libertine" font-size="10.00">output: </text>
<polygon fill="none" stroke="black" points="92,-550 92,-572 183,-572 183,-550 92,-550"/>
<text text-anchor="start" x="108.25" y="-557.5" font-family="Linux libertine" font-size="10.00">(64, 664000) </text>
</g>
<!-- 8&#45;&gt;9 -->
<g id="edge9" class="edge">
<title>8&#45;&gt;9</title>
<path fill="none" stroke="black" d="M94.5,-630.1C94.5,-622.49 94.5,-613.7 94.5,-605.34"/>
<polygon fill="black" stroke="black" points="98,-605.47 94.5,-595.47 91,-605.47 98,-605.47"/>
</g>
<!-- 10 -->
<g id="node11" class="node">
<title>10</title>
<polygon fill="#c1ffc1" stroke="none" points="171.5,-514 17.5,-514 17.5,-470 171.5,-470 171.5,-514"/>
<polygon fill="none" stroke="black" points="17.5,-470 17.5,-514 60.5,-514 60.5,-470 17.5,-470"/>
<text text-anchor="start" x="25.88" y="-494.5" font-family="Linux libertine" font-size="10.00">Linear</text>
<text text-anchor="start" x="22.5" y="-482.5" font-family="Linux libertine" font-size="10.00">depth:1</text>
<polygon fill="none" stroke="black" points="60.5,-492 60.5,-514 103.5,-514 103.5,-492 60.5,-492"/>
<text text-anchor="start" x="69.62" y="-499.5" font-family="Linux libertine" font-size="10.00">input:</text>
<polygon fill="none" stroke="black" points="103.5,-492 103.5,-514 171.5,-514 171.5,-492 103.5,-492"/>
<text text-anchor="start" x="108.25" y="-499.5" font-family="Linux libertine" font-size="10.00">(64, 664000) </text>
<polygon fill="none" stroke="black" points="60.5,-470 60.5,-492 103.5,-492 103.5,-470 60.5,-470"/>
<text text-anchor="start" x="65.12" y="-477.5" font-family="Linux libertine" font-size="10.00">output: </text>
<polygon fill="none" stroke="black" points="103.5,-470 103.5,-492 171.5,-492 171.5,-470 103.5,-470"/>
<text text-anchor="start" x="116.12" y="-477.5" font-family="Linux libertine" font-size="10.00">(64, 480) </text>
</g>
<!-- 9&#45;&gt;10 -->
<g id="edge10" class="edge">
<title>9&#45;&gt;10</title>
<path fill="none" stroke="black" d="M94.5,-550.1C94.5,-542.49 94.5,-533.7 94.5,-525.34"/>
<polygon fill="black" stroke="black" points="98,-525.47 94.5,-515.47 91,-525.47 98,-525.47"/>
</g>
<!-- 11 -->
<g id="node12" class="node">
<title>11</title>
<polygon fill="#c1ffc1" stroke="none" points="163.5,-434 25.5,-434 25.5,-390 163.5,-390 163.5,-434"/>
<polygon fill="none" stroke="black" points="25.5,-390 25.5,-434 68.5,-434 68.5,-390 25.5,-390"/>
<text text-anchor="start" x="36.12" y="-414.5" font-family="Linux libertine" font-size="10.00">ReLU</text>
<text text-anchor="start" x="30.5" y="-402.5" font-family="Linux libertine" font-size="10.00">depth:1</text>
<polygon fill="none" stroke="black" points="68.5,-412 68.5,-434 111.5,-434 111.5,-412 68.5,-412"/>
<text text-anchor="start" x="77.62" y="-419.5" font-family="Linux libertine" font-size="10.00">input:</text>
<polygon fill="none" stroke="black" points="111.5,-412 111.5,-434 163.5,-434 163.5,-412 111.5,-412"/>
<text text-anchor="start" x="116.12" y="-419.5" font-family="Linux libertine" font-size="10.00">(64, 480) </text>
<polygon fill="none" stroke="black" points="68.5,-390 68.5,-412 111.5,-412 111.5,-390 68.5,-390"/>
<text text-anchor="start" x="73.12" y="-397.5" font-family="Linux libertine" font-size="10.00">output: </text>
<polygon fill="none" stroke="black" points="111.5,-390 111.5,-412 163.5,-412 163.5,-390 111.5,-390"/>
<text text-anchor="start" x="116.12" y="-397.5" font-family="Linux libertine" font-size="10.00">(64, 480) </text>
</g>
<!-- 10&#45;&gt;11 -->
<g id="edge11" class="edge">
<title>10&#45;&gt;11</title>
<path fill="none" stroke="black" d="M94.5,-470.1C94.5,-462.49 94.5,-453.7 94.5,-445.34"/>
<polygon fill="black" stroke="black" points="98,-445.47 94.5,-435.47 91,-445.47 98,-445.47"/>
</g>
<!-- 12 -->
<g id="node13" class="node">
<title>12</title>
<polygon fill="#c1ffc1" stroke="none" points="163.5,-354 25.5,-354 25.5,-310 163.5,-310 163.5,-354"/>
<polygon fill="none" stroke="black" points="25.5,-310 25.5,-354 68.5,-354 68.5,-310 25.5,-310"/>
<text text-anchor="start" x="30.12" y="-334.5" font-family="Linux libertine" font-size="10.00">Dropout</text>
<text text-anchor="start" x="30.5" y="-322.5" font-family="Linux libertine" font-size="10.00">depth:1</text>
<polygon fill="none" stroke="black" points="68.5,-332 68.5,-354 111.5,-354 111.5,-332 68.5,-332"/>
<text text-anchor="start" x="77.62" y="-339.5" font-family="Linux libertine" font-size="10.00">input:</text>
<polygon fill="none" stroke="black" points="111.5,-332 111.5,-354 163.5,-354 163.5,-332 111.5,-332"/>
<text text-anchor="start" x="116.12" y="-339.5" font-family="Linux libertine" font-size="10.00">(64, 480) </text>
<polygon fill="none" stroke="black" points="68.5,-310 68.5,-332 111.5,-332 111.5,-310 68.5,-310"/>
<text text-anchor="start" x="73.12" y="-317.5" font-family="Linux libertine" font-size="10.00">output: </text>
<polygon fill="none" stroke="black" points="111.5,-310 111.5,-332 163.5,-332 163.5,-310 111.5,-310"/>
<text text-anchor="start" x="116.12" y="-317.5" font-family="Linux libertine" font-size="10.00">(64, 480) </text>
</g>
<!-- 11&#45;&gt;12 -->
<g id="edge12" class="edge">
<title>11&#45;&gt;12</title>
<path fill="none" stroke="black" d="M94.5,-390.1C94.5,-382.49 94.5,-373.7 94.5,-365.34"/>
<polygon fill="black" stroke="black" points="98,-365.47 94.5,-355.47 91,-365.47 98,-365.47"/>
</g>
<!-- 13 -->
<g id="node14" class="node">
<title>13</title>
<polygon fill="#c1ffc1" stroke="none" points="163.5,-274 25.5,-274 25.5,-230 163.5,-230 163.5,-274"/>
<polygon fill="none" stroke="black" points="25.5,-230 25.5,-274 68.5,-274 68.5,-230 25.5,-230"/>
<text text-anchor="start" x="33.88" y="-254.5" font-family="Linux libertine" font-size="10.00">Linear</text>
<text text-anchor="start" x="30.5" y="-242.5" font-family="Linux libertine" font-size="10.00">depth:1</text>
<polygon fill="none" stroke="black" points="68.5,-252 68.5,-274 111.5,-274 111.5,-252 68.5,-252"/>
<text text-anchor="start" x="77.62" y="-259.5" font-family="Linux libertine" font-size="10.00">input:</text>
<polygon fill="none" stroke="black" points="111.5,-252 111.5,-274 163.5,-274 163.5,-252 111.5,-252"/>
<text text-anchor="start" x="116.12" y="-259.5" font-family="Linux libertine" font-size="10.00">(64, 480) </text>
<polygon fill="none" stroke="black" points="68.5,-230 68.5,-252 111.5,-252 111.5,-230 68.5,-230"/>
<text text-anchor="start" x="73.12" y="-237.5" font-family="Linux libertine" font-size="10.00">output: </text>
<polygon fill="none" stroke="black" points="111.5,-230 111.5,-252 163.5,-252 163.5,-230 111.5,-230"/>
<text text-anchor="start" x="116.12" y="-237.5" font-family="Linux libertine" font-size="10.00">(64, 160) </text>
</g>
<!-- 12&#45;&gt;13 -->
<g id="edge13" class="edge">
<title>12&#45;&gt;13</title>
<path fill="none" stroke="black" d="M94.5,-310.1C94.5,-302.49 94.5,-293.7 94.5,-285.34"/>
<polygon fill="black" stroke="black" points="98,-285.47 94.5,-275.47 91,-285.47 98,-285.47"/>
</g>
<!-- 14 -->
<g id="node15" class="node">
<title>14</title>
<polygon fill="#c1ffc1" stroke="none" points="163.5,-194 25.5,-194 25.5,-150 163.5,-150 163.5,-194"/>
<polygon fill="none" stroke="black" points="25.5,-150 25.5,-194 68.5,-194 68.5,-150 25.5,-150"/>
<text text-anchor="start" x="36.12" y="-174.5" font-family="Linux libertine" font-size="10.00">ReLU</text>
<text text-anchor="start" x="30.5" y="-162.5" font-family="Linux libertine" font-size="10.00">depth:1</text>
<polygon fill="none" stroke="black" points="68.5,-172 68.5,-194 111.5,-194 111.5,-172 68.5,-172"/>
<text text-anchor="start" x="77.62" y="-179.5" font-family="Linux libertine" font-size="10.00">input:</text>
<polygon fill="none" stroke="black" points="111.5,-172 111.5,-194 163.5,-194 163.5,-172 111.5,-172"/>
<text text-anchor="start" x="116.12" y="-179.5" font-family="Linux libertine" font-size="10.00">(64, 160) </text>
<polygon fill="none" stroke="black" points="68.5,-150 68.5,-172 111.5,-172 111.5,-150 68.5,-150"/>
<text text-anchor="start" x="73.12" y="-157.5" font-family="Linux libertine" font-size="10.00">output: </text>
<polygon fill="none" stroke="black" points="111.5,-150 111.5,-172 163.5,-172 163.5,-150 111.5,-150"/>
<text text-anchor="start" x="116.12" y="-157.5" font-family="Linux libertine" font-size="10.00">(64, 160) </text>
</g>
<!-- 13&#45;&gt;14 -->
<g id="edge14" class="edge">
<title>13&#45;&gt;14</title>
<path fill="none" stroke="black" d="M94.5,-230.1C94.5,-222.49 94.5,-213.7 94.5,-205.34"/>
<polygon fill="black" stroke="black" points="98,-205.47 94.5,-195.47 91,-205.47 98,-205.47"/>
</g>
<!-- 15 -->
<g id="node16" class="node">
<title>15</title>
<polygon fill="#c1ffc1" stroke="none" points="163.5,-114 25.5,-114 25.5,-70 163.5,-70 163.5,-114"/>
<polygon fill="none" stroke="black" points="25.5,-70 25.5,-114 68.5,-114 68.5,-70 25.5,-70"/>
<text text-anchor="start" x="33.88" y="-94.5" font-family="Linux libertine" font-size="10.00">Linear</text>
<text text-anchor="start" x="30.5" y="-82.5" font-family="Linux libertine" font-size="10.00">depth:1</text>
<polygon fill="none" stroke="black" points="68.5,-92 68.5,-114 111.5,-114 111.5,-92 68.5,-92"/>
<text text-anchor="start" x="77.62" y="-99.5" font-family="Linux libertine" font-size="10.00">input:</text>
<polygon fill="none" stroke="black" points="111.5,-92 111.5,-114 163.5,-114 163.5,-92 111.5,-92"/>
<text text-anchor="start" x="116.12" y="-99.5" font-family="Linux libertine" font-size="10.00">(64, 160) </text>
<polygon fill="none" stroke="black" points="68.5,-70 68.5,-92 111.5,-92 111.5,-70 68.5,-70"/>
<text text-anchor="start" x="73.12" y="-77.5" font-family="Linux libertine" font-size="10.00">output: </text>
<polygon fill="none" stroke="black" points="111.5,-70 111.5,-92 163.5,-92 163.5,-70 111.5,-70"/>
<text text-anchor="start" x="121.38" y="-77.5" font-family="Linux libertine" font-size="10.00">(64, 3) </text>
</g>
<!-- 14&#45;&gt;15 -->
<g id="edge15" class="edge">
<title>14&#45;&gt;15</title>
<path fill="none" stroke="black" d="M94.5,-150.1C94.5,-142.49 94.5,-133.7 94.5,-125.34"/>
<polygon fill="black" stroke="black" points="98,-125.47 94.5,-115.47 91,-125.47 98,-125.47"/>
</g>
<!-- 16 -->
<g id="node17" class="node">
<title>16</title>
<polygon fill="lightyellow" stroke="none" points="148,-34 41,-34 41,0 148,0 148,-34"/>
<polygon fill="none" stroke="black" points="41,0 41,-34 108.75,-34 108.75,0 41,0"/>
<text text-anchor="start" x="46" y="-19.5" font-family="Linux libertine" font-size="10.00">output&#45;tensor</text>
<text text-anchor="start" x="58.38" y="-7.5" font-family="Linux libertine" font-size="10.00">depth:0</text>
<polygon fill="none" stroke="black" points="108.75,0 108.75,-34 148,-34 148,0 108.75,0"/>
<text text-anchor="start" x="113.75" y="-13.5" font-family="Linux libertine" font-size="10.00">(64, 3)</text>
</g>
<!-- 15&#45;&gt;16 -->
<g id="edge16" class="edge">
<title>15&#45;&gt;16</title>
<path fill="none" stroke="black" d="M94.5,-70.28C94.5,-62.46 94.5,-53.45 94.5,-45.13"/>
<polygon fill="black" stroke="black" points="98,-45.18 94.5,-35.18 91,-45.18 98,-45.18"/>
</g>
</g>
</svg>
